<?xml version="1.0" encoding="utf-8"?>
<!-- Generator: Adobe Illustrator 24.3.0, SVG Export Plug-In . SVG Version: 6.00 Build 0)  -->
<svg version="1.1" id="Livello_1" xmlns="http://www.w3.org/2000/svg" xmlns:xlink="http://www.w3.org/1999/xlink" x="0px" y="0px"
	 viewBox="0 0 900 500" style="enable-background:new 0 0 900 500;" xml:space="preserve">
<style type="text/css">
	.st0{fill:#434945;}
	.st1{fill:#8EC045;stroke:#546F29;stroke-miterlimit:10;}
	.st2{fill:#8EC045;}
	.st3{fill:none;stroke:#8EC045;stroke-width:6;stroke-miterlimit:10;}
</style>
<path class="st0" d="M870.2,500H29.8C13.3,500,0,486.7,0,470.2V29.8C0,13.3,13.3,0,29.8,0h840.4C886.7,0,900,13.3,900,29.8v440.4
	C900,486.7,886.7,500,870.2,500z"/>
<g>
	<path class="st1" d="M592.5,338.3"/>
</g>
<g>
	<path class="st2" d="M266.2,182.6c0.6,0.7,1.4,1.3,2.3,1.6c1.1,0.3,2.2,0.2,3.1-0.3c0.7-0.3,1.3-0.8,1.9-1.3c0-1.1,0.1-1.1,0.3-2.4
		c0.2-1.8,0.5-3.2,0.9-4.4c1-3.1,2.5-5.4,4.4-6.7c2.6-1.7,5.9-2.5,9.7-2.5v0.3h2c0.3,0.6,1.1,1.1,2.3,1.4c1.2,0.3,2.3,0.5,3.4,0.5
		c1.3,0,2.3-0.3,3.1-0.9c0.8-0.6,1.3-1.5,1.3-2.5c0-2.2-1.2-4-3.5-5.5c-2.3-1.5-4.8-2.2-7.5-2.2c-7.2,0-13.2,1.9-17.9,5.8
		c-4.7,3.9-7.1,8.9-7.1,15.2c0,1.4,0.1,1.6,0.3,3C265.6,181.9,265.9,182.2,266.2,182.6z"/>
</g>
<g>
	<path class="st2" d="M273.7,195.5l-0.3-5.4c-0.2-0.2-0.4-0.3-0.6-0.4c-1.6-1-3.6-1.2-5.4-0.7c-1.3,0.4-2.2,1.2-2.7,2.1
		c-0.1,2.1-0.2,4.3-0.2,6.8c0,0.2,0,0.4,0,0.5c0,0,0,0.1,0,0.1c0,0.7,0.4,1.3,0.8,1.8c0.1,0.2,0.2,0.3,0.3,0.5
		c1.4,1.1,3.1,1.7,4.9,1.3c1.3-0.3,2.4-0.9,3.4-1.7L273.7,195.5z"/>
</g>
<g>
	<path class="st2" d="M275.7,254.1c-0.5-1.6-0.5-2.1-0.8-3.8c-1.3-6-1.9-11.9-2-17.9c-0.3-7.1-0.5-12.7-0.5-16.8l0-1.4
		c0-1,0.3-2.9,0.8-5.5c0,0,0,0,0-0.1c-0.1-0.1-0.2-0.2-0.3-0.3c-1.4-0.5-2.8-0.6-4.3-0.4c-1.3,0.1-2.6,0.3-3.7,1
		c-0.3,0.5-0.5,1-0.6,1.6l0,6.3c0,5.9,0.1,10,0.2,12.4c0.4,10,1.3,18.1,2.5,24.3c0.2,1.1,0.1,1.2,0.4,2.3c0.1,0.1,0.2,0.3,0.3,0.4
		c0.4,0.5,0.8,0.8,1.4,1.1c0.1,0,0.2,0.1,0.2,0.1c2.2,0.2,4.5-1,6.3-2.6C275.6,254.4,275.6,254.3,275.7,254.1z"/>
</g>
<g>
	<path class="st2" d="M303,264.7c-1.2,0-3.1,0.9-6,2.8c-2.6,1.9-4.8,2.8-6.6,2.8c-4.3,0-6.5-0.5-9-4.4c-0.5-0.7-0.9-1.5-1.3-2.2
		c-0.2-0.2-0.4-0.4-0.5-0.6c-0.5-0.5-1.1-1-1.8-1.4c-0.2-0.1-0.4-0.1-0.6-0.1c-2.1,0.5-4.1,1.5-5.2,3.3c-0.1,0.2-0.2,0.4-0.3,0.5
		c0,0.5-0.1,0.9,0,1.4c0,0.2,0,0.3,0.1,0.5c1.1,2.6,1,3.2,2.3,5c1.8,2.3,3.9,4.1,6.4,5.5c2.5,1.4,5.1,2,8.1,2c1.3,0,2.9-0.1,5-0.3
		c3.8-0.5,7-1.7,9.7-3.6c2.9-2.1,4.4-5.1,4.4-8.9C306,265.4,304.5,264.7,303,264.7z"/>
</g>
<g>
	<path class="st2" d="M331.5,271.7c-4.1-5.8-7-12.8-8.6-21.2c-1.9-8.9-3.1-18.4-3.6-28.5c-0.5-9.2-0.8-19.2-0.8-30v-13
		c0.1-3.7,0.2-7.5,0.2-11.6c-0.8-0.8-1.3-1.9-1.3-3.1c0-1.3,0.5-2.4,1.4-3.4c0.9-1,2-1.5,3.1-1.5c3.8,0,5.6,3.7,5.6,11.1
		c0,4.8,0.3,13.9,0.8,27.3c0.5,13.4,0.8,22.5,0.8,27.3c0.5,1.4,1,4.1,1.5,8.2c0.5,4.1,0.7,7.4,0.7,10c0,2.3,0.4,5.2,1.1,8.5
		c0.7,3.4,1.8,6.8,3.1,10.3c1.4,3.7,3.1,6.7,5.3,9c2.2,2.4,4.5,3.5,6.9,3.5c1.5,0,2.7-0.5,3.7-1.4c1-0.9,1.6-2.3,2-4.1
		c0.6-2.9,0.9-5.8,0.9-8.6V230c0-3.9-0.4-8.8-1.1-14.7c-0.6-6.6-0.9-11.6-0.9-14.9v-1.1c0-1.7-0.1-3.2-0.2-4.5l-0.2-4.5
		c0-2.9-0.2-7.4-0.5-13.3c-0.4-5.3-0.6-9.8-0.6-13.5c0-1.1,0.6-2.1,1.8-3c1.2-0.8,2.5-1.3,4-1.3l3.9,3.6v2.7c0,1.3-0.2,2.8-0.6,4.5
		c-0.4,2.9-0.6,4.6-0.6,5c0,9.5,0.5,22.6,1.6,39.4c0.9,17.6,1.4,31.2,1.4,40.9c0,5.2-0.5,9.8-1.6,13.8c-0.6,2.4-1.5,4.3-2.6,5.8
		c-1.1,1.5-2.6,2.7-4.5,3.8c-1.8,1-4.1,1.6-6.9,1.6C340.4,280.2,335.3,277.4,331.5,271.7z"/>
</g>
<g>
	<path class="st2" d="M408.4,247.4c-7.3-25.2-13.6-48.4-19-69.5v51.5c0,4.4,0.4,11.9,1.3,22.4c0.7,11.5,1.1,18.9,1.1,22.3
		c0,0.9-0.6,1.8-1.7,2.4c-1.2,0.7-2.5,1-3.9,1c-2.2,0-3.3-0.8-3.3-2.5l0.3-4.5c0.2-3.3,0.3-5.5,0.3-6.6c0-5.5-0.3-14.3-0.9-26.4
		c-0.6-12.2-0.9-19.7-0.9-22.3v-20.1c0-3.2,0.2-8.1,0.5-14.4c0.4-5.5,0.6-10.4,0.6-14.4v-0.9c0-5.2,1.1-7.8,3.5-7.8
		c1.4,0,3.1,2.3,5.2,6.9c3.5,7.5,7.8,21,13.2,40.5c3,11.3,6.6,25.8,10.7,43.6c-0.1-0.4,0.7,3.2,2.5,10.8l0.2,0.8
		c0-10.1,0.1-19.2,0.3-27.3l0.3-27.3v-46.4c0.4-2.6,2.1-3.9,5-3.9c2.8,0,4.2,2,4.2,6.1v0.9c-0.6,1.3-0.9,2.8-0.9,4.5
		c0,6.4-0.2,16-0.5,28.9c-0.3,13-0.5,22.7-0.5,29.2v47.8c0,1.7-0.4,3.3-1.3,4.8c-0.9,1.5-2,2.3-3.2,2.3
		C419.2,279.7,414.9,269,408.4,247.4z"/>
</g>
<g>
	<path class="st2" d="M455.2,276.2c-0.9-1.5-1.3-3.4-1.3-5.6c0-3.5,0.2-7.7,0.6-12.7l0.3-4.1l0.3-8.3c0-3.7-0.4-11.8-1.1-24.5
		c-0.7-12.7-1.1-20.8-1.1-24.5c0-0.3,0-0.9,0.1-1.8c0.1-0.9,0.1-2.3,0.1-4.2c0.1-2.1,0.2-4.7,0.2-7.7c0-7.6-0.5-12.5-1.6-14.6
		c-0.6,0-2,0.2-4.1,0.5l-4.4,0.3c-1.4,0-2.6-0.4-3.6-1.2c-1-0.8-1.6-1.8-1.6-3.1c0-1.3,1.3-2.4,3.8-3.3c3.7-1.3,9.9-2.1,18.7-2.7
		c3.6-0.2,5.7-0.3,6.4-0.3c1.3,0,2.4,0.4,3.5,1.3c1,0.8,1.6,1.9,1.6,3.1c0,1.3-0.4,2.3-1.3,3.1c-0.9,0.8-2,1.2-3.4,1.2l-2.8-0.2
		c-0.8-0.1-1.8-0.2-2.8-0.2H460c0.7,7.1,1.1,13.5,1.1,19.3l-0.2,10c-0.1,3-0.2,6.4-0.2,10.2c0,5,0.2,11,0.6,18
		c0.5,8.7,0.8,14.7,0.8,18c0,4,0.2,8.7,0.6,14.1c0.4,5.5,0.6,10.3,0.6,14.1c0,5.1-1.5,7.7-4.5,7.7
		C457.3,278.5,456.1,277.7,455.2,276.2z"/>
</g>
<g>
	<path class="st2" d="M512.5,276.4c-0.8-0.6-1.2-1.7-1.2-3.1v-20.5c-1.4-0.9-3.9-1.8-7.7-2.5c-3.8-0.7-7.3-1.2-10.7-1.4
		c-1.2,2.2-2,4.9-2.5,8l-0.6,3.1c-0.1,0.7-0.4,2.4-0.9,4.9c-0.5,2.5-1.1,4.7-1.7,6.5c-0.6,1.8-1.3,3.3-1.9,4.3c-4,0-6.3-1-6.9-3.1
		c1.1-1.7,2.5-6.6,3.9-14.7l5.2-28.7c2.3-13.6,4.4-25.2,6.4-34.8c1.9-9.6,4-17.7,6.2-24.2c2.4-7.2,4.7-10.8,6.9-10.8s3.9,0.4,5,1.3
		c0,4.2,1,14.3,3,30.3c2.1,15.7,3.1,26.4,3.1,32.2c0,5.5,0.6,13.5,1.7,23.8c1,10.6,1.6,19,1.6,25.3c0,3.6-1.7,5.3-5.2,5.3
		C514.5,277.4,513.3,277.1,512.5,276.4z M511.1,243.2c-0.3-4.6-0.8-10.3-1.6-17.1c-2.4-23.6-3.6-38.1-3.6-43.5v-1.3
		c-1,1-2.5,5.8-4.3,14.2c-1.8,8.4-3.5,17.4-5.1,27.1c-1.6,9.6-2.4,16-2.5,19.1c4.4,1.3,9,1.9,14,1.9
		C508.8,243.6,509.9,243.5,511.1,243.2z"/>
</g>
<g>
	<path class="st2" d="M542.6,276.3c-1.5-0.9-2.3-2.2-2.3-3.9c2.3-2.3,3.5-8.4,3.5-18.4c0-6-0.5-14.6-1.4-26
		c-1-10.9-1.6-19.5-1.6-25.7l0.3-8.6c0.1-2.5,0.2-5.4,0.2-8.6c0-2.9-0.5-6.6-1.6-11.1c-1.3-4.7-1.9-8-1.9-9.9c0-3.7,4-5.5,12.1-5.5
		h2.4c5.6,0,10.6,1.7,14.7,5.2c3.3,2.9,6.2,7.2,8.5,12.7c1.6,3.8,2.9,9,4.1,15.7c0.6,5.9,0.9,10.5,0.9,13.8v5v7.4
		c-0.2,0.4-0.3,0.8-0.3,1.3c0,0.8,0.1,1.5,0.2,1.9c0.1,0.4,0.2,0.9,0.2,1.6c0,3.3-0.5,7.3-1.5,12c-1,4.7-2.4,9.4-4.3,14.2
		c-4.7,11.5-10,19.7-15.8,24.5c-3.5,2.7-7.1,4.1-10.8,4.1C545.9,277.7,544.1,277.2,542.6,276.3z M561.5,258.2
		c2.9-4.5,5.2-9.6,6.7-15.1c2.8-10.2,4.2-20.6,4.2-31.1c0-5.6-0.5-11.8-1.6-18.5c-1.2-6.5-3.6-12.3-7.4-17.6c-1.8-2.5-4-4.5-6.7-5.9
		c-2.7-1.4-5.8-2.1-9.3-2.1v0.2c0,9.4,0.6,23.6,1.9,42.7c1.3,18.9,1.9,33.3,1.9,43v14.9C555.2,266.2,558.6,262.7,561.5,258.2z"/>
</g>
<g>
	<path class="st2" d="M635.6,163.1c-0.3-3.5-0.9-7-1.8-10.5c-0.1-0.4-0.3-0.5-0.6-0.4c-3.5,0.3-6.8,1-10.4,2.2
		c-4.8,1.8-9.2,4.5-12.6,8.7c-4.4,5.5-6.9,11.7-7.1,18.7c-0.1,2.5,0.3,5,1.2,7.3c0.6,1.6,1.6,3,3.1,4c0.3,0.2,0.4,0.4,0.3,0.7
		c-0.4,1.3-0.6,2.6-0.8,4c0.1,0.1,0.2,0.1,0.2,0.3c0.2,0,0.4,0,0.7,0.1c0.1-1.1,0.3-2.2,0.6-3.3c0.1-0.3,0.1-0.7,0.3-0.9
		c0.2-0.2,0.6,0.2,0.9,0.2c2,0.6,3.9,0.7,5.9,0.3c9.2-2,15.5-7.4,18.6-16.4C635.7,173.2,636,168.2,635.6,163.1z"/>
</g>
<g>
	<path class="st0" d="M607.6,193.5c0.1,0,0.1,0,0.1,0c0.7,0.2,0.7,0.2,0.9-0.5c2.8-9.6,7.1-18.4,13-26.5c0.1-0.1,0.1-0.2,0.2-0.3
		c0.2-0.2,0.1-0.4-0.1-0.6c-0.2-0.2-0.4-0.1-0.6,0.1c-0.4,0.5-0.8,1-1.1,1.6c-5.5,7.9-9.7,16.5-12.3,25.7
		C607.7,193.1,607.7,193.3,607.6,193.5z"/>
</g>
<g>
	<g>
		<path class="st2" d="M605.7,210.2c-0.9,17.2-1,34.5-0.1,51.7c0.1,2.2,0.2,4.4,1,6.4s2.2,3.6,3.8,3.7"/>
	</g>
	<g>
		<g>
			<path class="st2" d="M601.1,210.2c-0.5,9.2-0.7,18.4-0.7,27.6c0,4.6,0.1,9.3,0.2,13.9c0.1,4.9,0.2,9.8,0.8,14.6
				c0.7,6.1,4.1,11.2,9,11.6c2.4,0.2,4.7-2.9,4.6-6c-0.1-3.4-2-5.8-4.6-6c0,0,1,0.3,0.5,0.1c-0.1,0-0.3-0.2-0.4-0.1
				c0.1,0,0.8,0.6,0.5,0.2c-0.1-0.1-0.3-0.3-0.4-0.3c0.1,0,0.7,0.8,0.4,0.4c-0.1-0.1-0.2-0.3-0.3-0.4c-0.1-0.1-0.4-0.6,0,0
				c0.5,0.8,0-0.2-0.1-0.3c-0.4-0.8,0.2,1,0-0.1c-0.1-0.4-0.2-0.8-0.3-1.3c0-0.2-0.1-0.4-0.1-0.6c-0.1-0.7,0.1,0.5,0,0.5
				c0.1-0.3-0.1-1.2-0.1-1.5c-0.2-4.2-0.4-8.4-0.5-12.6c-0.2-8.4-0.2-16.9,0-25.4c0.1-4.8,0.3-9.6,0.6-14.4c0.2-3.1-2.2-6.1-4.6-6
				C603.1,204.3,601.3,206.8,601.1,210.2L601.1,210.2z"/>
		</g>
	</g>
</g>
<g>
	<path class="st2" d="M268.5,184.1c1.1,0.3,2.2,0.2,3.1-0.3c1.2-0.6,2.2-1.6,3.1-2.7c0-0.4,0.1-0.9,0.1-1.4c0.2-1.8,0.5-2,1-3.2
		c1-3.1,2.5-5.4,4.4-6.7c2.6-1.7,5.9-2.5,9.7-2.5v0.3h2c0.3,0.6,1.1,1.1,2.3,1.4c1.2,0.3,2.3,0.5,3.4,0.5c1.3,0,2.3-0.3,3.1-0.9
		c0.8-0.6,1.3-1.5,1.3-2.5c0-2.2-1.2-4-3.5-5.5c-2.3-1.5-4.8-2.2-7.5-2.2c-7.2,0-13.2,1.9-17.9,5.8c-4.7,3.9-7.1,8.9-7.1,15.2
		c0,1.6,0.1,2,0.4,3.6C267.1,183.5,267.8,183.9,268.5,184.1z"/>
</g>
<g>
	<path class="st2" d="M274.5,198c0.2-1.3,0.1-2.7,0.1-4l-0.2-2.8c-0.5-0.6-1.1-1.1-1.7-1.4c-1.6-1-3.6-1.2-5.4-0.7
		c-0.6,0.2-1,0.4-1.5,0.7c-0.2,2.6-0.3,5.6-0.3,9.1c0,0.7,0,1.4,0,2.1c0,0,0,0,0,0c1.4,1.1,3.1,1.7,4.9,1.3c1.3-0.3,2.6-1,3.6-1.9
		C274.2,199.6,274.4,198.8,274.5,198z"/>
</g>
<g>
	<path class="st2" d="M276.2,252.1c-0.1-0.3-0.1-0.7-0.2-1c-1.3-6-1.9-11.9-2-17.9c-0.3-7.1-0.5-12.7-0.5-16.8l0-1.4
		c0-0.8,0.2-2.1,0.5-3.9c0,0,0-0.1,0-0.1c-0.1-1-0.3-2.1-1.1-2.7c-1.4-0.5-2.8-0.6-4.3-0.4c-1.1,0.1-2.2,0.3-3.2,0.7
		c0,0.5,0,1,0,1.4l0,7.5c0,5.9,0.1,10,0.2,12.4c0.4,10,0.9,17.1,2.2,23.2c0.2,1.3,0.5,2.5,0.8,3.8c0.1,0.1,0.3,0.2,0.4,0.2
		c0.1,0,0.2,0.1,0.2,0.1c2.2,0.2,4.5-1,6.3-2.6c0.2-0.4,0.4-0.8,0.5-1.2C275.9,252.6,276.2,252.9,276.2,252.1z"/>
</g>
<g>
	<path class="st2" d="M304.1,265.5c-1.2,0-3.1,0.9-6,2.8c-2.6,1.9-4.8,2.8-6.6,2.8c-4.3,0-6.5-0.5-9-4.4c-0.3-0.5-0.6-0.9-0.9-1.4
		c-0.7-0.7-1.4-1.5-2.1-2.2c-0.5-0.5-1.1-1-1.8-1.4c-0.2-0.1-0.4-0.1-0.6-0.2c-2.1,0.5-4.1,1.5-5.2,3.3c-0.1,0.1-0.2,0.3-0.3,0.5
		c0.1,0.3,0.2,0.7,0.4,1c1.3,3.4,1.5,4.7,3,6.9c1.8,2.3,3.9,4.1,6.4,5.5c2.5,1.4,5.1,2,8.1,2c1.3,0,2.9-0.1,5-0.3
		c3.8-0.5,7-1.7,9.7-3.6c2.9-2.1,4.4-5.1,4.4-8.9C307.1,266.3,305.6,265.5,304.1,265.5z"/>
</g>
<g>
	<path class="st2" d="M332.6,272.6c-4.1-5.8-7-12.8-8.6-21.2c-1.9-8.9-3.1-18.4-3.6-28.5c-0.5-9.2-0.8-19.2-0.8-30v-13
		c0.1-3.7,0.2-7.5,0.2-11.6c-0.8-0.8-1.3-1.9-1.3-3.1c0-1.3,0.5-2.4,1.4-3.4c0.9-1,2-1.5,3.1-1.5c3.8,0,5.6,3.7,5.6,11.1
		c0,4.8,0.3,13.9,0.8,27.3c0.5,13.4,0.8,22.5,0.8,27.3c0.5,1.4,1,4.1,1.5,8.2c0.5,4.1,0.7,7.4,0.7,10c0,2.3,0.4,5.2,1.1,8.5
		c0.7,3.4,1.8,6.8,3.1,10.3c1.4,3.7,3.1,6.7,5.3,9c2.2,2.4,4.5,3.5,6.9,3.5c1.5,0,2.7-0.5,3.7-1.4c1-0.9,1.6-2.3,2-4.1
		c0.6-2.9,0.9-5.8,0.9-8.6v-30.6c0-3.9-0.4-8.8-1.1-14.7c-0.6-6.6-0.9-11.6-0.9-14.9v-1.1c0-1.7-0.1-3.2-0.2-4.5l-0.2-4.5
		c0-2.9-0.2-7.4-0.5-13.3c-0.4-5.3-0.6-9.8-0.6-13.5c0-1.1,0.6-2.1,1.8-3c1.2-0.8,2.5-1.3,4-1.3l3.9,3.6v2.7c0,1.3-0.2,2.8-0.6,4.5
		c-0.4,2.9-0.6,4.6-0.6,5c0,9.5,0.5,22.6,1.6,39.4c0.9,17.6,1.4,31.2,1.4,40.9c0,5.2-0.5,9.8-1.6,13.8c-0.6,2.4-1.5,4.3-2.6,5.8
		c-1.1,1.5-2.6,2.7-4.5,3.8c-1.8,1-4.1,1.6-6.9,1.6C341.5,281.1,336.4,278.2,332.6,272.6z"/>
</g>
<g>
	<path class="st2" d="M409.5,248.3c-7.3-25.2-13.6-48.4-19-69.5v51.5c0,4.4,0.4,11.9,1.3,22.4c0.7,11.5,1.1,18.9,1.1,22.3
		c0,0.9-0.6,1.8-1.7,2.4c-1.2,0.7-2.5,1-3.9,1c-2.2,0-3.3-0.8-3.3-2.5l0.3-4.5c0.2-3.3,0.3-5.5,0.3-6.6c0-5.5-0.3-14.3-0.9-26.4
		c-0.6-12.2-0.9-19.7-0.9-22.3V196c0-3.2,0.2-8.1,0.5-14.4c0.4-5.5,0.6-10.4,0.6-14.4v-0.9c0-5.2,1.1-7.8,3.5-7.8
		c1.4,0,3.1,2.3,5.2,6.9c3.5,7.5,7.8,21,13.2,40.5c3,11.3,6.6,25.8,10.7,43.6c-0.1-0.4,0.7,3.2,2.5,10.8l0.2,0.8
		c0-10.1,0.1-19.2,0.3-27.3l0.3-27.3V160c0.4-2.6,2.1-3.9,5-3.9c2.8,0,4.2,2,4.2,6.1v0.9c-0.6,1.3-0.9,2.8-0.9,4.5
		c0,6.4-0.2,16-0.5,28.9c-0.3,13-0.5,22.7-0.5,29.2v47.8c0,1.7-0.4,3.3-1.3,4.8c-0.9,1.5-2,2.3-3.2,2.3
		C420.3,280.6,416,269.8,409.5,248.3z"/>
</g>
<g>
	<path class="st2" d="M456.3,277.1c-0.9-1.5-1.3-3.4-1.3-5.6c0-3.5,0.2-7.7,0.6-12.7l0.3-4.1l0.3-8.3c0-3.7-0.4-11.8-1.1-24.5
		c-0.7-12.7-1.1-20.8-1.1-24.5c0-0.3,0-0.9,0.1-1.8c0.1-0.9,0.1-2.3,0.1-4.2c0.1-2.1,0.2-4.7,0.2-7.7c0-7.6-0.5-12.5-1.6-14.6
		c-0.6,0-2,0.2-4.1,0.5l-4.4,0.3c-1.4,0-2.6-0.4-3.6-1.2c-1-0.8-1.6-1.8-1.6-3.1c0-1.3,1.3-2.4,3.8-3.3c3.7-1.3,9.9-2.1,18.7-2.7
		c3.6-0.2,5.7-0.3,6.4-0.3c1.3,0,2.4,0.4,3.5,1.3c1,0.8,1.6,1.9,1.6,3.1c0,1.3-0.4,2.3-1.3,3.1c-0.9,0.8-2,1.2-3.4,1.2l-2.8-0.2
		c-0.8-0.1-1.8-0.2-2.8-0.2h-1.6c0.7,7.1,1.1,13.5,1.1,19.3l-0.2,10c-0.1,3-0.2,6.4-0.2,10.2c0,5,0.2,11,0.6,18
		c0.5,8.7,0.8,14.7,0.8,18c0,4,0.2,8.7,0.6,14.1c0.4,5.5,0.6,10.3,0.6,14.1c0,5.1-1.5,7.7-4.5,7.7
		C458.4,279.3,457.2,278.6,456.3,277.1z"/>
</g>
<g>
	<path class="st2" d="M513.6,277.3c-0.8-0.6-1.2-1.7-1.2-3.1v-20.5c-1.4-0.9-3.9-1.8-7.7-2.5c-3.8-0.7-7.3-1.2-10.7-1.4
		c-1.2,2.2-2,4.9-2.5,8l-0.6,3.1c-0.1,0.7-0.4,2.4-0.9,4.9c-0.5,2.5-1.1,4.7-1.7,6.5c-0.6,1.8-1.3,3.3-1.9,4.3c-4,0-6.3-1-6.9-3.1
		c1.1-1.7,2.5-6.6,3.9-14.7l5.2-28.7c2.3-13.6,4.4-25.2,6.4-34.8c1.9-9.6,4-17.7,6.2-24.2c2.4-7.2,4.7-10.8,6.9-10.8s3.9,0.4,5,1.3
		c0,4.2,1,14.3,3,30.3c2.1,15.7,3.1,26.4,3.1,32.2c0,5.5,0.6,13.5,1.7,23.8c1,10.6,1.6,19,1.6,25.3c0,3.6-1.7,5.3-5.2,5.3
		C515.6,278.2,514.4,277.9,513.6,277.3z M512.3,244c-0.3-4.6-0.8-10.3-1.6-17.1c-2.4-23.6-3.6-38.1-3.6-43.5v-1.3
		c-1,1-2.5,5.8-4.3,14.2c-1.8,8.4-3.5,17.4-5.1,27.1c-1.6,9.6-2.4,16-2.5,19.1c4.4,1.3,9,1.9,14,1.9C510,244.5,511,244.3,512.3,244z
		"/>
</g>
<g>
	<path class="st2" d="M543.7,277.1c-1.5-0.9-2.3-2.2-2.3-3.9c2.3-2.3,3.5-8.4,3.5-18.4c0-6-0.5-14.6-1.4-26
		c-1-10.9-1.6-19.5-1.6-25.7l0.3-8.6c0.1-2.5,0.2-5.4,0.2-8.6c0-2.9-0.5-6.6-1.6-11.1c-1.3-4.7-1.9-8-1.9-9.9c0-3.7,4-5.5,12.1-5.5
		h2.4c5.6,0,10.6,1.7,14.7,5.2c3.3,2.9,6.2,7.2,8.5,12.7c1.6,3.8,2.9,9,4.1,15.7c0.6,5.9,0.9,10.5,0.9,13.8v5v7.4
		c-0.2,0.4-0.3,0.8-0.3,1.3c0,0.8,0.1,1.5,0.2,1.9c0.1,0.4,0.2,0.9,0.2,1.6c0,3.3-0.5,7.3-1.5,12c-1,4.7-2.4,9.4-4.3,14.2
		c-4.7,11.5-10,19.7-15.8,24.5c-3.5,2.7-7.1,4.1-10.8,4.1C547,278.5,545.2,278.1,543.7,277.1z M562.6,259c2.9-4.5,5.2-9.6,6.7-15.1
		c2.8-10.2,4.2-20.6,4.2-31.1c0-5.6-0.5-11.8-1.6-18.5c-1.2-6.5-3.6-12.3-7.4-17.6c-1.8-2.5-4-4.5-6.7-5.9c-2.7-1.4-5.8-2.1-9.3-2.1
		v0.2c0,9.4,0.6,23.6,1.9,42.7c1.3,18.9,1.9,33.3,1.9,43v14.9C556.3,267,559.7,263.6,562.6,259z"/>
</g>
<g>
	<g>
		<g>
			<path class="st2" d="M299.7,338.4c-0.2-0.2-0.4-0.5-0.4-0.8c0-0.2,0-0.5,0.1-0.8c0.1-0.3,0.1-0.6,0.1-0.7c0-2.1-0.1-6.2-0.4-12.2
				c-0.2-5.1-0.4-9.2-0.4-12.2c0-0.2,0.1-0.4,0.2-0.5c0.2-0.1,0.4-0.2,0.6-0.2c0.3,0,0.5,0.1,0.7,0.3c0.2,0.2,0.3,0.4,0.3,0.7
				c0,1.4,0.1,3.6,0.2,6.4c0.1,3.2,0.2,5.3,0.2,6.4l0,0.4v0.4v0.2v0.2c0.1,2.1,0.1,5.2,0.1,9.3v0.9h2.7c0.5,0.4,0.7,0.7,0.7,1.1
				c0,0.3-0.1,0.5-0.3,0.7c-0.2,0.2-0.4,0.3-0.6,0.3c-0.1,0-0.2,0-0.4-0.1l-0.1,0c-0.1,0-0.4,0-0.7,0h-0.6c-0.2,0-0.4,0-0.6,0
				c-0.2,0.3-0.6,0.4-1,0.4C300.2,338.7,300,338.6,299.7,338.4z"/>
		</g>
		<g>
			<path class="st2" d="M314.7,338.4c-0.3-0.2-0.4-0.5-0.4-0.9c0-0.7-0.1-1.9-0.4-3.6l-0.1-0.7l-3.5-0.5c-0.1,0.5-0.3,1.7-0.6,3.3
				c-0.1,1.2-0.4,1.9-0.7,2.3c-0.2,0.2-0.4,0.3-0.7,0.3c-0.3,0-0.5-0.1-0.8-0.3c-0.2-0.2-0.4-0.4-0.4-0.7l0.1-0.2l0-0.1
				c1.6-6.1,2.8-12.1,3.6-18.1c0-0.1,0-0.3,0-0.5s0-0.6,0.1-1c0.1-0.9,0.1-1.6,0.2-2.1c0.1-0.5,0.2-0.9,0.4-1.2h1.2
				c0.3,0,0.6,0.1,0.9,0.2s0.4,0.4,0.4,0.7c0,1.8,0.2,4.5,0.7,8.1c0.5,3.7,0.7,6.2,0.7,7.7c0,0.1,0.1,0.5,0.2,1.1
				c0.1,0.5,0.2,0.9,0.2,1.1c0,0.2,0.1,0.9,0.4,2.1c0.2,1.1,0.3,1.9,0.3,2.2v0c0,0.5-0.2,0.9-0.6,1
				C315.4,338.7,315,338.6,314.7,338.4z M313.5,330.5c0-2.1-0.2-4.9-0.6-8.2l-0.4-3.7c-1,5.6-1.7,9.8-2.1,12.7
				c0.4,0.2,1.4,0.4,3.1,0.6C313.5,331.5,313.5,331,313.5,330.5z"/>
		</g>
		<g>
			<path class="st2" d="M330.1,338.1c-0.2-0.3-0.3-0.8-0.3-1.3c0-0.8,0-1.7,0.1-2.9l0.1-0.9l0.1-1.9c0-0.8-0.1-2.7-0.2-5.6
				c-0.2-2.9-0.2-4.7-0.2-5.6c0-0.1,0-0.2,0-0.4c0-0.2,0-0.5,0-0.9c0-0.5,0-1.1,0-1.7c0-1.7-0.1-2.8-0.4-3.3c-0.1,0-0.5,0-0.9,0.1
				l-1,0.1c-0.3,0-0.6-0.1-0.8-0.3c-0.2-0.2-0.4-0.4-0.4-0.7c0-0.3,0.3-0.5,0.9-0.7c0.8-0.3,2.2-0.5,4.2-0.6c0.8,0,1.3-0.1,1.5-0.1
				c0.3,0,0.5,0.1,0.8,0.3c0.2,0.2,0.4,0.4,0.4,0.7s-0.1,0.5-0.3,0.7c-0.2,0.2-0.5,0.3-0.8,0.3l-0.6,0c-0.2,0-0.4,0-0.6,0h-0.4
				c0.2,1.6,0.2,3.1,0.2,4.4l0,2.3c0,0.7,0,1.5,0,2.3c0,1.1,0,2.5,0.1,4.1c0.1,2,0.2,3.3,0.2,4.1c0,0.9,0,2,0.1,3.2
				c0.1,1.3,0.1,2.3,0.1,3.2c0,1.2-0.3,1.7-1,1.7C330.5,338.6,330.3,338.4,330.1,338.1z"/>
		</g>
		<g>
			<path class="st2" d="M343.5,337.2c-0.5-1.2-0.9-2.5-1.1-3.8l-0.2-1.2c-0.7-3.4-1.1-5.3-1.3-5.8h-0.4c0,0.7,0,1.3,0,1.9v2
				c0,3.2,0.2,5.7,0.7,7.5l-0.4,1h-1l-0.5-0.5l0-2.4c0-2.1-0.1-5.4-0.3-9.7c-0.2-4.6-0.3-7.9-0.3-9.7c0-1.1,0.4-1.7,1.2-1.7
				c1.3,0,2.3,0.3,3.2,1c0.8,0.7,1.2,1.6,1.2,2.8v2.5c0,0.4-0.1,0.8-0.2,1.2c-0.1,0.5-0.2,0.8-0.4,1.1l-0.7,1.3l-0.6,1.1l0.2,0.9
				l0.5,2.5c0.3,1.8,0.7,3.3,1,4.5s0.7,2.2,1.1,3.1l0.2,0.4c0.2,0.5,0.4,0.9,0.4,1.1c0,0.2-0.1,0.4-0.2,0.6
				c-0.1,0.2-0.3,0.3-0.6,0.3C344.4,339,343.9,338.4,343.5,337.2z M341.9,322.5c0.4-1.2,0.6-2.3,0.6-3.3c0-0.8-0.1-1.5-0.3-2.1
				c-0.1-0.4-0.3-0.7-0.6-0.9s-0.6-0.3-1-0.3l-0.1,0.2l-0.1,0.3l0.1,4.2c0,1.2,0.1,2.6,0.1,4C341,324.4,341.5,323.7,341.9,322.5z"/>
		</g>
		<g>
			<path class="st2" d="M356.1,338.4c-0.3-0.2-0.4-0.5-0.4-0.9c0-0.7-0.1-1.9-0.4-3.6l-0.1-0.7l-3.5-0.5c-0.1,0.5-0.3,1.7-0.6,3.3
				c-0.1,1.2-0.4,1.9-0.7,2.3c-0.2,0.2-0.4,0.3-0.7,0.3c-0.3,0-0.5-0.1-0.8-0.3c-0.2-0.2-0.4-0.4-0.4-0.7l0.1-0.2l0-0.1
				c1.6-6.1,2.8-12.1,3.6-18.1c0-0.1,0-0.3,0-0.5s0-0.6,0.1-1c0.1-0.9,0.1-1.6,0.2-2.1c0.1-0.5,0.2-0.9,0.4-1.2h1.2
				c0.3,0,0.6,0.1,0.9,0.2s0.4,0.4,0.4,0.7c0,1.8,0.2,4.5,0.7,8.1c0.5,3.7,0.7,6.2,0.7,7.7c0,0.1,0.1,0.5,0.2,1.1
				c0.1,0.5,0.2,0.9,0.2,1.1c0,0.2,0.1,0.9,0.4,2.1c0.2,1.1,0.3,1.9,0.3,2.2v0c0,0.5-0.2,0.9-0.6,1
				C356.7,338.7,356.3,338.6,356.1,338.4z M354.8,330.5c0-2.1-0.2-4.9-0.6-8.2l-0.4-3.7c-1,5.6-1.7,9.8-2.1,12.7
				c0.4,0.2,1.4,0.4,3.1,0.6C354.9,331.5,354.8,331,354.8,330.5z"/>
		</g>
		<g>
			<path class="st2" d="M362.2,333.9l0.1-5.6c0-1.7,0-3.5,0-5.6c0-0.8-0.1-1.9-0.2-3.5c-0.1-1.7-0.2-2.8-0.2-3.2
				c0-0.3,0.1-0.6,0.4-0.8c0.3-0.2,0.5-0.4,0.9-0.4c0.8,0,1.6,0.2,2.4,0.6c0.8,0.4,1.5,0.9,2,1.6c1.3,1.5,2.1,3,2.5,4.8
				c0.2,0.9,0.3,1.7,0.3,2.6c0,0.3,0,0.6,0,0.9l0,1v2c0,1.5,0,2.7-0.1,3.6c-0.1,1.2-0.4,2.2-0.8,3.2c-0.5,1-1.2,1.9-2.1,2.7
				c-0.4,0.4-1,0.7-1.6,1.1h-2.6C362.5,338.6,362.2,337,362.2,333.9z M366,336.4c0.4-0.2,0.7-0.6,1-1c0.2-0.4,0.5-0.9,0.7-1.4
				c0.2-0.6,0.4-1.1,0.4-1.7c0.2-1.1,0.3-2.2,0.4-3.3c0-0.3,0-0.7,0-1.2c0-7.2-1.4-10.9-4.2-11.2c-0.2,1.1-0.2,2.3-0.2,3.7
				c0,1.5,0.1,4.1,0.3,7.8c0.2,3.3,0.2,5.9,0.2,7.9v0.9C365.2,336.7,365.6,336.6,366,336.4z"/>
		</g>
		<g>
			<path class="st2" d="M374.1,337.2c0-0.6,0.4-0.9,1.1-0.9h0.4l0.4,0c0.2,0,0.3-0.1,0.4-0.2s0.1-0.3,0.1-0.6c0-0.4,0-1-0.1-1.9
				c-0.1-0.6-0.2-1.6-0.2-3.1c-0.2-3.6-0.3-6.4-0.3-8.2c0-0.7,0-1.3,0-1.8l0-1.8c0-0.8,0-1.4-0.1-2c-0.4,0.1-0.7,0.1-0.8,0.1
				c-0.6,0-0.9-0.3-0.9-0.9c0-0.3,0.2-0.5,0.5-0.7s0.8-0.4,1.4-0.5c1-0.2,1.8-0.3,2.5-0.3c0.3,0,0.5,0.1,0.7,0.3s0.3,0.4,0.3,0.7
				s-0.1,0.5-0.2,0.7s-0.4,0.3-0.6,0.3c-0.1,0-0.3,0-0.4,0h-0.3c-0.2,0-0.4,0.1-0.5,0.2c-0.1,0.1-0.2,0.3-0.2,0.6
				c0,2.3,0.1,5.8,0.4,10.4c0,0.9,0.1,2.1,0.3,3.8c0.1,1.1,0.2,2.2,0.2,3.4v1.4c0.1,0,0.4,0,0.7,0c1,0,1.5,0.4,1.5,1.2v0.2l-0.9,0.6
				c0,0-0.1,0-0.2,0c-0.1,0-0.4,0-0.7,0c-0.8,0-1.2,0.1-1.5,0.1C375.1,338.3,374.1,338,374.1,337.2z"/>
		</g>
		<g>
			<path class="st2" d="M384.4,338.2c-0.2-0.2-0.3-0.4-0.3-0.6c0-1.4,0.3-3.3,0.8-5.6c0.6-2.3,1.4-5.2,2.4-8.6
				c1.1-3.5,1.7-5.8,2-6.8c-0.3,0-0.7,0-1.4,0.1s-1.2,0.1-1.5,0.1c-0.2,0-0.5-0.1-0.6-0.3c-0.2-0.2-0.3-0.4-0.3-0.7
				c0-0.7,1.3-1,3.9-1c1.2,0,1.8,0.3,1.8,1c0,0.8-0.3,1.9-0.8,3.4c-0.5,1.3-0.8,2.3-0.9,3c-0.2,1.7-0.9,4.4-1.9,8.3l-1.6,6.2h0.6
				l0.7-0.1c0.2,0,0.5,0,0.7,0v0c1,0,1.4,0.3,1.4,0.9c0,0.3-0.1,0.5-0.4,0.6c-0.2,0.2-0.5,0.2-0.9,0.2c-0.4,0-0.7,0-1,0l-1.1-0.1
				c-0.1,0-0.3,0.1-0.6,0.2c-0.3,0.1-0.5,0.2-0.6,0.2C384.8,338.4,384.6,338.3,384.4,338.2z"/>
		</g>
		<g>
			<path class="st2" d="M394.7,337.2c0-0.6,0.4-0.9,1.1-0.9h0.4l0.4,0c0.2,0,0.3-0.1,0.4-0.2s0.1-0.3,0.1-0.6c0-0.4,0-1-0.1-1.9
				c-0.1-0.6-0.2-1.6-0.2-3.1c-0.2-3.6-0.3-6.4-0.3-8.2c0-0.7,0-1.3,0-1.8l0-1.8c0-0.8,0-1.4-0.1-2c-0.4,0.1-0.7,0.1-0.8,0.1
				c-0.6,0-0.9-0.3-0.9-0.9c0-0.3,0.2-0.5,0.5-0.7s0.8-0.4,1.4-0.5c1-0.2,1.8-0.3,2.5-0.3c0.3,0,0.5,0.1,0.7,0.3s0.3,0.4,0.3,0.7
				s-0.1,0.5-0.2,0.7s-0.4,0.3-0.6,0.3c-0.1,0-0.3,0-0.4,0h-0.3c-0.2,0-0.4,0.1-0.5,0.2c-0.1,0.1-0.2,0.3-0.2,0.6
				c0,2.3,0.1,5.8,0.4,10.4c0,0.9,0.1,2.1,0.3,3.8c0.1,1.1,0.2,2.2,0.2,3.4v1.4c0.1,0,0.4,0,0.7,0c1,0,1.5,0.4,1.5,1.2v0.2l-0.9,0.6
				c0,0-0.1,0-0.2,0c-0.1,0-0.4,0-0.7,0c-0.8,0-1.2,0.1-1.5,0.1C395.7,338.3,394.7,338,394.7,337.2z"/>
		</g>
		<g>
			<path class="st2" d="M407.6,338.4c-0.5-0.4-1-0.9-1.3-1.6c-0.7-1.5-1.1-3-1.3-4.7c-0.2-1.6-0.3-3.2-0.3-4.7c0-0.3,0-0.5,0-0.7
				v-0.6c0-0.1,0-0.2,0-0.2v-0.6l0-2.5c0-0.8,0.1-2,0.3-3.6c0.1-1.1,0.4-2.2,0.8-3.3c0.2-0.5,0.4-0.8,0.6-1.1
				c0.3-0.2,0.6-0.4,0.9-0.4c1,0,1.8,0.2,2.6,0.5c0.8,0.3,1.4,0.8,1.9,1.4c0.5,0.6,0.9,1.3,1.2,2.2c0.3,0.9,0.6,1.8,0.7,2.8
				c0.1,1,0.2,2.1,0.2,3.2v0.3c0,0.7,0,1.4,0,2l0,2c0,6.8-1.6,10.3-4.8,10.3C408.7,339,408.1,338.8,407.6,338.4z M410.3,337
				c0.4-0.3,0.6-0.8,0.8-1.4c0.5-1.2,0.7-2.5,0.8-3.9c0.1-1.2,0.2-2.3,0.2-3.1c0-1.1-0.1-2.5-0.2-4.2c-0.1-1.8-0.2-3.2-0.2-4.1v-0.6
				c0-0.9-0.4-1.7-0.9-2.4c-0.6-0.7-1.2-1-2-1c-0.8,0-1.3,0.5-1.6,1.4c-0.2,0.7-0.4,1.7-0.4,2.9c0,0.5,0,0.8,0,1.1v1l-0.1,1.6
				c0,0.5-0.1,1-0.1,1.6c0,1.3,0,2.6,0.1,3.8c0.1,1.8,0.3,3.5,0.7,5.2c0.4,1.8,0.9,2.6,1.7,2.6C409.6,337.5,410,337.4,410.3,337z"/>
		</g>
		<g>
			<path class="st2" d="M428.1,338.2c-0.1-0.2-0.2-0.4-0.3-0.8l-0.2-0.7v-0.1v-0.1c0-0.8-0.8-3.5-2.4-8c-1.6-4.6-2.9-7.9-3.8-10.1
				v17.9l0.1,0.2c0,0,0.1,0.1,0.1,0.2s0.1,0.2,0.1,0.4c0,0.3-0.1,0.6-0.3,0.8s-0.5,0.3-0.8,0.3c-0.8,0-1.1-0.7-1.1-2.2l0-6.1
				c0-1.8,0-3.9,0-6.1c0-0.8,0-1.9,0.1-3.3c0.1-1.5,0.1-2.6,0.1-3.3c0-1.1,0.4-2,1.3-2.6v0.2c0.1,0,0.2-0.1,0.3-0.1
				c0.5,0,1.2,1,2.1,2.9c0.7,1.5,1.3,3.1,1.8,4.8c0.5,1.7,1.2,4.1,2.1,7.2l0.4,1.3c0.5,1.9,1,3.3,1.2,4.1c0.5-5.1,0.7-11.1,0.7-18.1
				v-0.5c0-0.1,0-0.3,0-0.5c0-0.7,0.3-1.1,0.9-1.1c0.3,0,0.6,0.1,0.8,0.4c0.2,0.3,0.3,0.6,0.3,1v2.7c0,3.7-0.2,7.6-0.4,11.9
				c-0.2,4.3-0.5,6.7-0.9,7.2c-0.7,0.2-1.1,0.3-1.3,0.3C428.5,338.5,428.3,338.4,428.1,338.2z"/>
		</g>
		<g>
			<path class="st2" d="M438,338.5c-0.2-0.2-0.4-0.5-0.4-0.8v-0.9v-0.7c0-0.2,0-0.5,0-0.7c0-0.5,0-1.3-0.1-2.3l-0.1-2.3
				c0-1.2,0-2.9,0.1-5.2c0.1-2.1,0.1-3.8,0.1-5.2c0-0.3,0-0.8-0.1-1.5c-0.1-0.7-0.1-1.2-0.1-1.5c0-1.7,0.5-2.5,1.5-2.5
				c0.8,0,1.7,0.2,2.7,0.5c1,0.3,1.6,0.7,1.6,1.1c0,0.2-0.1,0.5-0.3,0.7c-0.2,0.2-0.4,0.4-0.7,0.5c-1-0.4-1.9-0.6-2.7-0.7
				c0,0.4,0,0.9,0,1.5c0,1,0,1.8,0,2.6c-0.1,1.1-0.1,2-0.1,2.6l0.1,0.6l0.6,0c0.2,0,0.4,0,0.7,0c1.1,0,1.7,0.3,1.7,1
				c0,0.3-0.1,0.5-0.3,0.7c-0.2,0.2-0.5,0.3-0.8,0.3c-0.4,0-0.8,0-1-0.1h-0.9c0,0.6,0.1,1.5,0.1,2.7c0,1.2,0,2.3,0,3.2
				c-0.1,1.5-0.1,2.5-0.1,3.2c0,1.3,0,2,0.1,2l1.2,0c0.4,0,0.9,0,1.5,0c0.9,0,1.4,0.3,1.4,0.9c0,0.3-0.1,0.6-0.4,0.8
				c-0.3,0.2-0.7,0.3-1.1,0.3h-3C438.5,338.8,438.2,338.7,438,338.5z"/>
		</g>
		<g>
			<path class="st2" d="M456.2,333.9l0.1-5.6c0-1.7,0-3.5,0-5.6c0-0.8-0.1-1.9-0.2-3.5c-0.1-1.7-0.2-2.8-0.2-3.2
				c0-0.3,0.1-0.6,0.4-0.8c0.3-0.2,0.5-0.4,0.9-0.4c0.8,0,1.6,0.2,2.4,0.6c0.8,0.4,1.5,0.9,2,1.6c1.3,1.5,2.1,3,2.5,4.8
				c0.2,0.9,0.3,1.7,0.3,2.6c0,0.3,0,0.6,0,0.9l0,1v2c0,1.5,0,2.7-0.1,3.6c-0.1,1.2-0.4,2.2-0.8,3.2c-0.5,1-1.2,1.9-2.1,2.7
				c-0.4,0.4-1,0.7-1.6,1.1h-2.6C456.5,338.6,456.2,337,456.2,333.9z M460,336.4c0.4-0.2,0.7-0.6,1-1c0.2-0.4,0.5-0.9,0.7-1.4
				c0.2-0.6,0.4-1.1,0.4-1.7c0.2-1.1,0.3-2.2,0.4-3.3c0-0.3,0-0.7,0-1.2c0-7.2-1.4-10.9-4.2-11.2c-0.2,1.1-0.2,2.3-0.2,3.7
				c0,1.5,0.1,4.1,0.3,7.8c0.2,3.3,0.2,5.9,0.2,7.9v0.9C459.2,336.7,459.6,336.6,460,336.4z"/>
		</g>
		<g>
			<path class="st2" d="M470.2,338.5c-0.2-0.2-0.4-0.5-0.4-0.8v-0.9v-0.7c0-0.2,0-0.5,0-0.7c0-0.5,0-1.3-0.1-2.3l-0.1-2.3
				c0-1.2,0-2.9,0.1-5.2c0.1-2.1,0.1-3.8,0.1-5.2c0-0.3,0-0.8-0.1-1.5c-0.1-0.7-0.1-1.2-0.1-1.5c0-1.7,0.5-2.5,1.5-2.5
				c0.8,0,1.7,0.2,2.7,0.5c1,0.3,1.6,0.7,1.6,1.1c0,0.2-0.1,0.5-0.3,0.7c-0.2,0.2-0.4,0.4-0.7,0.5c-1-0.4-1.9-0.6-2.7-0.7
				c0,0.4,0,0.9,0,1.5c0,1,0,1.8,0,2.6c-0.1,1.1-0.1,2-0.1,2.6l0.1,0.6l0.6,0c0.2,0,0.4,0,0.7,0c1.1,0,1.7,0.3,1.7,1
				c0,0.3-0.1,0.5-0.3,0.7c-0.2,0.2-0.5,0.3-0.8,0.3c-0.4,0-0.8,0-1-0.1h-0.9c0,0.6,0.1,1.5,0.1,2.7c0,1.2,0,2.3,0,3.2
				c-0.1,1.5-0.1,2.5-0.1,3.2c0,1.3,0,2,0.1,2l1.2,0c0.4,0,0.9,0,1.5,0c0.9,0,1.4,0.3,1.4,0.9c0,0.3-0.1,0.6-0.4,0.8
				c-0.3,0.2-0.7,0.3-1.1,0.3h-3C470.7,338.8,470.4,338.7,470.2,338.5z"/>
		</g>
		<g>
			<path class="st2" d="M482.9,338.5c-0.4,0.2-0.8,0.4-1.2,0.4c-0.3,0-0.5-0.1-0.7-0.4c-0.2-0.2-0.3-0.5-0.3-0.8c0-2,0.1-4.7,0.2-8
				c0.1-3.5,0.2-6.2,0.2-8v-0.2c-0.1-1.5-0.2-2.6-0.2-3.4c0-2.3,0.4-3.4,1.2-3.4c0.2,0,0.4,0.1,0.6,0.3c0.2,0.2,0.3,0.4,0.3,0.6
				c0,0.3,0,0.7-0.1,1.4c-0.1,0.6-0.1,1-0.1,1.4c0,1.6,0,3,0,4.3c0,1.3,0,2.7,0,4.3c-0.1,0.4-0.2,0.9-0.2,1.5v0.4l-0.1,2.8
				c0,0.8-0.1,1.8-0.1,2.9c0,1.6,0.4,2.5,1.2,2.5c0,0,0.1,0,0.2,0c0.1,0,0.3,0,0.4,0c0.2,0,0.5,0,0.8,0c1.3,0,1.9,0.4,1.9,1.1
				c0,0.2-0.1,0.4-0.3,0.6c-0.2,0.2-0.5,0.3-0.8,0.3C485.2,338.6,484.1,338.5,482.9,338.5z"/>
		</g>
		<g>
			<path class="st2" d="M504.6,331.5c-1.7-5.7-3.1-11-4.3-15.8v11.7c0,1,0.1,2.7,0.3,5.1c0.2,2.6,0.2,4.3,0.2,5.1
				c0,0.2-0.1,0.4-0.4,0.6c-0.3,0.2-0.6,0.2-0.9,0.2c-0.5,0-0.7-0.2-0.7-0.6l0.1-1c0-0.8,0.1-1.3,0.1-1.5c0-1.3-0.1-3.3-0.2-6
				c-0.1-2.8-0.2-4.5-0.2-5.1v-4.6c0-0.7,0-1.8,0.1-3.3c0.1-1.3,0.1-2.4,0.1-3.3v-0.2c0-1.2,0.3-1.8,0.8-1.8c0.3,0,0.7,0.5,1.2,1.6
				c0.8,1.7,1.8,4.8,3,9.2c0.7,2.6,1.5,5.9,2.4,9.9c0-0.1,0.2,0.7,0.6,2.5l0,0.2c0-2.3,0-4.4,0.1-6.2l0.1-6.2v-10.6
				c0.1-0.6,0.5-0.9,1.1-0.9c0.6,0,1,0.5,1,1.4v0.2c-0.1,0.3-0.2,0.6-0.2,1c0,1.5,0,3.6-0.1,6.6c-0.1,2.9-0.1,5.2-0.1,6.6v10.9
				c0,0.4-0.1,0.7-0.3,1.1c-0.2,0.3-0.4,0.5-0.7,0.5C507.1,338.9,506.1,336.4,504.6,331.5z"/>
		</g>
		<g>
			<path class="st2" d="M520.4,338.4c-0.3-0.2-0.4-0.5-0.4-0.9c0-0.7-0.1-1.9-0.4-3.6l-0.1-0.7l-3.5-0.5c-0.1,0.5-0.3,1.7-0.6,3.3
				c-0.1,1.2-0.4,1.9-0.7,2.3c-0.2,0.2-0.4,0.3-0.7,0.3c-0.3,0-0.5-0.1-0.8-0.3c-0.2-0.2-0.4-0.4-0.4-0.7l0.1-0.2l0-0.1
				c1.6-6.1,2.8-12.1,3.6-18.1c0-0.1,0-0.3,0-0.5s0-0.6,0.1-1c0.1-0.9,0.1-1.6,0.2-2.1c0.1-0.5,0.2-0.9,0.4-1.2h1.2
				c0.3,0,0.6,0.1,0.9,0.2s0.4,0.4,0.4,0.7c0,1.8,0.2,4.5,0.7,8.1c0.5,3.7,0.7,6.2,0.7,7.7c0,0.1,0.1,0.5,0.2,1.1
				c0.1,0.5,0.2,0.9,0.2,1.1c0,0.2,0.1,0.9,0.4,2.1c0.2,1.1,0.3,1.9,0.3,2.2v0c0,0.5-0.2,0.9-0.6,1
				C521,338.7,520.6,338.6,520.4,338.4z M519.1,330.5c0-2.1-0.2-4.9-0.6-8.2l-0.4-3.7c-1,5.6-1.7,9.8-2.1,12.7
				c0.4,0.2,1.4,0.4,3.1,0.6C519.1,331.5,519.1,331,519.1,330.5z"/>
		</g>
		<g>
			<path class="st2" d="M528.3,337.8l0-1.4c0-0.4,0-0.9,0-1.4l0-1.2c-0.1-0.3-0.2-2.9-0.5-7.8c-0.3-4.9-0.5-8.1-0.5-9.5
				c-1.4,0-2.3-0.2-2.6-0.4c-0.3-0.2-0.4-0.4-0.4-0.6c0-0.2,0.1-0.4,0.4-0.5c0.2-0.2,0.5-0.2,0.8-0.2c0.7,0,1.5,0,2.4,0.1
				c0.9,0.1,1.7,0.2,2.4,0.2h0.3h0.3c0.7,0,1.1,0.3,1.1,0.9c0,0.3-0.1,0.5-0.4,0.7c-0.2,0.2-0.5,0.3-0.8,0.3c-0.2,0-0.5,0-0.9-0.1
				l-0.7-0.1l0,0.2l0,0.2c0,2.1,0.2,5.5,0.6,10.1c0.4,4.3,0.6,7.7,0.6,10.1c0,0.3-0.1,0.5-0.4,0.7s-0.5,0.3-0.8,0.3L528.3,337.8z"/>
		</g>
		<g>
			<path class="st2" d="M538.8,338.5c-0.5-0.2-0.8-0.6-1.1-1.1c-0.6-1-0.9-2.1-1.1-3.4c-0.2-1.1-0.2-2.4-0.2-3.9
				c-0.1-2.6-0.1-5.7-0.1-9.4l0-2.7c0-0.1,0-0.4,0-0.7c0-0.9-0.1-1.4-0.1-1.6c0.2-0.5,0.5-0.7,0.7-0.7s0.5,0.2,0.8,0.6
				c0.2,0.4,0.3,0.9,0.3,1.4v9.7c0,1,0.1,2.2,0.2,3.8c0.2,2,0.2,3.2,0.2,3.8c0,1.8,0.7,2.6,2.2,2.6c1.7,0,2.6-6.4,2.6-19.2v-2v-0.3
				c0-0.1,0-0.2,0-0.3c0-0.3,0.1-0.5,0.2-0.6c0.1-0.1,0.4-0.2,0.8-0.2c0.3,0,0.6,0.1,0.7,0.3c0.2,0.2,0.3,0.4,0.3,0.6
				c0,0.1,0,0.4,0,0.8c0,0.4,0,1-0.1,1.8c-0.1,0.7-0.1,1.3-0.1,1.8c0,0.5,0,1-0.1,1.5l-0.1,1.5v0.3c0,0.1,0,0.2,0,0.3
				c0,10.6-1.5,15.8-4.6,15.8C539.7,338.9,539.2,338.8,538.8,338.5z"/>
		</g>
		<g>
			<path class="st2" d="M555.2,337.2c-0.5-1.2-0.9-2.5-1.1-3.8l-0.2-1.2c-0.7-3.4-1.1-5.3-1.3-5.8h-0.4c0,0.7,0,1.3,0,1.9v2
				c0,3.2,0.2,5.7,0.7,7.5l-0.4,1h-1l-0.5-0.5l0-2.4c0-2.1-0.1-5.4-0.3-9.7c-0.2-4.6-0.3-7.9-0.3-9.7c0-1.1,0.4-1.7,1.2-1.7
				c1.3,0,2.3,0.3,3.2,1c0.8,0.7,1.2,1.6,1.2,2.8v2.5c0,0.4-0.1,0.8-0.2,1.2c-0.1,0.5-0.2,0.8-0.4,1.1l-0.7,1.3l-0.6,1.1l0.2,0.9
				l0.5,2.5c0.3,1.8,0.7,3.3,1,4.5s0.7,2.2,1.1,3.1l0.2,0.4c0.2,0.5,0.4,0.9,0.4,1.1c0,0.2-0.1,0.4-0.2,0.6
				c-0.1,0.2-0.3,0.3-0.6,0.3C556.1,339,555.7,338.4,555.2,337.2z M553.6,322.5c0.4-1.2,0.6-2.3,0.6-3.3c0-0.8-0.1-1.5-0.3-2.1
				c-0.1-0.4-0.3-0.7-0.6-0.9s-0.6-0.3-1-0.3l-0.1,0.2l-0.1,0.3l0.1,4.2c0,1.2,0.1,2.6,0.1,4C552.8,324.4,553.2,323.7,553.6,322.5z"
				/>
		</g>
		<g>
			<path class="st2" d="M567.8,338.4c-0.3-0.2-0.4-0.5-0.4-0.9c0-0.7-0.1-1.9-0.4-3.6l-0.1-0.7l-3.5-0.5c-0.1,0.5-0.3,1.7-0.6,3.3
				c-0.1,1.2-0.4,1.9-0.7,2.3c-0.2,0.2-0.4,0.3-0.7,0.3c-0.3,0-0.5-0.1-0.8-0.3c-0.2-0.2-0.4-0.4-0.4-0.7l0.1-0.2l0-0.1
				c1.6-6.1,2.8-12.1,3.6-18.1c0-0.1,0-0.3,0-0.5s0-0.6,0.1-1c0.1-0.9,0.1-1.6,0.2-2.1c0.1-0.5,0.2-0.9,0.4-1.2h1.2
				c0.3,0,0.6,0.1,0.9,0.2s0.4,0.4,0.4,0.7c0,1.8,0.2,4.5,0.7,8.1c0.5,3.7,0.7,6.2,0.7,7.7c0,0.1,0.1,0.5,0.2,1.1
				c0.1,0.5,0.2,0.9,0.2,1.1c0,0.2,0.1,0.9,0.4,2.1c0.2,1.1,0.3,1.9,0.3,2.2v0c0,0.5-0.2,0.9-0.6,1
				C568.5,338.7,568.1,338.6,567.8,338.4z M566.6,330.5c0-2.1-0.2-4.9-0.6-8.2l-0.4-3.7c-1,5.6-1.7,9.8-2.1,12.7
				c0.4,0.2,1.4,0.4,3.1,0.6C566.6,331.5,566.6,331,566.6,330.5z"/>
		</g>
		<g>
			<path class="st2" d="M576.1,338.5c-0.4,0.2-0.8,0.4-1.2,0.4c-0.3,0-0.5-0.1-0.7-0.4c-0.2-0.2-0.3-0.5-0.3-0.8c0-2,0.1-4.7,0.2-8
				c0.1-3.5,0.2-6.2,0.2-8v-0.2c-0.1-1.5-0.2-2.6-0.2-3.4c0-2.3,0.4-3.4,1.2-3.4c0.2,0,0.4,0.1,0.6,0.3c0.2,0.2,0.3,0.4,0.3,0.6
				c0,0.3,0,0.7-0.1,1.4c-0.1,0.6-0.1,1-0.1,1.4c0,1.6,0,3,0,4.3c0,1.3,0,2.7,0,4.3c-0.1,0.4-0.2,0.9-0.2,1.5v0.4l-0.1,2.8
				c0,0.8-0.1,1.8-0.1,2.9c0,1.6,0.4,2.5,1.2,2.5c0,0,0.1,0,0.2,0c0.1,0,0.3,0,0.4,0c0.2,0,0.5,0,0.8,0c1.3,0,1.9,0.4,1.9,1.1
				c0,0.2-0.1,0.4-0.3,0.6c-0.2,0.2-0.5,0.3-0.8,0.3C578.4,338.6,577.3,338.5,576.1,338.5z"/>
		</g>
		<g>
			<path class="st2" d="M585.2,338.5c-0.2-0.2-0.4-0.5-0.4-0.8v-0.9v-0.7c0-0.2,0-0.5,0-0.7c0-0.5,0-1.3-0.1-2.3l-0.1-2.3
				c0-1.2,0-2.9,0.1-5.2c0.1-2.1,0.1-3.8,0.1-5.2c0-0.3,0-0.8-0.1-1.5c-0.1-0.7-0.1-1.2-0.1-1.5c0-1.7,0.5-2.5,1.5-2.5
				c0.8,0,1.7,0.2,2.7,0.5c1,0.3,1.6,0.7,1.6,1.1c0,0.2-0.1,0.5-0.3,0.7c-0.2,0.2-0.4,0.4-0.7,0.5c-1-0.4-1.9-0.6-2.7-0.7
				c0,0.4,0,0.9,0,1.5c0,1,0,1.8,0,2.6c-0.1,1.1-0.1,2-0.1,2.6l0.1,0.6l0.6,0c0.2,0,0.4,0,0.7,0c1.1,0,1.7,0.3,1.7,1
				c0,0.3-0.1,0.5-0.3,0.7c-0.2,0.2-0.5,0.3-0.8,0.3c-0.4,0-0.8,0-1-0.1h-0.9c0,0.6,0.1,1.5,0.1,2.7c0,1.2,0,2.3,0,3.2
				c-0.1,1.5-0.1,2.5-0.1,3.2c0,1.3,0,2,0.1,2l1.2,0c0.4,0,0.9,0,1.5,0c0.9,0,1.4,0.3,1.4,0.9c0,0.3-0.1,0.6-0.4,0.8
				c-0.3,0.2-0.7,0.3-1.1,0.3h-3C585.7,338.8,585.4,338.7,585.2,338.5z"/>
		</g>
	</g>
	<g>
		<g>
			<path class="st2" d="M300.5,338.2c-0.2-0.2-0.4-0.5-0.4-0.8c0-0.2,0-0.5,0.1-0.8c0.1-0.3,0.1-0.6,0.1-0.7c0-2.1-0.1-6.2-0.4-12.2
				c-0.2-5.1-0.4-9.2-0.4-12.2c0-0.2,0.1-0.4,0.2-0.5c0.2-0.1,0.4-0.2,0.6-0.2c0.3,0,0.5,0.1,0.7,0.3c0.2,0.2,0.3,0.4,0.3,0.7
				c0,1.4,0.1,3.6,0.2,6.4c0.1,3.2,0.2,5.3,0.2,6.4l0,0.4v0.4v0.2v0.2c0.1,2.1,0.1,5.2,0.1,9.3v0.9h2.7c0.5,0.4,0.7,0.7,0.7,1.1
				c0,0.3-0.1,0.5-0.3,0.7c-0.2,0.2-0.4,0.3-0.6,0.3c-0.1,0-0.2,0-0.4-0.1l-0.1,0c-0.1,0-0.4,0-0.7,0h-0.6c-0.2,0-0.4,0-0.6,0
				c-0.2,0.3-0.6,0.4-1,0.4C301,338.6,300.7,338.5,300.5,338.2z"/>
		</g>
		<g>
			<path class="st2" d="M315.5,338.2c-0.3-0.2-0.4-0.5-0.4-0.9c0-0.7-0.1-1.9-0.4-3.6l-0.1-0.7l-3.5-0.5c-0.1,0.5-0.3,1.7-0.6,3.3
				c-0.1,1.2-0.4,1.9-0.7,2.3c-0.2,0.2-0.4,0.3-0.7,0.3c-0.3,0-0.5-0.1-0.8-0.3c-0.2-0.2-0.4-0.4-0.4-0.7l0.1-0.2l0-0.1
				c1.6-6.1,2.8-12.1,3.6-18.1c0-0.1,0-0.3,0-0.5s0-0.6,0.1-1c0.1-0.9,0.1-1.6,0.2-2.1c0.1-0.5,0.2-0.9,0.4-1.2h1.2
				c0.3,0,0.6,0.1,0.9,0.2s0.4,0.4,0.4,0.7c0,1.8,0.2,4.5,0.7,8.1c0.5,3.7,0.7,6.2,0.7,7.7c0,0.1,0.1,0.5,0.2,1.1
				c0.1,0.5,0.2,0.9,0.2,1.1c0,0.2,0.1,0.9,0.4,2.1c0.2,1.1,0.3,1.9,0.3,2.2v0c0,0.5-0.2,0.9-0.6,1
				C316.2,338.5,315.8,338.4,315.5,338.2z M314.3,330.3c0-2.1-0.2-4.9-0.6-8.2l-0.4-3.7c-1,5.6-1.7,9.8-2.1,12.7
				c0.4,0.2,1.4,0.4,3.1,0.6C314.3,331.3,314.3,330.9,314.3,330.3z"/>
		</g>
		<g>
			<path class="st2" d="M330.8,337.9c-0.2-0.3-0.3-0.8-0.3-1.3c0-0.8,0-1.7,0.1-2.9l0.1-0.9l0.1-1.9c0-0.8-0.1-2.7-0.2-5.6
				c-0.2-2.9-0.2-4.7-0.2-5.6c0-0.1,0-0.2,0-0.4c0-0.2,0-0.5,0-0.9c0-0.5,0-1.1,0-1.7c0-1.7-0.1-2.8-0.4-3.3c-0.1,0-0.5,0-0.9,0.1
				l-1,0.1c-0.3,0-0.6-0.1-0.8-0.3c-0.2-0.2-0.4-0.4-0.4-0.7c0-0.3,0.3-0.5,0.9-0.7c0.8-0.3,2.2-0.5,4.2-0.6c0.8,0,1.3-0.1,1.5-0.1
				c0.3,0,0.5,0.1,0.8,0.3c0.2,0.2,0.4,0.4,0.4,0.7s-0.1,0.5-0.3,0.7c-0.2,0.2-0.5,0.3-0.8,0.3l-0.6,0c-0.2,0-0.4,0-0.6,0h-0.4
				c0.2,1.6,0.2,3.1,0.2,4.4l0,2.3c0,0.7,0,1.5,0,2.3c0,1.1,0,2.5,0.1,4.1c0.1,2,0.2,3.3,0.2,4.1c0,0.9,0,2,0.1,3.2
				c0.1,1.3,0.1,2.3,0.1,3.2c0,1.2-0.3,1.7-1,1.7C331.3,338.4,331,338.3,330.8,337.9z"/>
		</g>
		<g>
			<path class="st2" d="M344.2,337.1c-0.5-1.2-0.9-2.5-1.1-3.8l-0.2-1.2c-0.7-3.4-1.1-5.3-1.3-5.8h-0.4c0,0.7,0,1.3,0,1.9v2
				c0,3.2,0.2,5.7,0.7,7.5l-0.4,1h-1l-0.5-0.5l0-2.4c0-2.1-0.1-5.4-0.3-9.7c-0.2-4.6-0.3-7.9-0.3-9.7c0-1.1,0.4-1.7,1.2-1.7
				c1.3,0,2.3,0.3,3.2,1c0.8,0.7,1.2,1.6,1.2,2.8v2.5c0,0.4-0.1,0.8-0.2,1.2c-0.1,0.5-0.2,0.8-0.4,1.1l-0.7,1.3l-0.6,1.1l0.2,0.9
				l0.5,2.5c0.3,1.8,0.7,3.3,1,4.5s0.7,2.2,1.1,3.1l0.2,0.4c0.2,0.5,0.4,0.9,0.4,1.1c0,0.2-0.1,0.4-0.2,0.6
				c-0.1,0.2-0.3,0.3-0.6,0.3C345.1,338.8,344.7,338.2,344.2,337.1z M342.6,322.3c0.4-1.2,0.6-2.3,0.6-3.3c0-0.8-0.1-1.5-0.3-2.1
				c-0.1-0.4-0.3-0.7-0.6-0.9s-0.6-0.3-1-0.3l-0.1,0.2l-0.1,0.3l0.1,4.2c0,1.2,0.1,2.6,0.1,4C341.8,324.2,342.2,323.5,342.6,322.3z"
				/>
		</g>
		<g>
			<path class="st2" d="M356.8,338.2c-0.3-0.2-0.4-0.5-0.4-0.9c0-0.7-0.1-1.9-0.4-3.6l-0.1-0.7l-3.5-0.5c-0.1,0.5-0.3,1.7-0.6,3.3
				c-0.1,1.2-0.4,1.9-0.7,2.3c-0.2,0.2-0.4,0.3-0.7,0.3c-0.3,0-0.5-0.1-0.8-0.3c-0.2-0.2-0.4-0.4-0.4-0.7l0.1-0.2l0-0.1
				c1.6-6.1,2.8-12.1,3.6-18.1c0-0.1,0-0.3,0-0.5s0-0.6,0.1-1c0.1-0.9,0.1-1.6,0.2-2.1c0.1-0.5,0.2-0.9,0.4-1.2h1.2
				c0.3,0,0.6,0.1,0.9,0.2s0.4,0.4,0.4,0.7c0,1.8,0.2,4.5,0.7,8.1c0.5,3.7,0.7,6.2,0.7,7.7c0,0.1,0.1,0.5,0.2,1.1
				c0.1,0.5,0.2,0.9,0.2,1.1c0,0.2,0.1,0.9,0.4,2.1c0.2,1.1,0.3,1.9,0.3,2.2v0c0,0.5-0.2,0.9-0.6,1
				C357.5,338.5,357.1,338.4,356.8,338.2z M355.6,330.3c0-2.1-0.2-4.9-0.6-8.2l-0.4-3.7c-1,5.6-1.7,9.8-2.1,12.7
				c0.4,0.2,1.4,0.4,3.1,0.6C355.6,331.3,355.6,330.9,355.6,330.3z"/>
		</g>
		<g>
			<path class="st2" d="M363,333.7l0.1-5.6c0-1.7,0-3.5,0-5.6c0-0.8-0.1-1.9-0.2-3.5c-0.1-1.7-0.2-2.8-0.2-3.2
				c0-0.3,0.1-0.6,0.4-0.8c0.3-0.2,0.5-0.4,0.9-0.4c0.8,0,1.6,0.2,2.4,0.6c0.8,0.4,1.5,0.9,2,1.6c1.3,1.5,2.1,3,2.5,4.8
				c0.2,0.9,0.3,1.7,0.3,2.6c0,0.3,0,0.6,0,0.9l0,1v2c0,1.5,0,2.7-0.1,3.6c-0.1,1.2-0.4,2.2-0.8,3.2c-0.5,1-1.2,1.9-2.1,2.7
				c-0.4,0.4-1,0.7-1.6,1.1h-2.6C363.3,338.4,363,336.8,363,333.7z M366.8,336.2c0.4-0.2,0.7-0.6,1-1c0.2-0.4,0.5-0.9,0.7-1.4
				c0.2-0.6,0.4-1.1,0.4-1.7c0.2-1.1,0.3-2.2,0.4-3.3c0-0.3,0-0.7,0-1.2c0-7.2-1.4-10.9-4.2-11.2c-0.2,1.1-0.2,2.3-0.2,3.7
				c0,1.5,0.1,4.1,0.3,7.8c0.2,3.3,0.2,5.9,0.2,7.9v0.9C365.9,336.6,366.4,336.4,366.8,336.2z"/>
		</g>
		<g>
			<path class="st2" d="M374.8,337.1c0-0.6,0.4-0.9,1.1-0.9h0.4l0.4,0c0.2,0,0.3-0.1,0.4-0.2s0.1-0.3,0.1-0.6c0-0.4,0-1-0.1-1.9
				c-0.1-0.6-0.2-1.6-0.2-3.1c-0.2-3.6-0.3-6.4-0.3-8.2c0-0.7,0-1.3,0-1.8l0-1.8c0-0.8,0-1.4-0.1-2c-0.4,0.1-0.7,0.1-0.8,0.1
				c-0.6,0-0.9-0.3-0.9-0.9c0-0.3,0.2-0.5,0.5-0.7s0.8-0.4,1.4-0.5c1-0.2,1.8-0.3,2.5-0.3c0.3,0,0.5,0.1,0.7,0.3s0.3,0.4,0.3,0.7
				s-0.1,0.5-0.2,0.7s-0.4,0.3-0.6,0.3c-0.1,0-0.3,0-0.4,0h-0.3c-0.2,0-0.4,0.1-0.5,0.2c-0.1,0.1-0.2,0.3-0.2,0.6
				c0,2.3,0.1,5.8,0.4,10.4c0,0.9,0.1,2.1,0.3,3.8c0.1,1.1,0.2,2.2,0.2,3.4v1.4c0.1,0,0.4,0,0.7,0c1,0,1.5,0.4,1.5,1.2v0.2l-0.9,0.6
				c0,0-0.1,0-0.2,0c-0.1,0-0.4,0-0.7,0c-0.8,0-1.2,0.1-1.5,0.1C375.9,338.1,374.8,337.8,374.8,337.1z"/>
		</g>
		<g>
			<path class="st2" d="M385.1,338c-0.2-0.2-0.3-0.4-0.3-0.6c0-1.4,0.3-3.3,0.8-5.6c0.6-2.3,1.4-5.2,2.4-8.6c1.1-3.5,1.7-5.8,2-6.8
				c-0.3,0-0.7,0-1.4,0.1s-1.2,0.1-1.5,0.1c-0.2,0-0.5-0.1-0.6-0.3c-0.2-0.2-0.3-0.4-0.3-0.7c0-0.7,1.3-1,3.9-1c1.2,0,1.8,0.3,1.8,1
				c0,0.8-0.3,1.9-0.8,3.4c-0.5,1.3-0.8,2.3-0.9,3c-0.2,1.7-0.9,4.4-1.9,8.3l-1.6,6.2h0.6l0.7-0.1c0.2,0,0.5,0,0.7,0v0
				c1,0,1.4,0.3,1.4,0.9c0,0.3-0.1,0.5-0.4,0.6c-0.2,0.2-0.5,0.2-0.9,0.2c-0.4,0-0.7,0-1,0l-1.1-0.1c-0.1,0-0.3,0.1-0.6,0.2
				c-0.3,0.1-0.5,0.2-0.6,0.2C385.6,338.2,385.3,338.2,385.1,338z"/>
		</g>
		<g>
			<path class="st2" d="M395.4,337.1c0-0.6,0.4-0.9,1.1-0.9h0.4l0.4,0c0.2,0,0.3-0.1,0.4-0.2s0.1-0.3,0.1-0.6c0-0.4,0-1-0.1-1.9
				c-0.1-0.6-0.2-1.6-0.2-3.1c-0.2-3.6-0.3-6.4-0.3-8.2c0-0.7,0-1.3,0-1.8l0-1.8c0-0.8,0-1.4-0.1-2c-0.4,0.1-0.7,0.1-0.8,0.1
				c-0.6,0-0.9-0.3-0.9-0.9c0-0.3,0.2-0.5,0.5-0.7s0.8-0.4,1.4-0.5c1-0.2,1.8-0.3,2.5-0.3c0.3,0,0.5,0.1,0.7,0.3s0.3,0.4,0.3,0.7
				s-0.1,0.5-0.2,0.7s-0.4,0.3-0.6,0.3c-0.1,0-0.3,0-0.4,0h-0.3c-0.2,0-0.4,0.1-0.5,0.2c-0.1,0.1-0.2,0.3-0.2,0.6
				c0,2.3,0.1,5.8,0.4,10.4c0,0.9,0.1,2.1,0.3,3.8c0.1,1.1,0.2,2.2,0.2,3.4v1.4c0.1,0,0.4,0,0.7,0c1,0,1.5,0.4,1.5,1.2v0.2L401,338
				c0,0-0.1,0-0.2,0c-0.1,0-0.4,0-0.7,0c-0.8,0-1.2,0.1-1.5,0.1C396.5,338.1,395.4,337.8,395.4,337.1z"/>
		</g>
		<g>
			<path class="st2" d="M408.3,338.3c-0.5-0.4-1-0.9-1.3-1.6c-0.7-1.5-1.1-3-1.3-4.7c-0.2-1.6-0.3-3.2-0.3-4.7c0-0.3,0-0.5,0-0.7
				v-0.6c0-0.1,0-0.2,0-0.2v-0.6l0-2.5c0-0.8,0.1-2,0.3-3.6c0.1-1.1,0.4-2.2,0.8-3.3c0.2-0.5,0.4-0.8,0.6-1.1
				c0.3-0.2,0.6-0.4,0.9-0.4c1,0,1.8,0.2,2.6,0.5c0.8,0.3,1.4,0.8,1.9,1.4c0.5,0.6,0.9,1.3,1.2,2.2c0.3,0.9,0.6,1.8,0.7,2.8
				c0.1,1,0.2,2.1,0.2,3.2v0.3c0,0.7,0,1.4,0,2l0,2c0,6.8-1.6,10.3-4.8,10.3C409.4,338.9,408.9,338.7,408.3,338.3z M411.1,336.8
				c0.4-0.3,0.6-0.8,0.8-1.4c0.5-1.2,0.7-2.5,0.8-3.9c0.1-1.2,0.2-2.3,0.2-3.1c0-1.1-0.1-2.5-0.2-4.2c-0.1-1.8-0.2-3.2-0.2-4.1v-0.6
				c0-0.9-0.4-1.7-0.9-2.4c-0.6-0.7-1.2-1-2-1c-0.8,0-1.3,0.5-1.6,1.4c-0.2,0.7-0.4,1.7-0.4,2.9c0,0.5,0,0.8,0,1.1v1l-0.1,1.6
				c0,0.5-0.1,1-0.1,1.6c0,1.3,0,2.6,0.1,3.8c0.1,1.8,0.3,3.5,0.7,5.2c0.4,1.8,0.9,2.6,1.7,2.6C410.3,337.4,410.7,337.2,411.1,336.8
				z"/>
		</g>
		<g>
			<path class="st2" d="M428.9,338.1c-0.1-0.2-0.2-0.4-0.3-0.8l-0.2-0.7v-0.1v-0.1c0-0.8-0.8-3.5-2.4-8c-1.6-4.6-2.9-7.9-3.8-10.1
				v17.9l0.1,0.2c0,0,0.1,0.1,0.1,0.2s0.1,0.2,0.1,0.4c0,0.3-0.1,0.6-0.3,0.8s-0.5,0.3-0.8,0.3c-0.8,0-1.1-0.7-1.1-2.2l0-6.1
				c0-1.8,0-3.9,0-6.1c0-0.8,0-1.9,0.1-3.3c0.1-1.5,0.1-2.6,0.1-3.3c0-1.1,0.4-2,1.3-2.6v0.2c0.1,0,0.2-0.1,0.3-0.1
				c0.5,0,1.2,1,2.1,2.9c0.7,1.5,1.3,3.1,1.8,4.8c0.5,1.7,1.2,4.1,2.1,7.2l0.4,1.3c0.5,1.9,1,3.3,1.2,4.1c0.5-5.1,0.7-11.1,0.7-18.1
				v-0.5c0-0.1,0-0.3,0-0.5c0-0.7,0.3-1.1,0.9-1.1c0.3,0,0.6,0.1,0.8,0.4c0.2,0.3,0.3,0.6,0.3,1v2.7c0,3.7-0.2,7.6-0.4,11.9
				c-0.2,4.3-0.5,6.7-0.9,7.2c-0.7,0.2-1.1,0.3-1.3,0.3C429.2,338.3,429,338.2,428.9,338.1z"/>
		</g>
		<g>
			<path class="st2" d="M438.7,338.3c-0.2-0.2-0.4-0.5-0.4-0.8v-0.9v-0.7c0-0.2,0-0.5,0-0.7c0-0.5,0-1.3-0.1-2.3l-0.1-2.3
				c0-1.2,0-2.9,0.1-5.2c0.1-2.1,0.1-3.8,0.1-5.2c0-0.3,0-0.8-0.1-1.5c-0.1-0.7-0.1-1.2-0.1-1.5c0-1.7,0.5-2.5,1.5-2.5
				c0.8,0,1.7,0.2,2.7,0.5c1,0.3,1.6,0.7,1.6,1.1c0,0.2-0.1,0.5-0.3,0.7c-0.2,0.2-0.4,0.4-0.7,0.5c-1-0.4-1.9-0.6-2.7-0.7
				c0,0.4,0,0.9,0,1.5c0,1,0,1.8,0,2.6c-0.1,1.1-0.1,2-0.1,2.6l0.1,0.6l0.6,0c0.2,0,0.4,0,0.7,0c1.1,0,1.7,0.3,1.7,1
				c0,0.3-0.1,0.5-0.3,0.7c-0.2,0.2-0.5,0.3-0.8,0.3c-0.4,0-0.8,0-1-0.1h-0.9c0,0.6,0.1,1.5,0.1,2.7c0,1.2,0,2.3,0,3.2
				c-0.1,1.5-0.1,2.5-0.1,3.2c0,1.3,0,2,0.1,2l1.2,0c0.4,0,0.9,0,1.5,0c0.9,0,1.4,0.3,1.4,0.9c0,0.3-0.1,0.6-0.4,0.8
				c-0.3,0.2-0.7,0.3-1.1,0.3h-3C439.3,338.6,439,338.5,438.7,338.3z"/>
		</g>
		<g>
			<path class="st2" d="M456.9,333.7l0.1-5.6c0-1.7,0-3.5,0-5.6c0-0.8-0.1-1.9-0.2-3.5c-0.1-1.7-0.2-2.8-0.2-3.2
				c0-0.3,0.1-0.6,0.4-0.8c0.3-0.2,0.5-0.4,0.9-0.4c0.8,0,1.6,0.2,2.4,0.6c0.8,0.4,1.5,0.9,2,1.6c1.3,1.5,2.1,3,2.5,4.8
				c0.2,0.9,0.3,1.7,0.3,2.6c0,0.3,0,0.6,0,0.9l0,1v2c0,1.5,0,2.7-0.1,3.6c-0.1,1.2-0.4,2.2-0.8,3.2c-0.5,1-1.2,1.9-2.1,2.7
				c-0.4,0.4-1,0.7-1.6,1.1h-2.6C457.3,338.4,456.9,336.8,456.9,333.7z M460.8,336.2c0.4-0.2,0.7-0.6,1-1c0.2-0.4,0.5-0.9,0.7-1.4
				c0.2-0.6,0.4-1.1,0.4-1.7c0.2-1.1,0.3-2.2,0.4-3.3c0-0.3,0-0.7,0-1.2c0-7.2-1.4-10.9-4.2-11.2c-0.2,1.1-0.2,2.3-0.2,3.7
				c0,1.5,0.1,4.1,0.3,7.8c0.2,3.3,0.2,5.9,0.2,7.9v0.9C459.9,336.6,460.4,336.4,460.8,336.2z"/>
		</g>
		<g>
			<path class="st2" d="M470.9,338.3c-0.2-0.2-0.4-0.5-0.4-0.8v-0.9v-0.7c0-0.2,0-0.5,0-0.7c0-0.5,0-1.3-0.1-2.3l-0.1-2.3
				c0-1.2,0-2.9,0.1-5.2c0.1-2.1,0.1-3.8,0.1-5.2c0-0.3,0-0.8-0.1-1.5c-0.1-0.7-0.1-1.2-0.1-1.5c0-1.7,0.5-2.5,1.5-2.5
				c0.8,0,1.7,0.2,2.7,0.5c1,0.3,1.6,0.7,1.6,1.1c0,0.2-0.1,0.5-0.3,0.7c-0.2,0.2-0.4,0.4-0.7,0.5c-1-0.4-1.9-0.6-2.7-0.7
				c0,0.4,0,0.9,0,1.5c0,1,0,1.8,0,2.6c-0.1,1.1-0.1,2-0.1,2.6l0.1,0.6l0.6,0c0.2,0,0.4,0,0.7,0c1.1,0,1.7,0.3,1.7,1
				c0,0.3-0.1,0.5-0.3,0.7c-0.2,0.2-0.5,0.3-0.8,0.3c-0.4,0-0.8,0-1-0.1h-0.9c0,0.6,0.1,1.5,0.1,2.7c0,1.2,0,2.3,0,3.2
				c-0.1,1.5-0.1,2.5-0.1,3.2c0,1.3,0,2,0.1,2l1.2,0c0.4,0,0.9,0,1.5,0c0.9,0,1.4,0.3,1.4,0.9c0,0.3-0.1,0.6-0.4,0.8
				c-0.3,0.2-0.7,0.3-1.1,0.3h-3C471.5,338.6,471.2,338.5,470.9,338.3z"/>
		</g>
		<g>
			<path class="st2" d="M483.7,338.3c-0.4,0.2-0.8,0.4-1.2,0.4c-0.3,0-0.5-0.1-0.7-0.4c-0.2-0.2-0.3-0.5-0.3-0.8c0-2,0.1-4.7,0.2-8
				c0.1-3.5,0.2-6.2,0.2-8v-0.2c-0.1-1.5-0.2-2.6-0.2-3.4c0-2.3,0.4-3.4,1.2-3.4c0.2,0,0.4,0.1,0.6,0.3c0.2,0.2,0.3,0.4,0.3,0.6
				c0,0.3,0,0.7-0.1,1.4c-0.1,0.6-0.1,1-0.1,1.4c0,1.6,0,3,0,4.3c0,1.3,0,2.7,0,4.3c-0.1,0.4-0.2,0.9-0.2,1.5v0.4l-0.1,2.8
				c0,0.8-0.1,1.8-0.1,2.9c0,1.6,0.4,2.5,1.2,2.5c0,0,0.1,0,0.2,0c0.1,0,0.3,0,0.4,0c0.2,0,0.5,0,0.8,0c1.3,0,1.9,0.4,1.9,1.1
				c0,0.2-0.1,0.4-0.3,0.6c-0.2,0.2-0.5,0.3-0.8,0.3C486,338.5,484.9,338.3,483.7,338.3z"/>
		</g>
		<g>
			<path class="st2" d="M505.4,331.4c-1.7-5.7-3.1-11-4.3-15.8v11.7c0,1,0.1,2.7,0.3,5.1c0.2,2.6,0.2,4.3,0.2,5.1
				c0,0.2-0.1,0.4-0.4,0.6c-0.3,0.2-0.6,0.2-0.9,0.2c-0.5,0-0.7-0.2-0.7-0.6l0.1-1c0-0.8,0.1-1.3,0.1-1.5c0-1.3-0.1-3.3-0.2-6
				c-0.1-2.8-0.2-4.5-0.2-5.1v-4.6c0-0.7,0-1.8,0.1-3.3c0.1-1.3,0.1-2.4,0.1-3.3v-0.2c0-1.2,0.3-1.8,0.8-1.8c0.3,0,0.7,0.5,1.2,1.6
				c0.8,1.7,1.8,4.8,3,9.2c0.7,2.6,1.5,5.9,2.4,9.9c0-0.1,0.2,0.7,0.6,2.5l0,0.2c0-2.3,0-4.4,0.1-6.2l0.1-6.2v-10.6
				c0.1-0.6,0.5-0.9,1.1-0.9c0.6,0,1,0.5,1,1.4v0.2c-0.1,0.3-0.2,0.6-0.2,1c0,1.5,0,3.6-0.1,6.6c-0.1,2.9-0.1,5.2-0.1,6.6v10.9
				c0,0.4-0.1,0.7-0.3,1.1c-0.2,0.3-0.4,0.5-0.7,0.5C507.8,338.7,506.9,336.3,505.4,331.4z"/>
		</g>
		<g>
			<path class="st2" d="M521.1,338.2c-0.3-0.2-0.4-0.5-0.4-0.9c0-0.7-0.1-1.9-0.4-3.6l-0.1-0.7l-3.5-0.5c-0.1,0.5-0.3,1.7-0.6,3.3
				c-0.1,1.2-0.4,1.9-0.7,2.3c-0.2,0.2-0.4,0.3-0.7,0.3c-0.3,0-0.5-0.1-0.8-0.3c-0.2-0.2-0.4-0.4-0.4-0.7l0.1-0.2l0-0.1
				c1.6-6.1,2.8-12.1,3.6-18.1c0-0.1,0-0.3,0-0.5s0-0.6,0.1-1c0.1-0.9,0.1-1.6,0.2-2.1c0.1-0.5,0.2-0.9,0.4-1.2h1.2
				c0.3,0,0.6,0.1,0.9,0.2s0.4,0.4,0.4,0.7c0,1.8,0.2,4.5,0.7,8.1c0.5,3.7,0.7,6.2,0.7,7.7c0,0.1,0.1,0.5,0.2,1.1
				c0.1,0.5,0.2,0.9,0.2,1.1c0,0.2,0.1,0.9,0.4,2.1c0.2,1.1,0.3,1.9,0.3,2.2v0c0,0.5-0.2,0.9-0.6,1
				C521.8,338.5,521.4,338.4,521.1,338.2z M519.9,330.3c0-2.1-0.2-4.9-0.6-8.2l-0.4-3.7c-1,5.6-1.7,9.8-2.1,12.7
				c0.4,0.2,1.4,0.4,3.1,0.6C519.9,331.3,519.9,330.9,519.9,330.3z"/>
		</g>
		<g>
			<path class="st2" d="M529,337.6l0-1.4c0-0.4,0-0.9,0-1.4l0-1.2c-0.1-0.3-0.2-2.9-0.5-7.8c-0.3-4.9-0.5-8.1-0.5-9.5
				c-1.4,0-2.3-0.2-2.6-0.4c-0.3-0.2-0.4-0.4-0.4-0.6c0-0.2,0.1-0.4,0.4-0.5c0.2-0.2,0.5-0.2,0.8-0.2c0.7,0,1.5,0,2.4,0.1
				c0.9,0.1,1.7,0.2,2.4,0.2h0.3h0.3c0.7,0,1.1,0.3,1.1,0.9c0,0.3-0.1,0.5-0.4,0.7c-0.2,0.2-0.5,0.3-0.8,0.3c-0.2,0-0.5,0-0.9-0.1
				l-0.7-0.1l0,0.2l0,0.2c0,2.1,0.2,5.5,0.6,10.1c0.4,4.3,0.6,7.7,0.6,10.1c0,0.3-0.1,0.5-0.4,0.7s-0.5,0.3-0.8,0.3L529,337.6z"/>
		</g>
		<g>
			<path class="st2" d="M539.5,338.3c-0.5-0.2-0.8-0.6-1.1-1.1c-0.6-1-0.9-2.1-1.1-3.4c-0.2-1.1-0.2-2.4-0.2-3.9
				c-0.1-2.6-0.1-5.7-0.1-9.4l0-2.7c0-0.1,0-0.4,0-0.7c0-0.9-0.1-1.4-0.1-1.6c0.2-0.5,0.5-0.7,0.7-0.7s0.5,0.2,0.8,0.6
				c0.2,0.4,0.3,0.9,0.3,1.4v9.7c0,1,0.1,2.2,0.2,3.8c0.2,2,0.2,3.2,0.2,3.8c0,1.8,0.7,2.6,2.2,2.6c1.7,0,2.6-6.4,2.6-19.2v-2v-0.3
				c0-0.1,0-0.2,0-0.3c0-0.3,0.1-0.5,0.2-0.6c0.1-0.1,0.4-0.2,0.8-0.2c0.3,0,0.6,0.1,0.7,0.3c0.2,0.2,0.3,0.4,0.3,0.6
				c0,0.1,0,0.4,0,0.8c0,0.4,0,1-0.1,1.8c-0.1,0.7-0.1,1.3-0.1,1.8c0,0.5,0,1-0.1,1.5l-0.1,1.5v0.3c0,0.1,0,0.2,0,0.3
				c0,10.6-1.5,15.8-4.6,15.8C540.5,338.7,540,338.6,539.5,338.3z"/>
		</g>
		<g>
			<path class="st2" d="M556,337.1c-0.5-1.2-0.9-2.5-1.1-3.8l-0.2-1.2c-0.7-3.4-1.1-5.3-1.3-5.8h-0.4c0,0.7,0,1.3,0,1.9v2
				c0,3.2,0.2,5.7,0.7,7.5l-0.4,1h-1l-0.5-0.5l0-2.4c0-2.1-0.1-5.4-0.3-9.7c-0.2-4.6-0.3-7.9-0.3-9.7c0-1.1,0.4-1.7,1.2-1.7
				c1.3,0,2.3,0.3,3.2,1c0.8,0.7,1.2,1.6,1.2,2.8v2.5c0,0.4-0.1,0.8-0.2,1.2c-0.1,0.5-0.2,0.8-0.4,1.1l-0.7,1.3l-0.6,1.1l0.2,0.9
				l0.5,2.5c0.3,1.8,0.7,3.3,1,4.5s0.7,2.2,1.1,3.1l0.2,0.4c0.2,0.5,0.4,0.9,0.4,1.1c0,0.2-0.1,0.4-0.2,0.6
				c-0.1,0.2-0.3,0.3-0.6,0.3C556.9,338.8,556.4,338.2,556,337.1z M554.4,322.3c0.4-1.2,0.6-2.3,0.6-3.3c0-0.8-0.1-1.5-0.3-2.1
				c-0.1-0.4-0.3-0.7-0.6-0.9s-0.6-0.3-1-0.3l-0.1,0.2l-0.1,0.3l0.1,4.2c0,1.2,0.1,2.6,0.1,4C553.6,324.2,554,323.5,554.4,322.3z"/>
		</g>
		<g>
			<path class="st2" d="M568.6,338.2c-0.3-0.2-0.4-0.5-0.4-0.9c0-0.7-0.1-1.9-0.4-3.6l-0.1-0.7l-3.5-0.5c-0.1,0.5-0.3,1.7-0.6,3.3
				c-0.1,1.2-0.4,1.9-0.7,2.3c-0.2,0.2-0.4,0.3-0.7,0.3c-0.3,0-0.5-0.1-0.8-0.3c-0.2-0.2-0.4-0.4-0.4-0.7l0.1-0.2l0-0.1
				c1.6-6.1,2.8-12.1,3.6-18.1c0-0.1,0-0.3,0-0.5s0-0.6,0.1-1c0.1-0.9,0.1-1.6,0.2-2.1c0.1-0.5,0.2-0.9,0.4-1.2h1.2
				c0.3,0,0.6,0.1,0.9,0.2s0.4,0.4,0.4,0.7c0,1.8,0.2,4.5,0.7,8.1c0.5,3.7,0.7,6.2,0.7,7.7c0,0.1,0.1,0.5,0.2,1.1
				c0.1,0.5,0.2,0.9,0.2,1.1c0,0.2,0.1,0.9,0.4,2.1c0.2,1.1,0.3,1.9,0.3,2.2v0c0,0.5-0.2,0.9-0.6,1
				C569.2,338.5,568.8,338.4,568.6,338.2z M567.3,330.3c0-2.1-0.2-4.9-0.6-8.2l-0.4-3.7c-1,5.6-1.7,9.8-2.1,12.7
				c0.4,0.2,1.4,0.4,3.1,0.6C567.4,331.3,567.3,330.9,567.3,330.3z"/>
		</g>
		<g>
			<path class="st2" d="M576.8,338.3c-0.4,0.2-0.8,0.4-1.2,0.4c-0.3,0-0.5-0.1-0.7-0.4c-0.2-0.2-0.3-0.5-0.3-0.8c0-2,0.1-4.7,0.2-8
				c0.1-3.5,0.2-6.2,0.2-8v-0.2c-0.1-1.5-0.2-2.6-0.2-3.4c0-2.3,0.4-3.4,1.2-3.4c0.2,0,0.4,0.1,0.6,0.3c0.2,0.2,0.3,0.4,0.3,0.6
				c0,0.3,0,0.7-0.1,1.4c-0.1,0.6-0.1,1-0.1,1.4c0,1.6,0,3,0,4.3c0,1.3,0,2.7,0,4.3c-0.1,0.4-0.2,0.9-0.2,1.5v0.4l-0.1,2.8
				c0,0.8-0.1,1.8-0.1,2.9c0,1.6,0.4,2.5,1.2,2.5c0,0,0.1,0,0.2,0c0.1,0,0.3,0,0.4,0c0.2,0,0.5,0,0.8,0c1.3,0,1.9,0.4,1.9,1.1
				c0,0.2-0.1,0.4-0.3,0.6c-0.2,0.2-0.5,0.3-0.8,0.3C579.1,338.5,578.1,338.3,576.8,338.3z"/>
		</g>
		<g>
			<path class="st2" d="M585.9,338.3c-0.2-0.2-0.4-0.5-0.4-0.8v-0.9v-0.7c0-0.2,0-0.5,0-0.7c0-0.5,0-1.3-0.1-2.3l-0.1-2.3
				c0-1.2,0-2.9,0.1-5.2c0.1-2.1,0.1-3.8,0.1-5.2c0-0.3,0-0.8-0.1-1.5c-0.1-0.7-0.1-1.2-0.1-1.5c0-1.7,0.5-2.5,1.5-2.5
				c0.8,0,1.7,0.2,2.7,0.5c1,0.3,1.6,0.7,1.6,1.1c0,0.2-0.1,0.5-0.3,0.7c-0.2,0.2-0.4,0.4-0.7,0.5c-1-0.4-1.9-0.6-2.7-0.7
				c0,0.4,0,0.9,0,1.5c0,1,0,1.8,0,2.6c-0.1,1.1-0.1,2-0.1,2.6l0.1,0.6l0.6,0c0.2,0,0.4,0,0.7,0c1.1,0,1.7,0.3,1.7,1
				c0,0.3-0.1,0.5-0.3,0.7c-0.2,0.2-0.5,0.3-0.8,0.3c-0.4,0-0.8,0-1-0.1h-0.9c0,0.6,0.1,1.5,0.1,2.7c0,1.2,0,2.3,0,3.2
				c-0.1,1.5-0.1,2.5-0.1,3.2c0,1.3,0,2,0.1,2l1.2,0c0.4,0,0.9,0,1.5,0c0.9,0,1.4,0.3,1.4,0.9c0,0.3-0.1,0.6-0.4,0.8
				c-0.3,0.2-0.7,0.3-1.1,0.3h-3C586.5,338.6,586.2,338.5,585.9,338.3z"/>
		</g>
	</g>
</g>
<path class="st3" d="M823.4,463.6H76.6c-25.5,0-46.2-20.7-46.2-46.2V82.6c0-25.5,20.7-46.2,46.2-46.2h746.8
	c25.5,0,46.2,20.7,46.2,46.2v334.7C869.6,442.9,848.9,463.6,823.4,463.6z"/>
</svg>
