<?xml version="1.0" encoding="utf-8"?>
<!-- Generator: Adobe Illustrator 24.3.0, SVG Export Plug-In . SVG Version: 6.00 Build 0)  -->
<svg version="1.1" id="Livello_1" xmlns="http://www.w3.org/2000/svg" xmlns:xlink="http://www.w3.org/1999/xlink" x="0px" y="0px"
	 viewBox="0 0 900 500" style="enable-background:new 0 0 900 500;" xml:space="preserve">
<style type="text/css">
	.st0{fill:#14152D;}
	.st1{fill:#AAD7DD;enable-background:new    ;}
	.st2{enable-background:new    ;}
	.st3{fill:#AAD7DD;}
</style>
<path class="st0" d="M869.5,500h-839C13.7,500,0,486.3,0,469.5v-439C0,13.7,13.7,0,30.5,0h839C886.3,0,900,13.7,900,30.5v439
	C900,486.3,886.3,500,869.5,500z"/>
<g>
	<g>
		<circle class="st1" cx="450" cy="213.6" r="140.9"/>
		<g>
			<path class="st0" d="M394.7,268.6l-0.6,2.5C394.3,270.1,394.6,269.4,394.7,268.6z"/>
		</g>
		<g>
			<path class="st0" d="M531.4,111.3c-1-0.5-2.1-0.8-3.2-0.8c-0.8,0-1.6,0.2-2.4,0.7c-0.6,0.4-1,0.9-1.4,1.6c0,0,0,0,0,0.1
				c0,0,0,0.1,0,0.1c0,0.1-0.1,0.2-0.1,0.3c-0.1,0.2-0.1,0.4-0.1,0.5c-0.1,0.3-0.1,0.6-0.1,1.1c0,0.8,0.1,1.5,0.3,2.3
				c0.1,0.4,0.2,0.7,0.4,1.1c4.1,3.2,8,6.6,11.7,10.3c11.2,11.2,20.1,24.3,26.2,38.9c6.4,15.1,9.6,31.1,9.6,47.6s-3.2,32.5-9.6,47.6
				c-6.2,14.6-15,27.6-26.2,38.9c-11.2,11.2-24.3,20.1-38.9,26.2c-15.1,6.4-31.1,9.6-47.6,9.6s-32.5-3.2-47.6-9.6
				c-14.6-6.2-27.6-15-38.9-26.2c-11.2-11.2-20.1-24.3-26.2-38.9c-6.4-15.1-9.6-31.1-9.6-47.6s3.2-32.5,9.6-47.6
				c6.2-14.6,15-27.6,26.2-38.9c11.2-11.2,24.3-20.1,38.9-26.2c15.1-6.4,31.1-9.6,47.6-9.6c7.3,0,14.5,0.6,21.7,1.9
				c3.3,0.6,6.8,1,9.9,2.3c3.2,1.3,6.3,2.7,9,4.8c7,5.2,9.3,13.8,7.8,22.2c-1.7,9.7-5.6,16.7-7.7,19.4c-4.2-2.9-7.8-5.4-13.1-5.3
				c-8.9,0.1-18.7,3.2-26.3,7.7c-4.3,2.6-8.9,5.1-12.8,8.5c-2.1,1.8-4,3.6-5.9,5.5c-1.3,1.3-4.4,3.2-4.3,5.3l-0.2,0.4
				c-8.4-3.1-18.2-1.9-25.1,3l-0.2-0.2l-11.2-27.6v15.9l-14.9-14.2l6.9,18.9l-11.8-5.1l18.3,22.6c-2.8,1.7-6.8,5.3-7.3,8.7
				c-0.6,3.8,1.2,5.5,2.3,8.7c-1,1-0.7,3.5-1,4.8c-3,0.2-4.5,1.4-4.5,4.4c0,2.3,0.8,5,2.5,6.6c1.2,1.1,2,0.7,3.3,1.2
				c1.2,0.5,1.5,1.2,2.2,2.4c1.3,2.2,2.6,4,4.5,5.9c1.5,1.5,3.6,3.4,3.2,5.5c0,2.6,0.5,4.8,0.2,7.3c-0.3,11.5-0.7,22.7-0.7,34.2
				c0,0.2,0,0.3,0,0.5l0.1-0.5c0,1.4-0.3,2.2-0.9,3.4c0.3-0.2,0.6-0.6,0.8-1c-0.1,0.2-0.3,0.4-0.4,0.6c0.2-0.1,0.4-0.2,0.5-0.2
				c-0.5,1-1.2,1.4-2.1,1.9c-2.1,1.1-3.8,2.5-5.9,3.4c-2.1,0.9-3.7,2.1-5.8,3.1c-2,1-4,2-5.9,3.2c-1.9,1.1-4.4,1.7-6.1,3
				c-1.5,1.2-2.5,3.7-2.6,5.5c-0.1,1.5,0.1,4.6,1.2,5.8c2,2.1,2.1-2.2,2.2-3.3c0-0.8-0.2-2.3,0.7-2.5c1-0.2,1.5,1.4,1.6,2
				c0.3,1.8,0,3.6,0.4,5.3c0.5,2.3,2.8,3.4,3.1,0.4c0.2-1.7-0.7-4.6,0.3-6.1c1.4-2.4,3.1,0.5,3.3,2c0.1,1.7,0,3.5,0.4,5.2
				c0.5,1.6,2.3,4.5,4.1,2.6c1.1-1.1,0.9-3.9,1.3-5.4c0.5-2,0.7-3.5,2.1-5.2c1.6-1.8,7.5-8.8,9.8-5.7c1.1,1.5,0.7,3.8,1.4,5.5
				c0.5,1.2,2.4,4.8,4,2.6l-0.1,0.1c1-2.3,0.4-4.9,0.3-7.3c-0.1-2.2-0.2-4.8,0.3-7c0.6-2.3,2.4-4.3,3.6-6.3c1.3-2.2,2.6-4.3,4-6.4
				c1.6-2.5,3.3-4.9,5.1-7.3c1.5-2,3.2-4.2,3.5-6.7c0.3-2.2,0.2-4.7,0-6.9c-0.2-2.5-1.1-4.3-1.8-6.7c-0.8-2.9-1.8-11.7,2.3-12.9
				L419,227c1.1-0.5,3-0.5,4.3-0.7c2.1-0.2,4.1-0.8,6.1-1.6c4.3-1.8,6.9-4.5,9.3-8.3c0,0,0,0,0,0c0,0,0,0,0.1,0c0.1,0,0.1,0,0.2,0.1
				c0,0,0.1,0.1,0.1,0.1c0.1,0.1,0.2,0.1,0.3,0.2c0.1,0.1,0.1,0.1,0.2,0.2c0.1,0,0.1,0.1,0.1,0.2l0,0c1.3,2.2,3.1,4.1,4.8,6.1
				c1.6,1.8,4,3.4,5.1,5.5l-0.3,0.3c-2.1,2.5-3.9,5.1-5.4,7.9c-1.5,2.7-3.4,5.3-5.2,7.9c-1.6,2.4-2.6,5.1-3.9,7.6
				c-2.2,4.2-7.7,8.6-7.8,13.6l-0.1,0.4c-0.9,0-1.7,0-2.5,0.2c-2.1,0.5-3.8,2.2-5.4,3.6c-1.5,1.3-3.1,2.1-4.9,2.9
				c-1.3,0.6-3.4,2.7-2.3,4.4c1.1,1.6,3.5-0.2,4.5-0.9c0.8-0.5,3.3-3.9,4.2-2.8c0.4,0.6-0.8,3.7-0.9,4.6c-0.1,1.6,0.3,3.3,0,4.8
				c-0.3,1.8-1.8,2.8-3.1,3.8c-0.9,0.7-3.3,3.8-0.5,3c1.8-0.5,3.1-2.9,4.8-3.7c4.4-2.1-1.8,6.5-1.6,7c1.1,2.8,6.9-7.9,7.5-3.4
				c0.2,1.7-1.6,2.8-1.4,4.5c0.3,2.2,2.8,0.9,4,0.1c3.5-2.4,4.2-6.3,5-10.2c0.5-2.4,0.6-8.7,2.9-10.2c1.5-3.4,4.9-6.2,7.6-8.8
				c1.6-1.5,3.1-2.8,4.4-4.6c0.7-1,2.3-4.8,3.8-4.2h-0.5c1.3,0.5,0.2,3.5,0,4.5c-0.4,2.2,1,2.7,2.7,1.3c1.3-1.1,2.1-2.8,3.2-4.2
				c0.8-0.9,2.3-4.2,3.5-4.6c2.4-0.8,0.4,6.8,0.4,8c0,0.8,0,1.7,0.7,2c0.7,0.2,1.8-0.7,2.2-1.1c1.1-1.2,2.1-3.3,2.8-4.8
				c0.8-1.7,1.2-3.3,1.2-5.1c0-1.7-0.6-3-0.8-4.6c1.2-0.2,3.2-2.3,4.2-3.1c1.6-1.2,2.9-2.7,4-4.4c1.8-2.8,2.4-6.4,2.3-9.7
				c-0.3-6.5-3.2-12.6-4.2-18.9c-0.2-1.7-0.3-3.2-0.6-4.9c-0.3-1.5-0.6-3.3-0.5-4.8l-0.3,0.1c0.3-0.8,1.6-1.8,2.2-2.4
				c0.8-0.8,1.8-1.7,2.7-2.5c0.9-0.8,1.8-1.6,2.8-2.4c0.8-0.7,1.7-2.1,2.6-2.6c2.4-1.4,2.5,1.6,2.6,3.2c0.1,1.9-0.1,3.7-0.1,5.6
				c0,3.8-0.2,7.5-0.1,11.2c0.2,3.7,0.3,7.5,0.1,11.1c-0.1,1.1-0.2,9.5,1.4,9.8l-0.2,0c0.6,0.1,3.5,5,4.1,5.8
				c2.9,4.3,6.3,8.4,9.4,12.5c1.6,2.1,3.4,4,5,6.1c1.6,2.1,3.6,3.9,5.1,6l-0.3,0.1c-0.9,0.6-1.8,1.9-2.5,2.7c-0.8,0.9-2,1.8-1.9,3.1
				c-2.1-1-6-0.3-8,0.7c-2.9,1.4-5.3,3.9-8,5.6c-0.9,0.6-2.6,1.3-3,2.3c-0.5,1.3,0.5,2.3,1.6,2.8c2.3,1,4.7-1.1,6.6-2.4
				c0.8-0.6,2.4-2.2,3.5-1.8c1,0.4,0.6,2.1,0.3,3c-0.8,2.4-3.9,4.2-5.7,5.9c-1.7,1.6-11.6,10.1-7.6,12.6c2.1,1.3,4.7-1.6,5.7-3.1
				c1-1.4,2.6-5.4,4.9-4.9c0.2,1.8-0.1,3.4-0.7,5.1c-0.6,1.8-0.4,4,2,2.4c1.3-0.9,2.2-3.3,2.8-4.7c0.3-0.7,0.5-2,1.5-1.8
				c0.9,0.1,0.7,1.3,0.7,2c0,1.1-0.5,3.9,0.8,3.9c1.6-0.1,2.1-3.2,2.3-4.3c0.2-1.2,0-3.9,1.5-4.4c1.8-0.7,2,2.3,2.1,3.4
				c0.1,0.9-0.5,3.8,0.2,4.4c1.5,1.4,3.1-1.7,3.6-2.5l-0.2,0.2c0.7-0.9,0.8-3.4,1.1-4.3c0.6-1.7,1.2-3.3,1.9-5
				c0.7-1.7,1.2-3.4,2.1-4.9c0.9-1.4,1.9-2.8,2.7-4.2c1.7-3.1,4.1-5.7,5.9-8.7c1.8-3.1,2.7-5.5,2.3-9.1c-0.3-3.1-3.3-5-4.4-7.9
				l0,0.2c-1.9-3.5-3.9-7-5.9-10.4c-1.8-3.1-3.7-6.2-5.6-9.2c-1.7-2.7-4.1-5.4-5-8.5c-0.9-3.3-0.2-7.1-0.1-10.5
				c0.2-3.4,0.3-6.8,0.5-10.2c0.8-9.3,1.6-18.7,1.6-28c0-4.2-0.1-8.6-1.7-12.5c-2-5.3-6.3-9.3-10.5-13.2l0-0.5
				c3.1-3.9,7.2-10.2,9.1-18.7c1.2-5.3,3-12.6-0.2-20.6c-2.8-6.9-7.9-11.1-10.5-13.2c-4.4-3.5-8.5-5.2-9.9-5.8
				c-2.8-1.1-5.2-1.6-10-2.7c-1.6-0.4-4.7-1-8.5-1.6c0,0-8.9-1.2-18-1.2c-72.8,0-131.7,59-131.7,131.7s59,131.7,131.7,131.7
				s131.7-59,131.7-131.7C581.7,172.9,562,135.5,531.4,111.3z"/>
		</g>
		<g class="st2">
			<path class="st3" d="M385.5,197.3c0.7-1.5,3.5-3,5.3-3.2c2-0.3,4.4-0.4,6.4,0.2c1.2,0.4,2.2,1.1,3.3,1.7l0.4-0.3
				c1.6-1.8,3.4-3.4,5.4-4.7c1.2-0.8,2.5-1.5,4-1.9c2.3-0.5,4.9,0.1,6.8,1.5c2,1.4,3.4,3.5,4.2,5.7c1.2,3.3,1,7.1-0.4,10.3
				c-1.4,3.2-4.1,5.9-7.3,7.3l-0.2,0c0.6,2.6,1.2,5.2,1.8,7.8c0.3,1.4,0.7,2.9,0.3,4.3c-0.4,1.6-1.6,2.8-3,3.7
				c-2.8,1.8-6.6,2-9.6,0.4c-2.9-1.6-4.8-5.1-4.3-8.4c-1.4-1.8-1.8-4.2-1.2-6.4c-3.7-0.9-7-3.1-9.2-6.2c-2.2-3.1-3.3-6.9-3-10.7
				L385.5,197.3z"/>
		</g>
		<g>
			<path class="st0" d="M398.9,222.1c3.1-0.6,6.3-0.6,9.4-0.2c0.5,0.1,0.9-0.1,1.1-0.6c0.1-0.4-0.1-1-0.6-1.1
				c-3.4-0.5-6.9-0.4-10.3,0.2c-0.5,0.1-0.7,0.6-0.6,1.1C398,221.9,398.5,222.1,398.9,222.1L398.9,222.1z"/>
		</g>
		<g>
			<path class="st0" d="M400.8,225.7c0.5,0.2,1.1,0.4,1.7,0.4c0.5,0,1.1,0,1.6-0.1c0.4-0.1,0.8-0.6,0.6-1.1
				c-0.1-0.5-0.6-0.7-1.1-0.6c-0.2,0-0.3,0.1-0.5,0.1c0.1,0,0.2,0,0.2,0c-0.3,0-0.7,0-1,0c0.1,0,0.2,0,0.2,0c-0.3,0-0.6-0.1-0.9-0.3
				c0.1,0,0.1,0.1,0.2,0.1c0,0-0.1,0-0.1-0.1c-0.2-0.1-0.4-0.2-0.7-0.1c-0.2,0.1-0.4,0.2-0.5,0.4c-0.1,0.2-0.2,0.4-0.1,0.7
				C400.5,225.4,400.6,225.6,400.8,225.7L400.8,225.7z"/>
		</g>
		<g>
			<path class="st0" d="M418,199.1c-0.2-1.8-1.1-3.3-2.6-4.2c-2.9-1.8-6.9-0.5-9.1,3c-1,1.6-1.5,3.5-1.3,5.3
				c0.2,1.8,1.1,3.3,2.5,4.2c0.9,0.5,1.8,0.8,2.8,0.8c2.3,0,4.8-1.4,6.3-3.8C417.8,202.8,418.2,200.9,418,199.1z M415.3,203.5
				c-1.6,2.6-4.6,3.7-6.7,2.4c-0.6-0.4-1.1-1-1.4-1.7c0.9-0.5,1.7-1.1,2.5-1.7c0,0,0,0.1,0,0.1c0,0,0,0,0,0.1c0,0,0,0,0,0
				c0,0.1,0.1,0.2,0.1,0.2c0,0,0,0,0,0c0.1,0.1,0.1,0.1,0.2,0.2c0,0,0,0,0,0c0.1,0.1,0.1,0.1,0.2,0.1c0,0,0,0,0,0c0,0,0,0,0,0
				c0.1,0,0.2,0.1,0.2,0.1c0,0,0,0,0,0c0,0,0,0,0,0c0.1,0,0.2,0,0.3,0c0,0,0,0,0.1,0c0.1,0,0.2,0,0.3,0c0,0,0,0,0,0c0,0,0,0,0,0
				c0.1,0,0.2-0.1,0.2-0.1c0,0,0,0,0,0c0,0,0,0,0,0c0.1,0,0.1-0.1,0.2-0.2c0,0,0,0,0,0c0,0,0,0,0,0c0-0.1,0.1-0.1,0.1-0.2
				c0,0,0,0,0,0c0-0.1,0.1-0.2,0.1-0.2c0,0,0,0,0,0c0,0,0,0,0,0c0-0.1,0-0.2,0-0.3c0,0,0,0,0,0v0c0-0.1,0-0.2,0-0.3c0,0,0,0,0,0
				c0,0,0,0,0,0c0-0.1-0.1-0.2-0.1-0.2c0,0,0,0,0,0c0-0.1-0.1-0.1-0.1-0.2c0,0,0,0,0,0c0,0,0,0,0,0c-0.1-0.1-0.1-0.1-0.2-0.2
				c0,0,0,0,0,0c0,0,0,0,0,0c-0.1,0-0.1-0.1-0.2-0.1c1.4-1.3,2.7-2.8,3.8-4.4c0,0,0,0,0,0c0.7,0.6,1.1,1.5,1.2,2.5
				C416.5,200.7,416.1,202.2,415.3,203.5z"/>
		</g>
		<path class="st1" d="M442.9,193.2c-0.1,1.7-1.7,2-3.1,5.1c-1.6,3.6-0.4,5.6-1.7,6.5c-2.1,1.5-8.9-1.3-10.6-6.8
			c-1.6-5.1,0.6-10.2,4.9-11.6C437.5,184.8,443.1,190,442.9,193.2z"/>
		<g>
			<path class="st0" d="M438.8,191.7c-1.1-2-3.7-2.5-5.7-1.6c-2.1,0.9-3.6,3-4,5.2c-0.4,2.3,0.6,5.1,3,5.8c1.1,0.3,2.3-0.1,3.1-0.9
				c0.8-0.9,1.1-2.2,0.8-3.4c-0.3-1.3-1.3-2.4-2.4-3c-0.6-0.3-1.2-0.5-1.8-0.5c0.5-0.6,1-1.2,1.7-1.5c1.2-0.7,3-0.6,3.8,0.8
				C437.9,193.6,439.4,192.7,438.8,191.7z M431.4,196.6C431.4,196.6,431.4,196.6,431.4,196.6c0.1,0,0.1,0,0.1,0c0.1,0,0.1,0,0.2,0
				c0.1,0,0.1,0,0.2,0.1c0,0,0.1,0,0.1,0c0,0,0,0,0,0c0,0,0,0,0.1,0c0.1,0.1,0.2,0.1,0.3,0.2c0,0,0,0,0,0c0,0,0,0,0.1,0.1
				c0,0,0,0,0.1,0c0.1,0.1,0.2,0.2,0.3,0.3c0,0,0,0,0,0l0,0c0,0,0.1,0.1,0.1,0.1c0,0,0.1,0.1,0.1,0.2c0,0,0,0,0,0c0,0,0,0,0,0
				c0,0.1,0,0.1,0,0.2c0,0,0,0.1,0,0.1c0,0,0,0.1,0,0.1c0,0,0,0.1,0,0.1l0,0c0,0,0,0,0,0c0,0,0,0,0,0c0,0,0,0,0,0c0,0,0,0,0,0
				c0,0,0,0,0,0c0,0,0,0,0,0c0,0,0,0,0,0c0,0,0,0,0,0c0,0,0,0,0,0c0,0,0,0,0,0h0c0,0,0,0-0.1,0c-0.1,0-0.1,0-0.2,0
				c-0.1,0-0.3,0-0.4-0.1c-0.1,0-0.2-0.1-0.2-0.1c0,0,0,0-0.1,0c0,0,0,0,0,0c0,0,0,0,0,0c0,0,0,0,0,0c0,0,0,0,0,0c0,0,0,0,0,0
				c0,0,0,0,0,0c0,0,0,0,0,0c0,0,0,0,0,0c0,0-0.1,0-0.1,0c-0.1,0-0.1-0.1-0.2-0.1c-0.1-0.1-0.3-0.1-0.4-0.2c-0.1,0-0.1-0.1-0.2-0.1
				c-0.1-0.2-0.1-0.5-0.1-0.7C431,196.7,431.2,196.7,431.4,196.6z M433,198.1C433,198.1,433,198.1,433,198.1
				C433,198,433,198,433,198.1L433,198.1C433,198,433,198,433,198.1z"/>
		</g>
		<g>
			<path class="st0" d="M400.4,214C400.4,214,400.4,214,400.4,214C400.4,214,400.4,214,400.4,214C400.4,214,400.4,214,400.4,214
				C400.4,214,400.4,214,400.4,214z"/>
			<path class="st0" d="M403.2,213.8C403.2,213.8,403.2,213.8,403.2,213.8L403.2,213.8L403.2,213.8z"/>
			<path class="st0" d="M405,213.7C405,213.7,405,213.7,405,213.7c-0.1,0.3-0.3,0.8-0.4,1c-0.1,0.1-0.3,0.2-0.5,0.3c0,0,0,0,0,0
				c-0.2,0-0.4,0.1-0.6,0.1c-0.1,0-0.3,0-0.4-0.1c-0.1,0-0.1,0-0.2,0c-0.1,0-0.2-0.1-0.3-0.1c-0.1-0.1-0.3-0.2-0.3-0.4
				c0-0.1,0-0.1,0-0.2c0-0.4-0.2-0.9-0.5-1.1c0,0,0,0,0,0c0,0,0,0,0,0c-0.3,0-0.5,0.2-0.7,0.4c0,0,0,0,0,0c0,0,0,0,0,0
				c0,0-0.1,0.1-0.1,0.1c-0.1,0.1-0.2,0.2-0.3,0.3c0,0-0.1,0.1-0.1,0.1c0,0,0,0,0,0c0,0,0,0,0,0c0,0,0,0,0,0
				c-0.1,0.2-0.3,0.4-0.4,0.6c-0.2,0.4-0.8,0.5-1.2,0.3c-0.4-0.2-0.5-0.8-0.3-1.2c0.5-1.2,1.7-2.3,3-2.5c1.4-0.3,2.5,0.6,3.3,1.7
				c0.1,0.1,0.1,0.1,0.2,0.2c0,0,0,0,0,0c0,0,0,0,0,0c0,0.1,0,0.1,0.1,0.2c0,0,0,0,0,0C405,213.5,405,213.6,405,213.7z"/>
			<path class="st0" d="M405,213.7c-0.1,0.4-0.3,0.9-0.6,1.1c-0.1,0.1-0.2,0.1-0.3,0.1c0.2,0,0.3-0.1,0.4-0.3
				C404.7,214.5,405,214,405,213.7z"/>
			<path class="st0" d="M405,213.4c0-0.1,0-0.1-0.1-0.2C405,213.3,405,213.3,405,213.4z"/>
		</g>
		<g>
			<path class="st0" d="M405,213.2C404.9,213.2,404.9,213.2,405,213.2c-0.1-0.1-0.1-0.2-0.2-0.3c0,0,0.1,0.1,0.1,0.2
				C404.9,213.1,404.9,213.2,405,213.2z"/>
			<path class="st0" d="M405,213.7c0-0.1,0-0.2,0-0.3c0,0.1,0,0.1,0,0.2C405,213.6,405,213.6,405,213.7z"/>
		</g>
		<g>
			<g>
				<path class="st0" d="M437.3,321.2c0.1-0.1,0.3-0.2,0.5-0.1c0.1,0.1,0.2,0.1,0.2,0.2c0.4,0.5,0.6,1,0.5,1.6
					c-0.1,1-1.1,1.9-2.2,1.9c-1,0-1.9-0.7-2.4-1.6c-0.8-1.4-1.9-2.3-3.5-2.4c-1.1-0.1-2.5,0.8-0.7,1c1.1,0.1,1.5,1.7,2,2.4
					c0.5,0.7,1.5,1.1,2.3,1.4c2,0.6,4.5,0.4,6.1-1c3.5-3.1-3.3-6.8-5.5-3.7c-0.3,0.4,1,0.6,1.2,0.6c0.3,0,0.7,0,1-0.1
					C437.1,321.4,437.2,321.3,437.3,321.2z"/>
			</g>
			<g>
				<path class="st0" d="M476.3,303.8c0,0-60.9-0.1-60.9-0.1c-0.6,0-1,0.5-1,1c0,0.6,0.5,1.1,1,1.1l8.7,0c0,0.7-0.1,2.5-0.1,3.2
					c-1.6-0.4-3.3-0.5-4.9,0.1c-2.8,1-3.1,3.3-0.8,4.9c-1.6,1.7-1.7,4.3,0.2,5.9c2.2,1.8,5.6,1.6,7.4,4c0.4,0.6,2.9,0.2,2.5-0.2
					c-1.4-1.9-3.7-2.3-5.7-3.1c-1.2-0.5-2.5-1.2-2.9-2.5c-0.4-1.3,0-2.7,0.9-3.6c0.2,0,0.3-0.1,0.4-0.2c0.6-0.4,1.5-0.8,2.3-0.7
					c0.9,0.2,1.7,1.1,1.2,2.1c-0.5,1.1-2,1.4-1.5,2.8c0.2,0.6,2.7,0.1,2.6,0c-0.5-1.6,1.7-1.9,1.7-3.4c-0.1-1.1-1.5-1.7-2.4-1.9
					c-1.6-0.4-3.4-0.4-4.9,0.2c-0.5-0.5-0.8-1.3-0.8-1.9c0.1-0.9,0.9-1.4,1.7-1.6c1.1-0.2,2,0.2,2.9,0.5c0.3,0.1,2.5,0.4,2.6-0.1
					c0.1-1,0.1-3.2,0.2-4.2l10.9,0l0,4c-1.9-0.4-3.9-0.5-5.7,0c-0.9,0.3-2.2,0.9-2.5,2c-0.4,1.5,1.4,2,2.4,2.3
					c0.6,0.1,1.2,0.2,1.8,0.1c0.1,0,1-0.2,0.5-0.3c-1.4-0.3-3-1.4-1.5-2.9c1.3-1.3,3-0.9,4.6-0.4c0.2,0,0.3,0.1,0.5,0.1l0,8.5l2.1,0
					l0-13.3l5.1,0v5.7c-0.6,0.1-1.1,0.3-1.5,0.7c-0.9,0.7-1,1.8-0.3,2.7c0.5,0.7,1.3,1,2.1,1.2c0.7,0.2,1.6,0.4,2.3-0.2
					c0.1-0.1,0.2-0.2,0.2-0.3c0.1-0.3-0.2-0.6-0.4-0.7c-0.3-0.1-0.6-0.1-0.9-0.2c-0.3-0.1-0.8-0.3-0.9-0.6c0-0.1,0-0.2,0-0.2
					c0.3-1.3,2-1,3-1c1.3,0,2.7,0,4,0.1l0,6c0,0.6,0.5,1,1.1,1c0.6,0,1-0.5,1-1.1l-0.1-13.1l3.7,0v14.2c0,0.6,0.5,1,1,1
					c0.6,0,1-0.5,1-1v-14.2l11.3,0v4.3c-1.4-0.1-2.8-0.2-4.2-0.2c-1-0.1-2.2-0.1-3.1,0.5c-2,1.5,0.2,3.6,1.5,4.5
					c0.7,0.5,3.1-0.1,1.9-1c-0.6-0.4-1.2-0.8-1.4-1.5c-0.3-0.9,0-1.2,0.8-1.2c1.5,0.1,2.9,0.2,4.4,0.3l0,9h2.1l0-14.7
					c0,0,2.9,0,2.9,0c0.6,0,1-0.5,1-1C477.4,304.3,476.9,303.8,476.3,303.8z M447,311.4C446.9,311.4,446.9,311.4,447,311.4l-0.1-5.5
					l5.3,0l0,5.6C450.5,311.4,448.7,311.3,447,311.4z"/>
			</g>
			<g>
				<path class="st0" d="M470.4,322.9c0.2-1.3,1.7,0.8,2.1,1.1c0.6,0.6,1.3,1,2.1,1.3c1.4,0.5,3,0.5,4.5,0.1
					c1.6-0.5-0.4-1.3-1.3-1.1c-2.7,0.8-3.8-2.8-6.3-3.3c-1.5-0.3-3.4,0.1-3.7,1.9C467.7,323.7,470.3,323.8,470.4,322.9L470.4,322.9z
					"/>
			</g>
		</g>
		<g>
			<path class="st0" d="M387.8,207.7c1.6,1.5,3.6,2,5.3,1.5c0.7-0.2,1.4-0.6,1.9-1.1c0.9-0.9,1.2-2.2,1-3.6
				c-0.2-1.3-0.9-2.6-1.9-3.6c-2.2-2.1-5.5-2.3-7.2-0.4c-0.9,0.9-1.2,2.2-1,3.6C386.1,205.4,386.8,206.7,387.8,207.7z M387.2,203.9
				c-0.1-0.8,0-1.5,0.4-2.1c0,0,0,0,0,0c1.1,1,2.3,1.8,3.6,2.4c0,0-0.1,0.1-0.1,0.1c0,0,0,0,0,0c0,0,0,0,0,0c0,0-0.1,0.1-0.1,0.1
				c0,0,0,0,0,0c0,0,0,0,0,0c0,0.1-0.1,0.1-0.1,0.2c0,0,0,0,0,0c0,0.1,0,0.1,0,0.2c0,0,0,0,0,0c0,0,0,0,0,0c0,0.1,0,0.1,0,0.2l0,0
				c0,0,0,0,0,0c0,0.1,0,0.1,0.1,0.2c0,0,0,0,0,0c0,0,0,0,0,0c0,0.1,0.1,0.1,0.1,0.2c0,0,0,0,0,0c0,0,0.1,0.1,0.1,0.1c0,0,0,0,0,0
				c0,0,0,0,0,0c0.1,0,0.1,0.1,0.2,0.1c0,0,0,0,0,0c0,0,0,0,0,0c0.1,0,0.1,0,0.2,0c0,0,0,0,0,0c0,0,0,0,0,0c0.1,0,0.1,0,0.2,0
				c0,0,0,0,0,0c0.1,0,0.1,0,0.2-0.1c0,0,0,0,0,0c0,0,0,0,0,0c0.1,0,0.1-0.1,0.1-0.1c0,0,0,0,0,0c0,0,0,0,0,0c0,0,0.1-0.1,0.1-0.1
				c0,0,0,0,0,0c0-0.1,0.1-0.1,0.1-0.2c0,0,0,0,0,0c0-0.1,0-0.1,0-0.2c0,0,0,0,0,0c0,0,0,0,0,0c0,0,0,0,0-0.1
				c0.7,0.3,1.4,0.5,2.2,0.7c-0.1,0.6-0.3,1.1-0.7,1.5c-1.2,1.3-3.6,1.1-5.4-0.5C387.9,205.9,387.3,204.9,387.2,203.9z"/>
		</g>
	</g>
	<g>
		<path class="st3" d="M333.9,389.2c-3,0-7.9,0.2-7.9,0.2l0.1,8.8c0,1.5,0,2.4,0.7,2.6l2.1,0.7c0.5,0.1,0.6,0.1,0.6,0.4
			c0,0.3-0.4,0.2-0.7,0.2h-8.4c-0.3,0-0.7,0.1-0.7-0.2c0-0.2,0.2-0.3,0.6-0.4l2.1-0.7c0.8-0.3,0.7-1.1,0.7-2.6c0,0,0.1-3.3,0.1-9.5
			c0-6.4-0.1-9.5-0.1-9.5c0-1.5,0.1-2.4-0.7-2.6l-2.1-0.7c-0.5-0.2-0.6-0.2-0.6-0.4c0-0.3,0.4-0.2,0.7-0.2h8.4
			c0.4,0,0.7-0.1,0.7,0.2c0,0.3-0.1,0.3-0.6,0.4l-2.1,0.7c-0.8,0.3-0.7,1.1-0.7,2.6l-0.1,7.6c0,0,4.9,0.2,7.9,0.2
			c3.1,0,7.9-0.2,7.9-0.2l-0.1-7.6c0-1.5,0.1-2.4-0.7-2.6l-2.1-0.7c-0.5-0.2-0.6-0.2-0.6-0.4c0-0.3,0.4-0.2,0.7-0.2h8.4
			c0.4,0,0.7-0.1,0.7,0.2c0,0.3-0.1,0.3-0.6,0.4l-2.1,0.7c-0.8,0.3-0.7,1.1-0.7,2.6c0,0-0.1,2.6-0.1,9.5c0,6.7,0.1,9.5,0.1,9.5
			c0,1.5-0.1,2.4,0.7,2.6l2.1,0.7c0.5,0.1,0.6,0.1,0.6,0.4c0,0.3-0.4,0.2-0.7,0.2H339c-0.4,0-0.7,0.1-0.7-0.2c0-0.2,0.2-0.3,0.6-0.4
			l2.1-0.7c0.8-0.3,0.7-1.1,0.7-2.6l0.1-8.8C341.8,389.4,337,389.2,333.9,389.2z"/>
		<path class="st3" d="M371.2,374.9c0,0.3,0.4,1.8,4.2,11.9c3,8,4.5,11.3,4.5,11.3c1,2.4,1,2.5,2.2,2.9l1.5,0.5
			c0.4,0.1,0.5,0.2,0.5,0.4c0,0.2-0.4,0.2-0.8,0.2h-8.7c-0.3,0-0.6,0-0.6-0.2c0-0.1,0-0.2,0.5-0.3l1.8-0.6c0.8-0.3,0.9-0.5-0.1-3.1
			l-2.3-6.6h-8.6l-2.4,6.4c-1,2.5-1.1,2.9-0.2,3.2l2.2,0.7c0.3,0.1,0.4,0.1,0.4,0.3c0,0.2,0,0.2-0.5,0.2h-7.7c-0.2,0-0.5,0-0.5-0.2
			c0-0.1,0.1-0.3,0.5-0.4l1.8-0.6c0.8-0.3,0.9-0.4,1.7-2.5c0,0,1.4-3.5,3.6-9.2c3.1-8.1,5-13.8,5.1-14.3H371.2z M373.2,389.5
			l-3.6-9.8l-3.7,9.8H373.2z"/>
		<path class="st3" d="M418.4,402.5c0,0-2.6-3.3-5-5.9C407.6,390.3,398,380,398,380s-0.1,2.6-0.1,8.7c0,6.2,0.1,9.5,0.1,9.5
			c0,1.5-0.1,2.4,0.7,2.6l2,0.7c0.5,0.1,0.6,0.1,0.6,0.4c0,0.2-0.4,0.2-0.7,0.2h-7.5c-0.3,0-0.7,0-0.7-0.2c0-0.2,0.2-0.3,0.6-0.4
			l2.1-0.7c0.8-0.3,0.7-1.1,0.7-2.6c0,0,0.1-3.3,0.1-9.5c0-6.1-0.1-9.5-0.1-9.5c0-1.5-0.2-4.6-0.2-4.6h1.9c0,0,2.7,3.4,5.5,6.5
			c5.7,6.2,14.9,16.1,14.9,16.1s0.1-2.3,0.1-8.5c0-6.1-0.1-9.5-0.1-9.5c0-1.5,0.1-2.4-0.7-2.6l-2-0.7c-0.5-0.2-0.6-0.2-0.6-0.4
			c0-0.3,0.4-0.2,0.7-0.2h7.5c0.3,0,0.7-0.1,0.7,0.2c0,0.3-0.1,0.3-0.6,0.4l-2,0.7c-0.8,0.3-0.7,1.1-0.7,2.6c0,0-0.1,3.4-0.1,9.5
			c0,6.2,0.1,9.5,0.1,9.5c0,1.5,0.2,4.3,0.2,4.3H418.4z"/>
		<path class="st3" d="M454.3,379.2c0-1.5,0.1-2.4-0.7-2.6l-2.1-0.7c-0.5-0.2-0.6-0.2-0.6-0.4c0-0.3,0.3-0.2,0.7-0.2h7.7
			c0.4,0,0.7-0.1,0.7,0.2c0,0.3-0.1,0.3-0.6,0.4l-2.1,0.7c-0.8,0.3-0.7,1.1-0.7,2.6c0,0-0.1,3.4-0.1,9.5c0,2.1,0,2.7,0,2.7
			c0,3.4-0.5,7.8-4.9,10.3c-2.9,1.7-8.1,1.7-11.1-0.1c-4.2-2.5-4.5-6.2-4.5-10.1c0,0,0-0.6,0-2.9c0-6.1-0.1-9.5-0.1-9.5
			c0-1.5,0.1-2.4-0.7-2.6l-2.1-0.7c-0.5-0.2-0.6-0.2-0.6-0.4c0-0.3,0.4-0.2,0.7-0.2h8.4c0.4,0,0.7-0.1,0.7,0.2
			c0,0.3-0.1,0.3-0.6,0.4l-2.1,0.7c-0.8,0.3-0.7,1.1-0.7,2.6c0,0-0.1,3.4-0.1,9.5c0,1.9,0,2.5,0,2.5c0,3.6,0.1,6.7,3.9,8.8
			c2.2,1.3,5.2,1.4,7.5,0c3.9-2.3,4-6,4-9.4c0,0,0-0.5,0-1.9C454.4,382.6,454.3,379.2,454.3,379.2z"/>
		<path class="st3" d="M475.4,374.6c0,0,1.4,3.3,5.5,10.9c2.3,4.2,5.9,10.7,5.9,10.7s3-5.2,5.9-10.5c4.3-8.1,5.5-11.1,5.5-11.1h2
			c0,0,0,3.5,0.9,13.4c0.5,6.3,0.9,9.8,0.9,9.8c0.2,2.4,0.3,2.9,1.1,3.1l1.8,0.6c0.5,0.2,0.5,0.2,0.5,0.4c0,0.2-0.2,0.2-0.6,0.2
			h-8.9c-0.3,0-0.5,0-0.5-0.2c0-0.1,0.1-0.2,0.5-0.3l1.8-0.6c1.2-0.4,1.1-1,1-3.9c0,0-0.1-3.1-0.4-7.1c-0.4-4.9-0.8-8.5-0.8-8.5
			s-3.8,6.7-7.1,12.7c-2.9,5.3-4.2,8.3-4.2,8.3s-1.3-3.3-4.9-9.9c-3.3-6.2-6.1-10.9-6.1-10.9s-0.4,4.2-0.7,8.6
			c-0.3,4.6-0.5,7.3-0.5,7.3c-0.1,2.4-0.2,3.1,0.6,3.4c0.6,0.3,1.1,0.3,2.6,0.8c0.2,0.1,0.3,0.4-0.1,0.4h-8.1c-0.3,0-0.5,0-0.5-0.2
			c0-0.1,0.1-0.2,0.5-0.3l1.8-0.6c0.7-0.2,0.9-0.5,1.2-3.2c0,0,0.4-3.1,0.8-9.7c0.7-9.9,0.7-13.4,0.7-13.4H475.4z"/>
		<path class="st3" d="M528,374.9c0,0.3,0.4,1.8,4.2,11.9c3,8,4.5,11.3,4.5,11.3c1,2.4,1,2.5,2.2,2.9l1.5,0.5
			c0.4,0.1,0.5,0.2,0.5,0.4c0,0.2-0.4,0.2-0.8,0.2h-8.7c-0.3,0-0.6,0-0.6-0.2c0-0.1,0-0.2,0.5-0.3l1.8-0.6c0.8-0.3,0.9-0.5-0.1-3.1
			l-2.3-6.6h-8.6l-2.4,6.4c-1,2.5-1.1,2.9-0.2,3.2l2.2,0.7c0.3,0.1,0.4,0.1,0.4,0.3c0,0.2,0,0.2-0.5,0.2h-7.7c-0.2,0-0.5,0-0.5-0.2
			c0-0.1,0.1-0.3,0.5-0.4l1.8-0.6c0.8-0.3,0.9-0.4,1.7-2.5c0,0,1.4-3.5,3.6-9.2c3.1-8.1,5-13.8,5.1-14.3H528z M530.1,389.5l-3.6-9.8
			l-3.7,9.8H530.1z"/>
		<path class="st3" d="M575.2,402.5c0,0-2.6-3.3-5-5.9c-5.8-6.3-15.4-16.6-15.4-16.6s-0.1,2.6-0.1,8.7c0,6.2,0.1,9.5,0.1,9.5
			c0,1.5-0.1,2.4,0.7,2.6l2,0.7c0.5,0.1,0.6,0.1,0.6,0.4c0,0.2-0.4,0.2-0.7,0.2H550c-0.3,0-0.7,0-0.7-0.2c0-0.2,0.2-0.3,0.6-0.4
			l2.1-0.7c0.8-0.3,0.7-1.1,0.7-2.6c0,0,0.1-3.3,0.1-9.5c0-6.1-0.1-9.5-0.1-9.5c0-1.5-0.2-4.6-0.2-4.6h1.9c0,0,2.7,3.4,5.5,6.5
			c5.7,6.2,14.9,16.1,14.9,16.1s0.1-2.3,0.1-8.5c0-6.1-0.1-9.5-0.1-9.5c0-1.5,0.1-2.4-0.7-2.6l-2-0.7c-0.5-0.2-0.6-0.2-0.6-0.4
			c0-0.3,0.4-0.2,0.7-0.2h7.5c0.3,0,0.7-0.1,0.7,0.2c0,0.3-0.1,0.3-0.6,0.4l-2,0.7c-0.8,0.3-0.7,1.1-0.7,2.6c0,0-0.1,3.4-0.1,9.5
			c0,6.2,0.1,9.5,0.1,9.5c0,1.5,0.2,4.3,0.2,4.3H575.2z"/>
	</g>
	<g>
		<path class="st3" d="M358.5,420.6c0,0.1,0,0.2-0.1,0.2c-0.1,0-0.1-0.1-0.1-0.3c-0.2-0.8-0.4-1.3-1.2-1.5c-1.1-0.2-2.9-0.1-3.9,1
			c-1,1-1.1,2.8-0.8,3.8c0.4,1.4,1.2,2.3,2.6,2.6c0.9,0.3,2.5,0.1,3.2-0.6c0.2-0.2,0.3-0.4,0.5-0.7c0-0.1,0.1-0.3,0.2-0.4
			c0.1-0.2,0.1-0.3,0.2-0.3c0,0,0,0.1,0,0.1l-0.3,2.1c-1.9,0.7-4.1,0.9-5.8-0.4c-1.4-1-1.8-2.5-1.8-3.7c0.1-1.3,0.7-2.7,2.2-3.6
			c1.5-0.9,3.5-0.9,5.1-0.4V420.6z"/>
		<path class="st3" d="M376.4,419.8c0.4,0.6,0.3,1.6-0.1,2.3c-0.5,0.8-1.2,1-1.9,1.2l2.6,2.7c0.7,0.7,0.9,0.8,1.2,0.9
			c0.1,0,0.3,0,0.3,0.1c0,0.1,0,0.1-0.1,0.1c-0.5,0.1-1.2,0.3-2.7-1.2c0,0-1.9-1.9-2.4-2.5c-0.1,0-0.3,0-0.3,0v2.4
			c0,0.5,0,0.8,0.2,0.8l0.7,0.2c0.1,0,0.2,0,0.2,0.1c0,0.1-0.1,0.1-0.2,0.1h-2.6c-0.1,0-0.2,0-0.2-0.1c0-0.1,0.1-0.1,0.2-0.1
			l0.7-0.2c0.2-0.1,0.2-0.3,0.2-0.8c0,0,0-1,0-3c0-1.9,0-3,0-3c0-0.5,0-0.8-0.2-0.8l-0.7-0.2c-0.2-0.1-0.2-0.1-0.2-0.1
			c0-0.1,0.1-0.1,0.2-0.1l2.4,0C374.6,418.5,375.7,418.5,376.4,419.8z M375.6,421c0-0.6-0.2-1.1-0.8-1.6c-0.5-0.3-1.3-0.4-1.6-0.2
			c-0.2,0.1-0.2,0.2-0.2,0.3c0,0.1,0,0.5,0,0.9v2.4c0.7,0,1.3,0,1.7-0.2C375.4,422.1,375.6,421.6,375.6,421z"/>
		<path class="st3" d="M394.7,418.5c0,0.1,0.1,0.6,1.3,3.7c0.9,2.5,1.4,3.5,1.4,3.5c0.3,0.8,0.3,0.8,0.7,0.9l0.5,0.1
			c0.1,0,0.2,0.1,0.2,0.1c0,0.1-0.1,0.1-0.2,0.1h-2.7c-0.1,0-0.2,0-0.2-0.1c0,0,0-0.1,0.2-0.1l0.6-0.2c0.2-0.1,0.3-0.1,0-1l-0.7-2.1
			h-2.7l-0.8,2c-0.3,0.8-0.3,0.9-0.1,1l0.7,0.2c0.1,0,0.1,0,0.1,0.1c0,0.1,0,0.1-0.1,0.1h-2.4c-0.1,0-0.2,0-0.2-0.1
			c0,0,0-0.1,0.2-0.1l0.6-0.2c0.3-0.1,0.3-0.1,0.5-0.8c0,0,0.4-1.1,1.1-2.9c1-2.5,1.6-4.3,1.6-4.5H394.7z M395.3,423l-1.1-3.1
			L393,423H395.3z"/>
		<path class="st3" d="M412.8,426.6l0.7,0.2c0.1,0,0.2,0,0.2,0.1c0,0.1-0.1,0.1-0.2,0.1h-2.6c-0.1,0-0.2,0-0.2-0.1
			c0-0.1,0.1-0.1,0.2-0.1l0.7-0.2c0.2-0.1,0.2-0.3,0.2-0.8c0,0,0-1,0-3c0-2.1,0-3,0-3c0-0.5,0-0.8-0.2-0.8l-0.7-0.2
			c-0.2-0.1-0.2-0.1-0.2-0.1c0-0.1,0.1-0.1,0.2-0.1c0,0,1.6,0,2.9,0c1.3,0,2-0.1,2-0.1v1.6c0,0.1,0,0.2-0.1,0.2
			c-0.1,0-0.1-0.1-0.1-0.2c-0.4-1-0.3-1-1.5-1h-1.2c-0.3,0-0.3,0-0.3,0.3l0,2.9h1.9c0.3,0,0.3,0,0.5-0.3c0-0.1,0.1-0.4,0.2-0.4
			c0-0.1,0.2-0.1,0.2,0v2.2c0,0.2,0,0.2-0.1,0.3c-0.1,0-0.1,0-0.1-0.1c-0.1-0.4-0.2-0.8-0.2-0.8c-0.1-0.2-0.2-0.3-0.4-0.3h-1.9
			l0,2.8C412.6,426.2,412.6,426.5,412.8,426.6z"/>
		<path class="st3" d="M431.2,425.8c0,0.5,0,0.8,0.2,0.8l0.6,0.2c0.1,0,0.2,0,0.2,0.1c0,0.1-0.1,0.1-0.2,0.1h-2.6
			c-0.1,0-0.2,0-0.2-0.1c0-0.1,0.1-0.1,0.2-0.1l0.6-0.2c0.2-0.1,0.2-0.3,0.2-0.8c0,0,0-1,0-3c0-1.9,0-3.6,0-3.6h-1.9
			c-0.4,0-0.5,0.3-0.7,1.2c0,0.1-0.1,0.2-0.1,0.2c-0.1,0-0.1,0-0.1-0.1v-1.9c0-0.1,0-0.1,0.1-0.2c0.1,0,0.4,0.2,0.9,0.2h4.6
			c0.5,0,0.8-0.3,0.9-0.2c0.1,0,0.1,0.1,0.1,0.2v1.9c0,0.1,0,0.1-0.1,0.1c-0.1,0-0.1-0.1-0.1-0.2c-0.2-0.9-0.3-1.2-0.7-1.2h-1.9
			c0,0,0,1.7,0,3.6C431.2,424.7,431.2,425.8,431.2,425.8z"/>
		<path class="st3" d="M467.2,425.2c-0.7-1.9-1.8-4.5-1.8-4.5s-0.8,2-1.6,4.1c-0.6,1.6-0.7,2.3-0.7,2.3h-0.5c0,0-0.2-0.9-1-3
			c-0.9-2.4-1.8-4.3-1.8-4.3c-0.3-0.7-0.4-0.8-0.6-0.9l-0.5-0.2c-0.1,0-0.2,0-0.2-0.1c0-0.1,0.1-0.1,0.3-0.1h2.6
			c0.1,0,0.1,0,0.1,0.1c0,0.1-0.1,0.1-0.2,0.1l-0.4,0.1c-0.2,0.1-0.2,0.1-0.3,0.2c0,0.1,0,0.3,0.2,0.8c0,0,0.3,0.9,0.9,2.4
			c0.7,1.8,1.2,2.9,1.2,2.9s0.6-1.4,1.4-3.5c0.8-2,1.2-3.3,1.2-3.3s0.5,1.4,1,2.8c0.6,1.5,1.6,4,1.6,4s0.4-1.1,1.1-2.8
			c0.6-1.6,0.5-1.4,0.8-2.3c0.2-0.9,0.2-1-0.1-1.1l-0.5-0.2c-0.2,0-0.2-0.1-0.2-0.1c0,0,0-0.1,0.1-0.1h2.4c0.1,0,0.2,0,0.2,0
			s0,0.1-0.2,0.1l-0.4,0.1c-0.3,0.1-0.4,0.3-0.6,0.8c0,0-0.3,0.8-1.5,4.2c-0.7,2-1,3.1-1,3.1h-0.6
			C467.8,427.1,467.6,426.3,467.2,425.2z"/>
		<path class="st3" d="M491.6,419.9c0.9,1.1,1.1,2.8,0.8,4.1c-0.4,1.5-1.7,2.6-3.1,3c-1.4,0.4-3,0.4-4.5-0.8c-1.3-1.1-1.6-2.9-1.5-4
			c0.2-1.4,0.8-2.6,2.4-3.4c0.6-0.3,1.1-0.4,1.7-0.5C488.7,418.2,490.4,418.4,491.6,419.9z M485.4,425.4c1,1.1,2.5,1.3,3.5,1
			c1.2-0.3,2.2-1.1,2.5-2.4c0.3-1.2,0-3-1-3.9c-1.1-1.1-2.5-1.3-3.5-1c-1.2,0.3-2,1.1-2.4,2.4C484.1,422.6,484.3,424.3,485.4,425.4z
			"/>
		<path class="st3" d="M510.1,419.8c0.4,0.6,0.3,1.6-0.1,2.3c-0.5,0.8-1.2,1-1.9,1.2l2.6,2.7c0.7,0.7,0.9,0.8,1.2,0.9
			c0.1,0,0.3,0,0.3,0.1c0,0.1,0,0.1-0.1,0.1c-0.5,0.1-1.2,0.3-2.7-1.2c0,0-1.9-1.9-2.4-2.5c-0.1,0-0.3,0-0.3,0v2.4
			c0,0.5,0,0.8,0.2,0.8l0.7,0.2c0.1,0,0.2,0,0.2,0.1c0,0.1-0.1,0.1-0.2,0.1h-2.6c-0.1,0-0.2,0-0.2-0.1c0-0.1,0.1-0.1,0.2-0.1
			l0.7-0.2c0.2-0.1,0.2-0.3,0.2-0.8c0,0,0-1,0-3c0-1.9,0-3,0-3c0-0.5,0-0.8-0.2-0.8l-0.7-0.2c-0.2-0.1-0.2-0.1-0.2-0.1
			c0-0.1,0.1-0.1,0.2-0.1l2.4,0C508.2,418.5,509.3,418.5,510.1,419.8z M509.3,421c0-0.6-0.2-1.1-0.8-1.6c-0.5-0.3-1.3-0.4-1.6-0.2
			c-0.2,0.1-0.2,0.2-0.2,0.3c0,0.1,0,0.5,0,0.9v2.4c0.7,0,1.3,0,1.7-0.2C509,422.1,509.2,421.6,509.3,421z"/>
		<path class="st3" d="M529.1,419.6c0.3-0.3,0.5-0.5,0.2-0.6l-0.7-0.2c-0.2,0-0.2-0.1-0.2-0.1c0-0.1,0.2-0.1,0.2-0.1h2.7
			c0.1,0,0.2,0,0.2,0.1c0,0-0.1,0.1-0.1,0.1c-0.8,0.3-1.1,0.4-1.7,1l-2.9,2.7l3,3.1c0.5,0.5,0.8,0.7,1.3,1.1
			c0.3,0.2,0.8,0.4,1.1,0.4c0.2,0,0.1,0.1,0.1,0.1c-1.1,0.3-2.2-0.2-3.7-1.7l-2.6-2.7l0,3c0,0.5,0,0.8,0.2,0.8l0.7,0.2
			c0.1,0,0.2,0,0.2,0.1c0,0.1-0.1,0.1-0.2,0.1h-2.6c-0.1,0-0.2,0-0.2-0.1c0-0.1,0.1-0.1,0.2-0.1l0.7-0.2c0.2-0.1,0.2-0.3,0.2-0.8
			c0,0,0-0.9,0-3c0-2.1,0-3,0-3c0-0.5,0-0.8-0.2-0.8l-0.7-0.2c-0.2-0.1-0.2-0.1-0.2-0.1c0-0.1,0.1-0.1,0.2-0.1h2.6
			c0.1,0,0.2,0,0.2,0.1c0,0.1,0,0.1-0.2,0.1l-0.7,0.2c-0.2,0.1-0.2,0.4-0.2,0.8l0,2.7L529.1,419.6z"/>
		<path class="st3" d="M548.4,420.6c0,0.1,0,0.1-0.1,0.1c0,0-0.1-0.2-0.1-0.3c-0.3-0.8-0.3-1.2-1-1.4c-0.5-0.2-1.3-0.2-1.9,0.3
			c-0.5,0.4-0.6,1-0.6,1.4c0.1,0.8,0.7,1.1,1.6,1.5l0.7,0.3c1.1,0.5,1.9,1.1,1.9,2.3c0,0.7-0.2,1.5-1.1,2.1
			c-0.9,0.6-2.7,0.4-3.8,0.1l-0.1-2c0-0.1,0-0.1,0.1-0.1c0,0,0.1,0.2,0.1,0.3c0.2,0.7,0.3,1.2,1.2,1.5c0.5,0.2,1.4,0.2,2-0.3
			c0.4-0.4,0.6-0.9,0.5-1.3c-0.1-0.8-0.7-1.1-1.5-1.5l-0.8-0.4c-1-0.5-1.8-1-1.9-2.1c0-0.6,0.2-1.5,0.9-2.1c1.1-0.8,2.6-0.6,3.6-0.3
			V420.6z"/>
	</g>
</g>
</svg>
