<?xml version="1.0" encoding="utf-8"?>
<!-- Generator: Adobe Illustrator 24.3.0, SVG Export Plug-In . SVG Version: 6.00 Build 0)  -->
<svg version="1.1" id="Livello_1" xmlns="http://www.w3.org/2000/svg" xmlns:xlink="http://www.w3.org/1999/xlink" x="0px" y="0px"
	 viewBox="0 0 1139 1139" style="enable-background:new 0 0 1139 1139;" xml:space="preserve">
<style type="text/css">
	.st0{fill:#8B1913;}
	.st1{fill:#FBBC24;}
</style>
<circle class="st0" cx="577.2" cy="558.2" r="535.4"/>
<g>
	<path class="st1" d="M830.3,607.9c-4.7-2.9-8-0.2-11.1,3.4c-6.6,7.6-13.3,6.3-16.6-3.1c-1.2-3.3-1.9-6.8-2.6-10.2
		c-1.5-6.7-0.6-13.4-1-20.1c-0.3-4.8-3.2-7.9-7.8-8c-4.4-0.1-7.2,2.5-7.6,7.3c-0.3,3.7-0.6,7.5-1.2,11.2c-1.1,6.3-1.2,13.2-7.1,17.5
		c-11.3,8.2-24.1,11.9-37.9,12.7c-3.6,0.2-4.9-1.6-5-4.9c-0.2-8.8,3.6-16,8.6-22.7c4.9-6.4,8-6.9,14.7-2.5c3.8,2.4,7.5,2.5,10.7-0.9
		c3.1-3.3,2.3-7,0-10.3c-1.1-1.6-2.8-2.8-4.4-3.9c-9.1-5.9-19.3-4.5-28.2,2.8c-8.3,6.9-11.4,17.3-18.1,25.1
		c-9.2,10.7-20.5,16.7-34.8,17.3c-4.8,0.2-6.3-2.5-6-6c0.9-9.9,4.8-18.5,12.4-25.2c3.2-2.8,6.4-3.1,10.1-0.1
		c4.8,3.9,8.8,3.6,11.8-0.2c3-3.8,2.1-8.8-2.3-12.4c-8.1-6.7-20.5-6.6-28.7,0.2c-8,6.6-13,15.1-16.8,24.5c-2.8,6.9-6.6,13-14.1,15.8
		c-7.3,2.7-10.6,1.1-12.6-6.1c-2.9-10.9-4.3-22-4.5-33.2c-0.1-4.8-2-9-7.6-9.6c-4.5-0.5-8.1,3.3-8.6,9.3c-0.6,6.3-2,12.4-3.9,18.4
		c-2.5,7.8-5.3,15.7-12.2,21.1c-4.8,3.8-8,3.3-11.1-1.9c-3.8-6.4-5.9-13.5-6-20.8c-0.3-21.6,0.2-43.1-0.2-64.7
		c-0.1-5.8,2.3-7.7,7.3-9c28.5-7.4,56.5-16.9,85.7-21.8c5.6-1,8.6-4.9,7.8-9.2c-0.7-3.7-5.4-7.4-11-6.3c-12.1,2.3-24.1,5.1-36,8.3
		c-17.5,4.7-34.9,9.6-53,14.6c0.9-6.2-0.7-11.8-0.7-17.6c0-5.4-3.1-8.4-7.8-8.3c-4.7,0-7.5,3-7.7,8.5c-0.1,6.3-0.1,12.7,0,19
		c0,1.9-0.2,3.2-2.4,4c-14.5,4.8-29.1,8.5-44.5,6.2c-5.2-0.8-8.5,1.1-10,5.8c-1.3,4.3,2,8.8,7.3,9.5c5.8,0.7,11.7,0.7,17.6,0.8
		c10.9,0.2,21-4.1,31.5-6.4c1.5,8.6-0.4,16.9-0.9,25.1c-1.1,15.3-2.7,30.5-7.9,45.1c-3.5,9.7-8,12.6-18.1,12.1
		c-2.4-0.1-3.2-0.6-3.5-3.3c-2.4-21.6-17.7-38-43.2-39.5c-4.9-0.3-8,1.6-9,7.2c-2.1,12.4-5.8,24.4-11.7,35.5
		c-1.8,3.3-3.8,6.5-6.8,8.8c-4.7,3.6-10.2,1.4-11-4.4c-0.6-4.9-0.9-9.8-1.2-14.7c-0.7-9.6,0.4-19.3-1-29c-0.4-2.6-0.9-3.6-3.6-4
		c-7.6-1.1-15-2.1-22.8-1.1c-26.4,3.1-40,18.2-39,44.5c0.5,14.1,12.5,28.7,32.3,26.2c9-1.2,15.7-5.5,21.4-12
		c1.8,0.7,2.2,2.4,3.1,3.7c6.4,8.4,18.1,11.1,27.4,6.2c6.5-3.4,10.7-9,14.3-15.3c5.5-9.6,9-20,11.6-30.6c1-4.1,2.8-4.5,6.1-3.2
		c9.5,3.7,15.2,10.7,17.4,20.6c0.7,3-1,3-2.9,2.5c-3.7-0.9-7.5-0.8-11.2-0.6c-8.6,0.4-15.2,5.8-16.2,12.8
		c-1.3,8.9,2.7,15.9,10.8,18.7c10.5,3.7,24.5-0.7,30.8-9.9c1.8-2.6,3.3-3.5,6.6-3.4c12.2,0.3,23.4-2.4,30.8-13.4c0.1-0.2,0.7,0,1,0
		c4.3,11.1,9.4,22.5,22.9,23.1c12.9,0.6,21.4-8.2,28.1-19.6c1.8,5.5,3.9,9.7,7.8,13.2c7.8,7.1,22.8,6.2,31.5,0.6
		c2.8-1.8,4.3-2.2,6.6,0.9c2.7,3.7,6.9,5.6,11.7,5.8c13,0.7,24.9-2.8,35.7-9.8c3.6-2.3,5.5-3.2,7.9,1.5c2.5,5,7.3,7.9,12.9,8.1
		c18.5,0.5,35.9-3.3,50.8-15.2c3.5-2.8,4.8-3,7,1.5c4.5,9,12.5,12.4,22.5,11.5c9.2-0.9,15.6-5.7,19.9-13.6
		C835.8,613.5,833.9,610.2,830.3,607.9z M434.3,593.2c-0.2,2.5-0.4,5.3-1.9,7.4c-0.8,2.7-1.9,5.2-3.4,7.5c-1,2.2-2.5,4.2-4.3,5.8
		c-0.1,0.1-0.2,0.1-0.2,0.2c-0.9,1-2,1.8-3.1,2.4c-1.7,0.9-3.6,1.4-5.5,1.8c-0.2,0.1-0.4,0-0.6-0.1c0,0,0,0,0,0
		c-2.8,0.6-5.8,0.1-8.3-1.3c-0.2-0.1-0.3-0.3-0.3-0.4c-0.7-0.4-1.3-0.8-1.8-1.4c-3.5-1.9-4.4-6.3-4.4-10c0-0.1-0.1-0.2-0.1-0.4
		c0-0.1,0-0.3,0-0.4c0-1.2,0.1-2.4,0.3-3.6c0,0,0,0,0,0c0.2-2.4,0.9-4.8,1.8-7.1c0.7-3.5,2.9-6.5,5.8-8.6c0-0.1,0.1-0.2,0.2-0.3
		c1.5-1.3,3.2-2.3,5-3.2c1.5-0.7,3-1.4,4.6-1.8c1.1-0.3,2.4-0.5,3.6-0.7c0.1-0.1,0.3-0.2,0.5-0.2c0.9,0,1.7-0.1,2.6-0.2
		c2.3-0.2,10.2-1.3,10,2.5c0.1,0.1,0.1,0.2,0.1,0.4C434.9,585.6,434.6,589.4,434.3,593.2z M513.8,624.9c-1.3,0.9-2.6,1.9-4.2,2.5
		c-1.1,0.4-2.3,0.6-3.4,0.6c-1,0.1-2.1,0-3.1-0.5c-0.5-0.3-0.9-0.7-1.1-1.2c-0.5-0.6-0.8-1.3-0.7-2.2c0.1-1.4,1-2.5,2.2-3.1
		c1.4-0.7,3.1-0.8,4.6-0.8c0.8,0,1.6,0,2.4,0c0.7,0,1.5-0.1,2.2,0c1.1,0.1,2.5,0.5,2.9,1.6C516.2,623.2,514.8,624.2,513.8,624.9z"/>
	<path class="st1" d="M340,594.5c0,4.4,0.2,8.7,0,13.1c-0.2,4.3-1,8.6-1.1,12.9c-0.1,5.6,3.6,9.4,8.9,9.7c4.4,0.3,8-3.1,8.9-8.4
		c3.7-21.1,2.1-42.1-0.7-63.1c-3.4-25.1-11.3-48.8-22.5-71.5c-6.3-12.8-13.1-25.3-15.1-39.9c-4.1-30.3,6.9-53.9,30.8-71.5
		c35.6-26.3,85.1-20.7,114.1,12.3c21.4,24.3,26.5,63.9,10.8,92.1c-15.3,27.4-40.4,40.2-70,45.6c-9.5,1.7-19.2,2.1-28.7,3.4
		c-6.3,0.9-8.7,4.6-8,10.8c0.5,4.9,3.8,7.6,9.6,7.3c21.9-1.1,43.3-4.6,63.6-13.5c56.4-24.7,75.3-84.8,50.9-136
		c-19-39.9-60.5-61.9-104.6-55.9c-29.2,4-53.4,17.4-70.6,41.6c-21.6,30.6-22.8,63.8-6.3,96.6C328.1,516.3,340.6,553.5,340,594.5z"/>
	<path class="st1" d="M798.3,530.3c-7.3,0.6-14,3.2-20.1,7.3c-3.9,2.7-4,6.5-1.8,10.3c2.2,3.8,5.6,4.6,9.5,2.8
		c4.8-2.2,9.5-4.3,14.8-5.5c4.2-0.9,6.8-4.1,6.1-8.7C806,532.2,803,530,798.3,530.3z"/>
	<path class="st1" d="M637.7,537.6c-0.9-3.9-2.5-7.3-7.5-7.2c-7.6,0.2-14.5,2.9-20.6,7.3c-3.5,2.5-4,6.3-1.8,9.9
		c2.1,3.5,5.1,5.1,9.4,3.2c5-2.2,10.1-4,15.2-6C635.7,543.7,637.4,541.3,637.7,537.6z"/>
</g>
<g>
	<path class="st1" d="M336.2,659.4h11.4c2.4,0,4.2,0.6,5.5,1.7c1.3,1.2,1.9,2.7,1.9,4.6c0,2.2-0.9,3.8-2.8,4.8
		c2.6,1,3.8,2.7,3.8,5.3c0,1.9-0.7,3.5-2,4.7c-1.3,1.2-3.2,1.8-5.5,1.8h-12.4V659.4z M342.1,664.8v3.7h4.9c1.5,0,2.2-0.6,2.2-1.8
		c0-0.6-0.2-1-0.5-1.3c-0.3-0.3-0.8-0.5-1.4-0.5H342.1z M342.1,673.1v4h5.9c1.5,0,2.2-0.7,2.2-2.1c0-1.3-0.7-2-2.2-2H342.1z"/>
	<path class="st1" d="M368,662.5c2.4-2.3,5.3-3.5,8.6-3.5c3.4,0,6.2,1.2,8.6,3.5c2.4,2.3,3.6,5.1,3.6,8.4c0,3.3-1.2,6.1-3.6,8.4
		c-2.4,2.3-5.3,3.5-8.6,3.5c-3.3,0-6.2-1.2-8.6-3.5c-2.4-2.3-3.6-5.1-3.6-8.4C364.4,667.7,365.6,664.8,368,662.5z M372.2,675.3
		c1.2,1.2,2.7,1.8,4.4,1.8c1.8,0,3.2-0.6,4.4-1.8c1.2-1.2,1.8-2.7,1.8-4.4c0-1.7-0.6-3.2-1.8-4.4c-1.2-1.2-2.7-1.8-4.4-1.8
		c-1.7,0-3.2,0.6-4.4,1.8s-1.8,2.7-1.8,4.4S370.9,674.1,372.2,675.3z"/>
	<path class="st1" d="M396.1,659.4h20.2v5.7h-7.2v17.3h-5.9v-17.3h-7.2V659.4z"/>
	<path class="st1" d="M424.4,659.4h20.2v5.7h-7.2v17.3h-5.9v-17.3h-7.2V659.4z"/>
	<path class="st1" d="M453.5,659.4h17.6v5.7h-11.8v3.3h9.7v5.3h-9.7v2.9h11.8v5.7h-17.6V659.4z"/>
	<path class="st1" d="M490.9,669H502v13.4h-4.6v-2.2c-0.6,0.8-1.4,1.5-2.4,1.9c-1.1,0.5-2.2,0.7-3.4,0.7c-3.3,0-6.2-1.2-8.6-3.5
		c-2.4-2.3-3.6-5.1-3.6-8.4c0-3.3,1.2-6.1,3.6-8.4c2.4-2.3,5.3-3.5,8.6-3.5c1.9,0,3.8,0.4,5.5,1.3c1.7,0.9,3.1,2,4.2,3.5l-4.8,3.2
		c-1.3-1.6-2.9-2.4-4.9-2.4c-1.7,0-3.2,0.6-4.4,1.8c-1.2,1.2-1.8,2.7-1.8,4.4s0.6,3.2,1.8,4.4c1.2,1.2,2.7,1.8,4.4,1.8
		c2.1,0,3.7-0.9,4.9-2.6v-0.6h-5.6V669z"/>
	<path class="st1" d="M525.1,659.4l9.3,23H528l-1.3-3.4h-9l-1.3,3.4H510l9.3-23H525.1z M522.2,667l-2.5,6.7h5L522.2,667z"/>
	<path class="st1" d="M578.5,676.3c-1,2-2.5,3.6-4.5,4.8s-4.1,1.8-6.4,1.8c-3.3,0-6.2-1.2-8.6-3.5c-2.4-2.3-3.6-5.1-3.6-8.4
		c0-3.3,1.2-6.1,3.6-8.4c2.4-2.3,5.3-3.5,8.6-3.5c2.3,0,4.5,0.6,6.4,1.8c1.9,1.2,3.4,2.8,4.5,4.7l-5.4,2.4c-0.5-1-1.3-1.8-2.3-2.4
		c-1-0.6-2.1-0.9-3.2-0.9c-1.7,0-3.2,0.6-4.4,1.8c-1.2,1.2-1.8,2.7-1.8,4.4s0.6,3.2,1.8,4.4c1.2,1.2,2.7,1.8,4.4,1.8
		c1.2,0,2.3-0.3,3.3-0.9c1-0.6,1.7-1.4,2.3-2.4L578.5,676.3z"/>
	<path class="st1" d="M589.8,662.5c2.4-2.3,5.3-3.5,8.6-3.5c3.4,0,6.2,1.2,8.6,3.5c2.4,2.3,3.6,5.1,3.6,8.4c0,3.3-1.2,6.1-3.6,8.4
		c-2.4,2.3-5.3,3.5-8.6,3.5c-3.3,0-6.2-1.2-8.6-3.5c-2.4-2.3-3.6-5.1-3.6-8.4C586.2,667.7,587.4,664.8,589.8,662.5z M594,675.3
		c1.2,1.2,2.7,1.8,4.4,1.8c1.8,0,3.2-0.6,4.4-1.8c1.2-1.2,1.8-2.7,1.8-4.4c0-1.7-0.6-3.2-1.8-4.4c-1.2-1.2-2.7-1.8-4.4-1.8
		c-1.7,0-3.2,0.6-4.4,1.8s-1.8,2.7-1.8,4.4S592.8,674.1,594,675.3z"/>
	<path class="st1" d="M619.9,682.4v-23h5l10.3,12.8v-12.8h5.9v23h-5l-10.3-12.8v12.8H619.9z"/>
	<path class="st1" d="M688.4,676.3c-1,2-2.5,3.6-4.5,4.8c-2,1.2-4.1,1.8-6.4,1.8c-3.3,0-6.2-1.2-8.6-3.5c-2.4-2.3-3.6-5.1-3.6-8.4
		c0-3.3,1.2-6.1,3.6-8.4c2.4-2.3,5.3-3.5,8.6-3.5c2.3,0,4.5,0.6,6.4,1.8c1.9,1.2,3.4,2.8,4.5,4.7L683,668c-0.5-1-1.3-1.8-2.3-2.4
		c-1-0.6-2.1-0.9-3.2-0.9c-1.7,0-3.2,0.6-4.4,1.8c-1.2,1.2-1.8,2.7-1.8,4.4s0.6,3.2,1.8,4.4c1.2,1.2,2.7,1.8,4.4,1.8
		c1.2,0,2.3-0.3,3.3-0.9c1-0.6,1.7-1.4,2.3-2.4L688.4,676.3z"/>
	<path class="st1" d="M718,659.4v12.9c0,3.1-0.9,5.6-2.8,7.5c-1.9,2-4.5,2.9-7.8,2.9c-3.3,0-5.9-1-7.8-2.9c-1.8-2-2.8-4.5-2.8-7.6
		v-12.9h5.9V672c0,1.7,0.4,2.9,1.2,3.8c0.8,0.9,1.9,1.3,3.5,1.3c1.5,0,2.7-0.4,3.5-1.3c0.8-0.9,1.2-2.2,1.2-3.8v-12.6H718z"/>
	<path class="st1" d="M750,676.3c-1,2-2.5,3.6-4.5,4.8c-2,1.2-4.1,1.8-6.4,1.8c-3.3,0-6.2-1.2-8.6-3.5c-2.4-2.3-3.6-5.1-3.6-8.4
		c0-3.3,1.2-6.1,3.6-8.4c2.4-2.3,5.3-3.5,8.6-3.5c2.3,0,4.5,0.6,6.4,1.8c1.9,1.2,3.4,2.8,4.5,4.7l-5.4,2.4c-0.5-1-1.3-1.8-2.3-2.4
		c-1-0.6-2.1-0.9-3.2-0.9c-1.7,0-3.2,0.6-4.4,1.8c-1.2,1.2-1.8,2.7-1.8,4.4s0.6,3.2,1.8,4.4c1.2,1.2,2.7,1.8,4.4,1.8
		c1.2,0,2.3-0.3,3.3-0.9c1-0.6,1.7-1.4,2.3-2.4L750,676.3z"/>
	<path class="st1" d="M764.8,659.4v23h-5.9v-23H764.8z"/>
	<path class="st1" d="M775.1,682.4v-23h5l10.3,12.8v-12.8h5.9v23h-5L781,669.6v12.8H775.1z"/>
	<path class="st1" d="M819.9,659.4l9.3,23h-6.4l-1.3-3.4h-9l-1.3,3.4h-6.4l9.3-23H819.9z M817,667l-2.5,6.7h5L817,667z"/>
</g>
</svg>
