<?xml version="1.0" encoding="utf-8"?>
<!-- Generator: Adobe Illustrator 24.3.0, SVG Export Plug-In . SVG Version: 6.00 Build 0)  -->
<svg version="1.1" id="Livello_1" xmlns="http://www.w3.org/2000/svg" xmlns:xlink="http://www.w3.org/1999/xlink" x="0px" y="0px"
	 viewBox="0 0 1006.1 997.3" style="enable-background:new 0 0 1006.1 997.3;" xml:space="preserve">
<style type="text/css">
	.st0{fill:#14152D;}
	.st1{fill:#AAD7DD;enable-background:new    ;}
	.st2{enable-background:new    ;}
	.st3{fill:#AAD7DD;}
</style>
<path class="st0" d="M500.3,999L500.3,999C224.4,999,0.8,775.3,0.8,499.5v0C0.8,223.6,224.4,0,500.3,0h0
	c275.9,0,499.5,223.6,499.5,499.5v0C999.7,775.3,776.1,999,500.3,999z"/>
<g>
	<circle class="st1" cx="498.4" cy="425.5" r="235.5"/>
	<g>
		<path class="st0" d="M405.9,517.5l-1,4.2C405.3,520,405.8,518.9,405.9,517.5z"/>
	</g>
	<g>
		<path class="st0" d="M634.4,254.6c-1.7-0.8-3.6-1.3-5.3-1.4c-1.4,0-2.7,0.3-3.9,1.1c-1,0.6-1.7,1.5-2.3,2.6c0,0,0,0.1-0.1,0.1
			c0,0.1,0,0.1-0.1,0.2c-0.1,0.1-0.1,0.3-0.2,0.4c-0.1,0.3-0.2,0.6-0.2,0.9c-0.1,0.6-0.2,1.1-0.2,1.8c0,1.4,0.1,2.5,0.5,3.8
			c0.2,0.6,0.4,1.2,0.7,1.8c6.9,5.3,13.4,11.1,19.6,17.3c18.8,18.8,33.5,40.6,43.8,65c10.7,25.2,16.1,52,16.1,79.6
			s-5.4,54.4-16.1,79.6c-10.3,24.3-25,46.2-43.8,65c-18.8,18.8-40.6,33.5-65,43.8c-25.2,10.7-52,16.1-79.6,16.1s-54.4-5.4-79.6-16.1
			c-24.3-10.3-46.2-25-65-43.8c-18.8-18.8-33.5-40.6-43.8-65c-10.7-25.2-16.1-52-16.1-79.6s5.4-54.4,16.1-79.6
			c10.3-24.3,25-46.2,43.8-65c18.8-18.8,40.6-33.5,65-43.8c25.2-10.7,52-16.1,79.6-16.1c12.1,0,24.3,1.1,36.2,3.2
			c5.5,1,11.3,1.7,16.5,3.8c5.3,2.1,10.5,4.6,15.1,8c11.7,8.7,15.5,23,13,37c-2.8,16.2-9.3,27.9-12.9,32.4c-7-4.8-13.1-9-21.9-8.9
			c-14.9,0.2-31.2,5.3-44,12.8c-7.3,4.3-14.9,8.6-21.4,14.1c-3.4,2.9-6.6,5.9-9.8,9.2c-2.2,2.2-7.4,5.4-7.2,8.9l-0.3,0.7
			c-14.1-5.2-30.4-3.3-42,5l-0.3-0.3l-18.8-46.1v26.6l-25-23.7l11.5,31.5l-19.8-8.5l30.6,37.8c-4.7,2.8-11.3,8.8-12.2,14.6
			c-1,6.3,2.1,9.2,3.9,14.5c-1.6,1.7-1.1,5.8-1.6,8c-5,0.3-7.6,2.3-7.5,7.4c0.1,3.8,1.3,8.4,4.3,11.1c2,1.8,3.4,1.1,5.4,2
			c1.9,0.8,2.6,2,3.7,3.9c2.3,3.8,4.4,6.7,7.5,9.9c2.5,2.5,6,5.6,5.3,9.2c0,4.3,0.9,8,0.4,12.1c-0.6,19.3-1.2,38-1.2,57.2
			c0,0.3,0,0.5,0,0.8l0.2-0.9c0,2.3-0.5,3.6-1.6,5.6c0.5-0.4,1-1,1.4-1.6c-0.2,0.3-0.4,0.7-0.6,1c0.3-0.1,0.6-0.3,0.9-0.4
			c-0.9,1.7-2,2.3-3.6,3.1c-3.5,1.8-6.3,4.2-9.9,5.7c-3.5,1.5-6.2,3.5-9.7,5.2c-3.3,1.6-6.6,3.4-9.9,5.3c-3.1,1.8-7.3,2.8-10.2,5
			c-2.6,2-4.2,6.1-4.3,9.2c-0.1,2.6,0.2,7.7,2,9.7c3.4,3.5,3.5-3.6,3.6-5.6c0.1-1.3-0.4-3.9,1.1-4.2c1.7-0.4,2.6,2.3,2.7,3.4
			c0.5,2.9,0,6,0.6,8.9c0.8,3.8,4.7,5.6,5.3,0.7c0.3-2.9-1.1-7.7,0.4-10.3c2.4-4,5.3,0.8,5.5,3.4c0.2,2.9-0.1,5.9,0.7,8.7
			c0.8,2.7,3.9,7.5,6.9,4.4c1.8-1.9,1.6-6.5,2.1-9c0.8-3.4,1.2-5.9,3.6-8.7c2.6-3,12.6-14.8,16.5-9.5c1.9,2.6,1.2,6.4,2.4,9.2
			c0.9,2.1,4,8,6.8,4.4l-0.2,0.2c1.7-3.8,0.6-8.1,0.5-12.2c-0.2-3.7-0.4-8.1,0.5-11.6c0.9-3.9,4-7.2,6.1-10.5
			c2.2-3.6,4.3-7.2,6.6-10.8c2.7-4.2,5.5-8.1,8.5-12.2c2.5-3.4,5.3-7.1,5.9-11.3c0.5-3.7,0.3-7.8,0-11.6c-0.3-4.2-1.9-7.1-3-11.1
			c-1.3-4.9-3-19.6,3.9-21.6l-0.9,0.2c1.9-0.8,5-0.8,7.2-1.1c3.6-0.4,6.9-1.3,10.2-2.7c7.2-3,11.5-7.4,15.5-13.9c0,0,0,0,0,0
			c0,0,0,0,0.1,0c0.1,0,0.2,0,0.3,0.1c0.1,0,0.1,0.1,0.2,0.2c0.1,0.1,0.3,0.2,0.4,0.4c0.1,0.1,0.2,0.3,0.4,0.4
			c0.1,0.1,0.2,0.2,0.2,0.3l0,0c2.1,3.7,5.1,6.9,8.1,10.1c2.6,3,6.7,5.7,8.6,9.2l-0.5,0.5c-3.5,4.2-6.5,8.5-9.1,13.2
			c-2.6,4.6-5.7,8.9-8.7,13.2c-2.7,4-4.3,8.5-6.6,12.7c-3.8,7-12.8,14.4-13,22.8l-0.2,0.7c-1.4,0-2.8-0.1-4.2,0.3
			c-3.6,0.9-6.3,3.7-9,6c-2.5,2.1-5.2,3.5-8.2,4.8c-2.2,1-5.7,4.5-3.8,7.3c1.8,2.7,5.9-0.3,7.6-1.4c1.3-0.9,5.6-6.6,7-4.7
			c0.7,0.9-1.3,6.3-1.5,7.6c-0.2,2.6,0.4,5.5,0,8c-0.5,3-3,4.7-5.2,6.4c-1.5,1.1-5.5,6.3-0.8,4.9c3-0.9,5.2-4.8,8.1-6.2
			c7.3-3.5-3,10.9-2.7,11.7c1.9,4.7,11.6-13.1,12.5-5.8c0.3,2.8-2.7,4.7-2.3,7.6c0.6,3.7,4.7,1.4,6.6,0.1c5.8-4,7-10.5,8.4-17.1
			c0.8-4,1-14.6,4.8-17c2.5-5.6,8.1-10.4,12.6-14.7c2.6-2.5,5.2-4.8,7.3-7.7c1.2-1.7,3.9-8,6.4-7.1h-0.9c2.2,0.9,0.4,5.8,0.1,7.5
			c-0.7,3.7,1.7,4.5,4.5,2.3c2.2-1.8,3.5-4.8,5.3-6.9c1.3-1.6,3.9-7.1,5.8-7.7c4-1.3,0.7,11.4,0.7,13.4c0,1.3,0,2.9,1.1,3.3
			c1.2,0.4,3.1-1.2,3.7-1.9c1.8-2.1,3.5-5.6,4.7-8.1c1.4-2.8,2-5.5,2-8.6c0-2.8-1-5-1.3-7.6c2-0.4,5.3-3.8,7.1-5.2
			c2.7-2,4.9-4.5,6.6-7.3c3-4.7,4.1-10.7,3.8-16.3c-0.5-10.8-5.4-21-6.9-31.6c-0.4-2.8-0.5-5.4-1-8.2c-0.5-2.6-1-5.4-0.9-8.1
			l-0.5,0.2c0.4-1.4,2.6-2.9,3.7-4c1.4-1.3,3-2.8,4.5-4.2c1.5-1.3,3.1-2.7,4.6-4c1.3-1.2,2.9-3.5,4.3-4.3c3.9-2.4,4.2,2.7,4.3,5.3
			c0.2,3.1-0.2,6.2-0.2,9.3c0,6.3-0.4,12.6-0.1,18.8c0.3,6.2,0.4,12.5,0.1,18.6c-0.1,1.9-0.3,15.9,2.3,16.4l-0.4,0.1
			c1.1,0.1,5.9,8.3,6.8,9.7c4.9,7.1,10.5,14,15.8,20.8c2.7,3.5,5.7,6.7,8.4,10.2c2.7,3.5,5.9,6.6,8.5,10l-0.5,0.2
			c-1.6,1-2.9,3.1-4.2,4.6c-1.3,1.5-3.3,3-3.2,5.2c-3.5-1.6-10-0.5-13.4,1.2c-4.9,2.3-8.9,6.5-13.4,9.4c-1.6,1-4.4,2.1-5.1,3.8
			c-0.9,2.2,0.8,3.9,2.6,4.7c3.9,1.7,7.9-1.8,11.1-4c1.4-1,4-3.7,5.9-2.9c1.8,0.7,1.1,3.4,0.5,5c-1.4,4-6.5,7-9.5,9.8
			c-2.9,2.7-19.3,16.9-12.7,21.1c3.5,2.2,7.9-2.6,9.6-5.1c1.6-2.4,4.3-9,8.1-8.2c0.4,2.9-0.2,5.7-1.2,8.5c-1,3-0.6,6.6,3.3,4
			c2.2-1.5,3.6-5.6,4.8-7.9c0.5-1.1,0.9-3.3,2.5-3.1c1.5,0.2,1.1,2.1,1.1,3.4c0,1.9-0.9,6.6,1.4,6.5c2.7-0.1,3.6-5.4,3.9-7.2
			c0.3-2,0.1-6.4,2.5-7.4c3-1.1,3.3,3.8,3.4,5.7c0.1,1.6-0.9,6.3,0.3,7.4c2.5,2.3,5.2-2.9,6-4.2l-0.3,0.3c1.1-1.5,1.3-5.7,1.8-7.2
			c0.9-2.9,2-5.5,3.2-8.3c1.2-2.8,2-5.6,3.5-8.2c1.4-2.4,3.1-4.6,4.5-7.1c2.9-5.2,6.9-9.5,9.9-14.6c3-5.2,4.5-9.2,3.8-15.2
			c-0.6-5.3-5.5-8.3-7.3-13.2l0,0.3c-3.2-5.8-6.5-11.6-9.9-17.4c-3-5.2-6.2-10.3-9.4-15.4c-2.9-4.5-6.9-9-8.4-14.2
			c-1.5-5.5-0.4-11.9-0.1-17.5c0.3-5.7,0.5-11.3,0.8-17c1.3-15.6,2.6-31.2,2.6-46.8c0-7.1-0.2-14.3-2.8-20.9
			c-3.4-8.8-10.6-15.6-17.5-22l0.1-0.9c5.2-6.6,12-17,15.3-31.2c2.1-8.9,4.9-21-0.4-34.4c-4.6-11.6-13.2-18.5-17.6-22
			c-7.3-5.9-14.2-8.8-16.6-9.7c-4.7-1.8-8.7-2.7-16.7-4.5c-2.7-0.6-7.8-1.7-14.1-2.7c0,0-14.8-2-30.1-2
			c-121.6,0-220.2,98.6-220.2,220.2s98.6,220.2,220.2,220.2s220.2-98.6,220.2-220.2C718.6,357.6,685.7,295,634.4,254.6z"/>
	</g>
	<g class="st2">
		<path class="st3" d="M390.6,398.3c1.1-2.5,5.9-4.9,8.9-5.4c3.4-0.5,7.3-0.7,10.7,0.3c2,0.6,3.6,1.8,5.4,2.9l0.7-0.5
			c2.6-3,5.7-5.6,9-7.8c2-1.4,4.2-2.6,6.6-3.1c3.9-0.9,8.1,0.2,11.4,2.5c3.3,2.3,5.6,5.8,7,9.5c2,5.5,1.7,11.8-0.6,17.2
			c-2.3,5.4-6.8,9.8-12.2,12.1l-0.3,0c1,4.3,2,8.7,3,13c0.5,2.4,1.1,4.9,0.5,7.2c-0.7,2.6-2.7,4.7-5,6.1c-4.7,3-11.1,3.4-16,0.7
			c-4.9-2.7-8-8.5-7.2-14c-2.3-3-3.1-7-2-10.6c-6.2-1.5-11.7-5.3-15.4-10.4c-3.7-5.1-5.5-11.6-5-17.9L390.6,398.3z"/>
	</g>
	<g>
		<path class="st0" d="M413,439.7c5.2-0.9,10.5-1,15.7-0.3c0.8,0.1,1.6-0.2,1.8-1c0.2-0.7-0.2-1.7-1-1.8c-5.7-0.8-11.5-0.7-17.2,0.3
			c-0.8,0.1-1.2,1.1-1,1.8C411.5,439.5,412.3,439.9,413,439.7L413,439.7z"/>
	</g>
	<g>
		<path class="st0" d="M416.1,445.8c0.9,0.4,1.8,0.7,2.8,0.7c0.9,0.1,1.8,0,2.6-0.2c0.7-0.2,1.3-1,1-1.8c-0.2-0.8-1-1.2-1.8-1
			c-0.3,0.1-0.5,0.1-0.8,0.2c0.1,0,0.3,0,0.4-0.1c-0.6,0.1-1.1,0.1-1.7,0c0.1,0,0.3,0,0.4,0.1c-0.5-0.1-1.1-0.2-1.6-0.4
			c0.1,0,0.2,0.1,0.3,0.1c-0.1,0-0.1-0.1-0.2-0.1c-0.4-0.2-0.7-0.3-1.1-0.1c-0.3,0.1-0.7,0.4-0.9,0.7c-0.2,0.3-0.3,0.7-0.1,1.1
			C415.6,445.2,415.8,445.6,416.1,445.8L416.1,445.8z"/>
	</g>
	<g>
		<path class="st0" d="M444.9,401.4c-0.4-3.1-1.9-5.6-4.3-7c-4.8-3-11.6-0.8-15.2,5c-1.7,2.7-2.5,5.9-2.1,8.8c0.4,3.1,1.9,5.6,4.3,7
			c1.4,0.9,3.1,1.3,4.7,1.3c3.9,0,8-2.3,10.5-6.3C444.6,407.4,445.3,404.3,444.9,401.4z M440.4,408.6c-2.7,4.4-7.8,6.2-11.2,4
			c-1.1-0.7-1.9-1.7-2.4-2.9c1.5-0.8,2.9-1.8,4.2-2.8c0,0.1,0,0.1,0,0.2c0,0,0,0.1,0,0.1c0,0,0,0,0,0c0,0.1,0.1,0.3,0.2,0.4
			c0,0,0,0.1,0,0.1c0.1,0.1,0.2,0.2,0.3,0.4c0,0,0,0,0.1,0.1c0.1,0.1,0.2,0.2,0.3,0.2c0,0,0,0,0,0c0,0,0.1,0,0.1,0
			c0.1,0.1,0.3,0.1,0.4,0.2c0,0,0,0,0,0c0,0,0,0,0,0c0.1,0,0.3,0,0.4,0.1c0,0,0.1,0,0.1,0c0.1,0,0.3,0,0.4-0.1c0,0,0,0,0,0
			c0,0,0,0,0,0c0.1,0,0.3-0.1,0.4-0.2c0,0,0.1,0,0.1,0c0,0,0,0,0,0c0.1-0.1,0.2-0.2,0.3-0.3c0,0,0,0,0.1-0.1c0,0,0,0,0,0
			c0.1-0.1,0.2-0.2,0.2-0.3c0,0,0,0,0-0.1c0.1-0.1,0.1-0.3,0.2-0.4c0,0,0-0.1,0-0.1c0,0,0,0,0,0c0-0.1,0-0.3,0.1-0.4
			c0,0,0-0.1,0-0.1v0c0-0.1,0-0.3-0.1-0.4c0,0,0-0.1,0-0.1c0,0,0,0,0,0c0-0.1-0.1-0.3-0.2-0.4c0,0,0,0,0-0.1
			c-0.1-0.1-0.2-0.2-0.2-0.3c0,0,0,0,0,0c0,0,0,0,0,0c-0.1-0.1-0.2-0.2-0.3-0.3c0,0,0,0-0.1,0c0,0,0,0,0,0c-0.1-0.1-0.2-0.1-0.4-0.2
			c2.4-2.2,4.5-4.6,6.3-7.3c0,0,0,0,0,0c1.1,1,1.8,2.5,2,4.2C442.3,404,441.7,406.5,440.4,408.6z"/>
	</g>
	<path class="st1" d="M486.5,391.5c-0.1,2.9-2.9,3.3-5.3,8.5c-2.7,6-0.7,9.3-2.9,10.8c-3.5,2.5-14.8-2.2-17.7-11.3
		c-2.6-8.5,1-17.1,8.1-19.4C477.4,377.5,486.8,386.1,486.5,391.5z"/>
	<g>
		<path class="st0" d="M479.7,389c-1.9-3.3-6.2-4.2-9.5-2.7c-3.4,1.5-6,5.1-6.6,8.8c-0.6,3.8,0.9,8.5,5,9.6c1.8,0.5,3.9-0.1,5.2-1.5
			c1.4-1.5,1.8-3.7,1.3-5.6c-0.5-2.1-2.1-4-4-5c-0.9-0.5-2-0.8-3-0.8c0.8-1.1,1.7-2,2.8-2.6c2.1-1.1,5-0.9,6.3,1.3
			C478.1,392.1,480.6,390.6,479.7,389z M467.3,397.1C467.3,397.1,467.3,397.1,467.3,397.1c0.1-0.1,0.1-0.1,0.2-0.1
			c0.1,0,0.2,0,0.3,0c0.1,0,0.2,0.1,0.4,0.1c0,0,0.1,0,0.1,0.1c0,0,0,0,0,0c0,0,0.1,0,0.1,0c0.2,0.1,0.4,0.2,0.5,0.3c0,0,0,0,0.1,0
			c0,0,0.1,0.1,0.1,0.1c0,0,0.1,0,0.1,0.1c0.2,0.1,0.3,0.3,0.4,0.4c0,0,0,0,0,0l0,0c0,0.1,0.1,0.1,0.1,0.2c0.1,0.1,0.1,0.2,0.1,0.3
			c0,0,0,0,0,0c0,0,0,0,0,0c0,0.1,0.1,0.2,0.1,0.3c0,0.1,0,0.1,0,0.2c0,0,0,0.1,0,0.1c0,0,0,0.1-0.1,0.2l0,0c0,0,0,0,0,0
			c0,0,0,0,0,0c0,0,0,0,0,0c0,0,0,0,0,0c0,0,0,0,0,0c0,0,0,0,0-0.1c0,0,0,0-0.1,0.1c0,0,0,0,0,0c0,0,0,0,0,0c0,0,0,0,0,0h0
			c0,0-0.1,0-0.1,0c-0.1,0-0.2,0-0.3,0c-0.2,0-0.4-0.1-0.6-0.1c-0.1,0-0.3-0.1-0.4-0.1c0,0-0.1,0-0.1,0c0,0,0,0-0.1,0c0,0,0,0,0,0
			c0,0,0,0,0,0c0,0,0,0,0,0c0,0,0,0,0,0c0,0,0,0,0,0c0,0,0,0,0,0c0,0,0,0,0,0c0,0-0.1,0-0.1-0.1c-0.1-0.1-0.2-0.1-0.4-0.2
			c-0.2-0.1-0.4-0.2-0.6-0.4c-0.1-0.1-0.2-0.1-0.4-0.1c-0.1-0.4-0.2-0.8-0.2-1.3C466.7,397.4,467,397.3,467.3,397.1z M469.9,399.6
			C469.9,399.6,469.9,399.6,469.9,399.6C469.9,399.6,470,399.6,469.9,399.6L469.9,399.6C470,399.5,470,399.6,469.9,399.6z"/>
	</g>
	<g>
		<path class="st0" d="M415.6,426.2C415.6,426.2,415.6,426.2,415.6,426.2C415.5,426.2,415.5,426.2,415.6,426.2
			C415.5,426.2,415.5,426.2,415.6,426.2C415.5,426.2,415.5,426.2,415.6,426.2z"/>
		<path class="st0" d="M420.2,425.9C420.2,425.9,420.2,425.9,420.2,425.9L420.2,425.9L420.2,425.9z"/>
		<path class="st0" d="M423.2,425.7C423.2,425.7,423.2,425.8,423.2,425.7c-0.1,0.5-0.5,1.3-0.7,1.6c-0.2,0.2-0.5,0.4-0.8,0.4
			c0,0,0,0-0.1,0c-0.3,0.1-0.7,0.1-1,0.1c-0.2,0-0.5-0.1-0.7-0.1c-0.1,0-0.2,0-0.3-0.1c-0.1-0.1-0.3-0.1-0.4-0.2
			c-0.2-0.1-0.5-0.3-0.6-0.6c0-0.1,0-0.3,0-0.4c-0.1-0.7-0.3-1.4-0.8-1.8c0,0,0,0-0.1,0c0,0,0,0-0.1,0c-0.4,0-0.8,0.4-1.2,0.7
			c0,0,0,0,0,0c0,0,0,0,0,0c-0.1,0.1-0.1,0.1-0.2,0.2c-0.2,0.1-0.3,0.3-0.4,0.4c-0.1,0.1-0.1,0.2-0.2,0.2c0,0,0,0,0,0c0,0,0,0,0,0
			c0,0,0,0,0,0c-0.2,0.3-0.4,0.7-0.6,1.1c-0.3,0.7-1.4,0.9-2,0.5c-0.7-0.4-0.8-1.3-0.5-2c0.9-1.9,2.8-3.8,5-4.1
			c2.3-0.4,4.2,1,5.5,2.8c0.1,0.1,0.2,0.2,0.3,0.4c0,0,0,0,0,0.1c0,0,0,0,0,0c0,0.1,0.1,0.2,0.1,0.3c0,0,0,0,0,0
			C423.2,425.4,423.2,425.6,423.2,425.7z"/>
		<path class="st0" d="M423.2,425.8c-0.1,0.7-0.5,1.5-1,1.8c-0.2,0.1-0.3,0.2-0.5,0.2c0.3-0.1,0.5-0.2,0.7-0.4
			C422.7,427.1,423.1,426.3,423.2,425.8z"/>
		<path class="st0" d="M423.2,425.3c0-0.1-0.1-0.2-0.1-0.3C423.2,425,423.2,425.1,423.2,425.3z"/>
	</g>
	<g>
		<path class="st0" d="M423.1,424.9C423.1,424.9,423.1,424.9,423.1,424.9c-0.1-0.2-0.2-0.3-0.3-0.4c0.1,0.1,0.1,0.2,0.2,0.3
			C423,424.8,423.1,424.9,423.1,424.9z"/>
		<path class="st0" d="M423.2,425.7c0-0.2,0-0.3,0-0.4c0,0.1,0,0.2,0,0.3C423.2,425.6,423.2,425.6,423.2,425.7z"/>
	</g>
	<g>
		<g>
			<path class="st0" d="M477.2,605.5c0.2-0.2,0.5-0.4,0.8-0.2c0.2,0.1,0.3,0.2,0.4,0.4c0.6,0.8,1,1.7,0.9,2.7
				c-0.2,1.7-1.9,3.1-3.6,3.2c-1.7,0-3.2-1.2-4-2.6c-1.3-2.3-3.2-3.8-5.9-4c-1.9-0.2-4.1,1.4-1.2,1.7c1.9,0.2,2.5,2.8,3.4,4
				c0.9,1.2,2.6,1.9,3.9,2.3c3.3,1,7.6,0.7,10.2-1.6c5.8-5.2-5.5-11.4-9.2-6.2c-0.5,0.7,1.7,1,2,1c0.5,0,1.1,0,1.7-0.2
				C476.9,605.8,477,605.6,477.2,605.5z"/>
		</g>
		<g>
			<path class="st0" d="M542.4,576.4c0,0-101.9-0.2-101.9-0.2c-1,0-1.7,0.8-1.8,1.7c0,1,0.8,1.8,1.8,1.8l14.6,0
				c-0.1,1.1-0.1,4.2-0.2,5.3c-2.7-0.7-5.6-0.8-8.2,0.1c-4.7,1.6-5.2,5.5-1.3,8.1c-2.7,2.8-2.8,7.1,0.4,9.8c3.7,3,9.4,2.7,12.3,6.7
				c0.7,1,4.8,0.4,4.2-0.4c-2.3-3.2-6.1-3.9-9.5-5.2c-2-0.8-4.1-2-4.9-4.2c-0.7-2.1-0.1-4.5,1.5-6.1c0.3-0.1,0.5-0.2,0.6-0.3
				c1-0.7,2.5-1.4,3.8-1.1c1.5,0.3,2.8,1.9,2.1,3.4c-0.8,1.8-3.3,2.3-2.5,4.6c0.3,0.9,4.4,0.2,4.4,0c-0.9-2.6,2.9-3.2,2.8-5.6
				c-0.1-1.9-2.4-2.9-4-3.2c-2.6-0.7-5.6-0.6-8.2,0.3c-0.8-0.8-1.4-2.1-1.3-3.3c0.1-1.6,1.5-2.4,2.9-2.7c1.8-0.3,3.3,0.4,4.9,0.8
				c0.5,0.1,4.3,0.7,4.3-0.1c0.1-1.7,0.2-5.4,0.3-7.1l18.3,0l0,6.6c-3.2-0.7-6.5-0.9-9.6,0c-1.6,0.5-3.7,1.5-4.2,3.3
				c-0.6,2.4,2.3,3.4,4.1,3.8c1,0.2,2,0.3,3,0.1c0.2,0,1.7-0.3,0.8-0.5c-2.4-0.6-5-2.4-2.6-4.8c2.2-2.2,5-1.6,7.7-0.7
				c0.3,0.1,0.5,0.1,0.8,0.2l0,14.2l3.5,0l0-22.2l8.5,0v9.6c-0.9,0.2-1.8,0.5-2.6,1.1c-1.5,1.2-1.7,2.9-0.6,4.5
				c0.8,1.1,2.2,1.7,3.5,2c1.2,0.3,2.7,0.7,3.8-0.3c0.1-0.1,0.3-0.3,0.3-0.5c0.1-0.5-0.3-0.9-0.8-1.1c-0.5-0.2-1-0.2-1.4-0.3
				c-0.5-0.1-1.4-0.4-1.5-1.1c0-0.1,0-0.3,0-0.4c0.5-2.2,3.4-1.6,5-1.6c2.2,0,4.4,0.1,6.6,0.2l0.1,10.1c0,1,0.8,1.7,1.8,1.7
				c1,0,1.8-0.8,1.7-1.8l-0.1-22l6.2,0v23.8c0,1,0.8,1.8,1.8,1.8c1,0,1.8-0.8,1.8-1.8v-23.8l18.8,0v7.1c-2.3-0.1-4.6-0.3-7-0.4
				c-1.7-0.1-3.7-0.2-5.1,0.9c-3.3,2.5,0.3,6,2.6,7.4c1.2,0.8,5.2-0.2,3.1-1.6c-0.9-0.6-2-1.3-2.4-2.5c-0.5-1.4,0.1-2,1.4-2
				c2.5,0.1,4.9,0.3,7.4,0.4l0,15.1h3.5l0-24.5c0,0,4.8,0,4.8,0c1,0,1.8-0.8,1.8-1.8C544.1,577.2,543.3,576.4,542.4,576.4z
				 M493.3,589c0,0-0.1,0-0.1,0v-9.2l8.8,0l0.1,9.3C499.2,589,496.2,588.9,493.3,589z"/>
		</g>
		<g>
			<path class="st0" d="M532.5,608.3c0.3-2.1,2.9,1.3,3.5,1.9c1,1,2.1,1.7,3.5,2.2c2.4,0.9,5,0.8,7.5,0.1c2.7-0.8-0.7-2.2-2.2-1.8
				c-4.5,1.3-6.4-4.7-10.5-5.5c-2.5-0.5-5.7,0.2-6.1,3.1C527.9,609.6,532.3,609.9,532.5,608.3L532.5,608.3z"/>
		</g>
	</g>
	<g>
		<path class="st0" d="M394.5,415.7c2.6,2.4,6,3.3,8.9,2.6c1.2-0.3,2.3-1,3.2-1.9c1.4-1.5,2.1-3.7,1.7-6c-0.3-2.2-1.5-4.4-3.2-6
			c-3.7-3.5-9.2-3.8-12.1-0.7c-1.4,1.5-2.1,3.7-1.7,6C391.5,411.9,392.7,414,394.5,415.7z M393.4,409.4c-0.2-1.3,0-2.5,0.6-3.5
			c0,0,0,0,0,0c1.8,1.6,3.9,3,6,4.1c-0.1,0.1-0.2,0.1-0.2,0.2c0,0,0,0,0,0c0,0,0,0,0,0c-0.1,0.1-0.1,0.2-0.2,0.2c0,0,0,0,0,0
			c0,0,0,0,0,0c0,0.1-0.1,0.2-0.1,0.3c0,0,0,0,0,0.1c0,0.1,0,0.2,0,0.3c0,0,0,0,0,0c0,0,0,0,0,0.1c0,0.1,0,0.2,0,0.3l0,0
			c0,0,0,0,0,0.1c0,0.1,0.1,0.2,0.1,0.3c0,0,0,0,0,0c0,0,0,0,0,0.1c0.1,0.1,0.1,0.2,0.2,0.3c0,0,0,0,0,0c0.1,0.1,0.2,0.1,0.2,0.2
			c0,0,0,0,0,0c0,0,0,0,0.1,0c0.1,0,0.2,0.1,0.3,0.1c0,0,0,0,0,0c0,0,0,0,0.1,0c0.1,0,0.2,0,0.3,0c0,0,0,0,0,0c0,0,0,0,0,0
			c0.1,0,0.2,0,0.3,0c0,0,0.1,0,0.1,0c0.1,0,0.2-0.1,0.3-0.1c0,0,0,0,0,0c0,0,0,0,0,0c0.1-0.1,0.2-0.1,0.3-0.2c0,0,0,0,0.1-0.1
			c0,0,0,0,0,0c0.1-0.1,0.1-0.2,0.2-0.2c0,0,0,0,0-0.1c0-0.1,0.1-0.2,0.1-0.3c0,0,0,0,0-0.1c0-0.1,0-0.2,0-0.3c0,0,0,0,0,0
			c0,0,0,0,0-0.1c0,0,0-0.1,0-0.1c1.2,0.5,2.4,0.9,3.6,1.2c-0.1,1-0.5,1.9-1.2,2.6c-2.1,2.2-6.1,1.9-8.9-0.8
			C394.5,412.8,393.6,411.1,393.4,409.4z"/>
	</g>
</g>
<g>
	<path class="st3" d="M278.4,711.8c-5,0-13.2,0.4-13.2,0.4l0.1,14.7c0,2.5,0,4,1.2,4.4l3.5,1.1c0.8,0.2,1,0.2,1,0.7
		c0,0.4-0.6,0.3-1.2,0.3h-14.1c-0.5,0-1.1,0.1-1.1-0.3c0-0.4,0.3-0.4,1-0.7l3.5-1.1c1.3-0.4,1.2-1.8,1.2-4.4c0,0,0.2-5.5,0.2-16
		c0-10.7-0.2-15.9-0.2-15.9c0-2.5,0.1-4-1.2-4.4l-3.5-1.1c-0.8-0.3-1-0.4-1-0.7c0-0.4,0.6-0.3,1.1-0.3h14.1c0.6,0,1.2-0.1,1.2,0.3
		s-0.2,0.4-1,0.7l-3.5,1.1c-1.3,0.4-1.2,1.9-1.2,4.4l-0.1,12.7c0,0,8.2,0.3,13.1,0.3c5.1,0,13.3-0.3,13.3-0.3l-0.2-12.7
		c0-2.5,0.1-4-1.2-4.4l-3.5-1.1c-0.9-0.3-1-0.4-1-0.7c0-0.4,0.6-0.3,1.2-0.3H301c0.6,0,1.2-0.1,1.2,0.3s-0.2,0.4-1,0.7l-3.5,1.1
		c-1.3,0.4-1.2,1.9-1.2,4.4c0,0-0.2,4.4-0.2,15.9c0,11.2,0.2,16,0.2,16c0,2.5-0.1,4,1.2,4.4l3.5,1.1c0.8,0.2,1,0.2,1,0.7
		c0,0.4-0.6,0.3-1.2,0.3h-14.1c-0.6,0-1.2,0.1-1.2-0.3c0-0.4,0.3-0.4,1-0.7l3.5-1.1c1.3-0.4,1.2-1.8,1.2-4.4l0.2-14.7
		C291.6,712.2,283.5,711.8,278.4,711.8z"/>
	<path class="st3" d="M351.1,687.9c0.1,0.5,0.6,3,7,20c5,13.3,7.4,18.9,7.4,18.9c1.6,4.1,1.6,4.1,3.6,4.8l2.5,0.8
		c0.6,0.2,0.8,0.3,0.8,0.6c0,0.4-0.7,0.3-1.3,0.3h-14.5c-0.4,0-1,0.1-1-0.4c0-0.2,0.1-0.3,0.8-0.5l3-1c1.3-0.4,1.5-0.8-0.1-5.2
		l-3.9-11h-14.3l-4.1,10.7c-1.6,4.1-1.9,4.9-0.3,5.4l3.7,1.2c0.5,0.1,0.6,0.2,0.6,0.5c0,0.3-0.1,0.3-0.8,0.3h-12.9
		c-0.4,0-0.9,0.1-0.9-0.3c0-0.2,0.2-0.4,0.8-0.6l3-1c1.4-0.5,1.4-0.7,2.8-4.1c0,0,2.4-5.8,6-15.4c5.2-13.5,8.4-23.1,8.5-24H351.1z
		 M354.5,712.2l-6.1-16.4l-6.2,16.4H354.5z"/>
	<path class="st3" d="M440.3,734.1c0,0-4.3-5.5-8.3-9.9c-9.7-10.6-25.7-27.8-25.7-27.8s-0.1,4.4-0.1,14.5c0,10.4,0.2,16,0.2,16
		c0,2.5-0.1,4,1.2,4.4l3.4,1.1c0.8,0.2,1,0.2,1,0.7c0,0.4-0.6,0.3-1.2,0.3h-12.6c-0.5,0-1.1,0.1-1.1-0.3c0-0.4,0.3-0.4,1-0.7
		l3.5-1.1c1.3-0.4,1.2-1.8,1.2-4.4c0,0,0.2-5.5,0.2-16c0-10.1-0.2-15.9-0.2-15.9c0-2.5-0.4-7.6-0.4-7.6h3.2c0,0,4.4,5.7,9.2,10.9
		c9.5,10.3,24.8,26.9,24.8,26.9s0.1-3.8,0.1-14.3c0-10.1-0.2-15.9-0.2-15.9c0-2.5,0.1-4-1.2-4.4l-3.4-1.1c-0.9-0.3-1-0.4-1-0.7
		c0-0.4,0.6-0.3,1.2-0.3h12.6c0.5,0,1.1-0.1,1.1,0.3s-0.2,0.4-1,0.7l-3.4,1.1c-1.3,0.4-1.2,1.9-1.2,4.4c0,0-0.2,5.8-0.2,15.9
		c0,10.4,0.2,16,0.2,16c0,2.5,0.4,7.2,0.4,7.2H440.3z"/>
	<path class="st3" d="M510.6,695c0-2.5,0.1-4-1.2-4.4l-3.5-1.1c-0.8-0.3-1-0.4-1-0.7c0-0.4,0.5-0.3,1.1-0.3h12.8
		c0.6,0,1.2-0.1,1.2,0.3s-0.2,0.4-1,0.7l-3.5,1.1c-1.3,0.4-1.1,1.9-1.1,4.4c0,0-0.2,5.8-0.2,15.9c0,3.5,0.1,4.5,0.1,4.5
		c0.1,5.7-0.8,13-8.2,17.2c-4.9,2.9-13.5,2.9-18.6-0.1c-7-4.2-7.4-10.4-7.4-16.8c0,0,0.1-1,0.1-4.8c0-10.1-0.2-15.9-0.2-15.9
		c0-2.5,0.1-4-1.2-4.4l-3.5-1.1c-0.8-0.3-1-0.4-1-0.7c0-0.4,0.6-0.3,1.1-0.3h14.1c0.6,0,1.2-0.1,1.2,0.3s-0.2,0.4-1,0.7l-3.5,1.1
		c-1.3,0.4-1.2,1.9-1.2,4.4c0,0-0.1,5.8-0.1,15.9c0,3.2-0.1,4.2-0.1,4.2c-0.1,6.1,0.2,11.2,6.5,14.7c3.7,2.1,8.6,2.3,12.6,0
		c6.6-3.8,6.7-10.1,6.7-15.8c0,0,0.1-0.8,0.1-3.2C510.7,700.8,510.6,695,510.6,695z"/>
	<path class="st3" d="M556.3,687.4c0,0,2.4,5.5,9.2,18.2c3.8,7,9.8,17.9,9.8,17.9s5-8.7,9.8-17.5c7.3-13.5,9.2-18.6,9.2-18.6h3.4
		c0,0,0.1,5.8,1.5,22.4c0.9,10.6,1.5,16.4,1.5,16.4c0.4,4,0.5,4.8,1.8,5.2l3.1,1c0.8,0.3,0.8,0.3,0.8,0.6c-0.1,0.4-0.4,0.3-1,0.3
		h-14.9c-0.5,0-0.8-0.1-0.8-0.4c0-0.2,0.2-0.4,0.8-0.5l3.1-1c2-0.6,1.9-1.7,1.6-6.6c0,0-0.2-5.2-0.7-11.9
		c-0.6-8.1-1.3-14.3-1.3-14.3s-6.4,11.2-11.9,21.2c-4.9,8.9-7.1,14-7.1,14s-2.2-5.5-8.2-16.6c-5.5-10.3-10.3-18.2-10.3-18.2
		s-0.7,7.1-1.2,14.4c-0.5,7.6-0.8,12.1-0.8,12.1c-0.2,4.1-0.4,5.2,1,5.7c1,0.4,1.8,0.5,4.3,1.4c0.4,0.1,0.5,0.7-0.2,0.7h-13.6
		c-0.5,0.1-0.9-0.1-0.9-0.4c0-0.2,0.2-0.4,0.8-0.5l3-1c1.2-0.4,1.6-0.8,2-5.4c0,0,0.6-5.2,1.4-16.2c1.1-16.6,1.1-22.4,1.1-22.4
		H556.3z"/>
	<path class="st3" d="M654.6,687.9c0.1,0.5,0.6,3,7,20c5,13.3,7.4,18.9,7.4,18.9c1.6,4.1,1.6,4.1,3.6,4.8l2.5,0.8
		c0.6,0.2,0.8,0.3,0.8,0.6c0,0.4-0.7,0.3-1.3,0.3h-14.5c-0.4,0-1,0.1-1-0.4c0-0.2,0.1-0.3,0.8-0.5l3-1c1.3-0.4,1.5-0.8-0.1-5.2
		l-3.9-11h-14.3l-4.1,10.7c-1.6,4.1-1.9,4.9-0.3,5.4l3.7,1.2c0.5,0.1,0.6,0.2,0.6,0.5c0,0.3-0.1,0.3-0.8,0.3h-12.9
		c-0.4,0-0.9,0.1-0.9-0.3c0-0.2,0.2-0.4,0.8-0.6l3-1c1.4-0.5,1.4-0.7,2.8-4.1c0,0,2.4-5.8,6-15.4c5.2-13.5,8.4-23.1,8.5-24H654.6z
		 M657.9,712.2l-6.1-16.4l-6.2,16.4H657.9z"/>
	<path class="st3" d="M743.7,734.1c0,0-4.3-5.5-8.3-9.9c-9.7-10.6-25.7-27.8-25.7-27.8s-0.1,4.4-0.1,14.5c0,10.4,0.2,16,0.2,16
		c0,2.5-0.1,4,1.2,4.4l3.4,1.1c0.8,0.2,1,0.2,1,0.7c0,0.4-0.6,0.3-1.2,0.3h-12.6c-0.5,0-1.1,0.1-1.1-0.3c0-0.4,0.3-0.4,1-0.7
		l3.5-1.1c1.3-0.4,1.2-1.8,1.2-4.4c0,0,0.2-5.5,0.2-16c0-10.1-0.2-15.9-0.2-15.9c0-2.5-0.4-7.6-0.4-7.6h3.2c0,0,4.4,5.7,9.2,10.9
		c9.5,10.3,24.8,26.9,24.8,26.9s0.1-3.8,0.1-14.3c0-10.1-0.2-15.9-0.2-15.9c0-2.5,0.1-4-1.2-4.4l-3.4-1.1c-0.9-0.3-1-0.4-1-0.7
		c0-0.4,0.6-0.3,1.2-0.3h12.6c0.5,0,1.1-0.1,1.1,0.3s-0.2,0.4-1,0.7l-3.4,1.1c-1.3,0.4-1.2,1.9-1.2,4.4c0,0-0.2,5.8-0.2,15.9
		c0,10.4,0.2,16,0.2,16c0,2.5,0.4,7.2,0.4,7.2H743.7z"/>
</g>
<g>
	<path class="st3" d="M338.8,764.9c0,0.2,0,0.3-0.1,0.3c-0.1,0-0.2-0.1-0.3-0.5c-0.3-1.3-0.7-2.3-2.1-2.7c-1.9-0.4-5-0.1-6.9,1.8
		c-1.7,1.8-2,4.9-1.5,6.7c0.6,2.4,2.1,4,4.6,4.7c1.5,0.5,4.4,0.2,5.7-1c0.3-0.3,0.5-0.6,0.8-1.2c0.1-0.2,0.2-0.5,0.3-0.8
		c0.2-0.4,0.2-0.5,0.3-0.5s0.1,0.1,0.1,0.1l-0.6,3.6c-3.3,1.3-7.1,1.6-10.2-0.6c-2.5-1.8-3.2-4.3-3.1-6.5c0.1-2.2,1.2-4.7,3.9-6.3
		c2.7-1.6,6.2-1.6,9.1-0.7V764.9z"/>
	<path class="st3" d="M368.5,763.3c0.6,1.1,0.6,2.8-0.1,4.1c-0.8,1.3-2.1,1.8-3.3,2.1l4.5,4.8c1.2,1.3,1.5,1.5,2,1.7
		c0.2,0.1,0.5,0.1,0.5,0.2c0,0.1-0.1,0.2-0.2,0.2c-0.8,0.2-2.1,0.6-4.7-2.1c0,0-3.3-3.4-4.3-4.5c-0.1,0-0.6,0-0.6,0v4.3
		c0,0.8,0,1.3,0.4,1.4l1.1,0.4c0.3,0.1,0.3,0.1,0.3,0.2c0,0.1-0.2,0.1-0.4,0.1h-4.7c-0.2,0-0.4,0-0.4-0.1c0-0.1,0.1-0.1,0.3-0.2
		l1.1-0.4c0.4-0.1,0.4-0.6,0.4-1.4c0,0,0.1-1.8,0.1-5.3c0-3.3-0.1-5.2-0.1-5.2c0-0.8,0-1.3-0.4-1.5l-1.1-0.4
		c-0.3-0.1-0.3-0.1-0.3-0.2c0-0.1,0.2-0.1,0.4-0.1l4.2-0.1C365.2,761.2,367.1,761.1,368.5,763.3z M367.1,765.5c0.1-1-0.3-2-1.4-2.8
		c-0.9-0.5-2.3-0.7-2.9-0.4c-0.4,0.1-0.4,0.3-0.4,0.5c0,0.2,0,0.9,0,1.5v4.2c1.1,0.1,2.2-0.1,2.9-0.4
		C366.6,767.5,367,766.6,367.1,765.5z"/>
	<path class="st3" d="M398.6,761.1c0,0.2,0.2,1,2.3,6.6c1.7,4.4,2.5,6.2,2.5,6.2c0.5,1.3,0.5,1.4,1.2,1.6l0.8,0.3
		c0.2,0.1,0.3,0.1,0.3,0.2c0,0.1-0.2,0.1-0.4,0.1h-4.8c-0.1,0-0.3,0-0.3-0.1c0-0.1,0-0.1,0.3-0.2l1-0.3c0.4-0.1,0.5-0.3,0-1.7
		l-1.3-3.6h-4.7l-1.3,3.5c-0.5,1.4-0.6,1.6-0.1,1.8l1.2,0.4c0.2,0,0.2,0.1,0.2,0.2c0,0.1,0,0.1-0.3,0.1h-4.3c-0.1,0-0.3,0-0.3-0.1
		c0-0.1,0.1-0.1,0.3-0.2l1-0.3c0.5-0.2,0.5-0.2,0.9-1.4c0,0,0.8-1.9,2-5.1c1.7-4.5,2.8-7.6,2.8-7.9H398.6z M399.7,769.1l-2-5.4
		l-2.1,5.4H399.7z"/>
	<path class="st3" d="M428.6,775.4l1.1,0.4c0.3,0.1,0.3,0.1,0.3,0.2c0,0.1-0.2,0.1-0.4,0.1H425c-0.2,0-0.4,0-0.4-0.1
		c0-0.1,0.1-0.1,0.3-0.2l1.1-0.4c0.4-0.1,0.4-0.5,0.4-1.4c0,0,0.1-1.8,0.1-5.3c0-3.7-0.1-5.2-0.1-5.2c0-0.8,0-1.3-0.4-1.5l-1.1-0.4
		c-0.3-0.1-0.3-0.1-0.3-0.2c0-0.1,0.2-0.1,0.4-0.1c0,0,2.9,0,5.1,0c2.3,0,3.6-0.2,3.6-0.2v2.8c0,0.3,0,0.4-0.1,0.4
		c-0.1,0-0.1-0.1-0.2-0.3c-0.7-1.8-0.5-1.7-2.6-1.7h-2.1c-0.5,0-0.5,0.1-0.5,0.5l0,5.1h3.3c0.6,0,0.6-0.1,0.8-0.5
		c0-0.1,0.3-0.6,0.3-0.7c0.1-0.2,0.3-0.2,0.3,0v3.9c0,0.3,0,0.4-0.1,0.5c-0.1,0-0.2,0-0.2-0.2c-0.2-0.6-0.4-1.4-0.4-1.4
		c-0.1-0.4-0.3-0.5-0.7-0.5h-3.3l0,5C428.2,774.8,428.1,775.2,428.6,775.4z"/>
	<path class="st3" d="M458.9,773.9c0,0.8,0,1.3,0.4,1.4l1.1,0.4c0.3,0.1,0.3,0.1,0.3,0.2c0,0.1-0.2,0.1-0.4,0.1h-4.6
		c-0.2,0-0.4,0-0.4-0.1c0-0.1,0.1-0.1,0.3-0.2l1.1-0.4c0.4-0.1,0.4-0.6,0.4-1.4c0,0,0.1-1.8,0.1-5.3c0-3.3-0.1-6.4-0.1-6.4h-3.3
		c-0.8,0-0.8,0.5-1.2,2.1c0,0.2-0.1,0.4-0.2,0.4c-0.1,0-0.2,0-0.2-0.2v-3.4c0-0.2,0-0.3,0.1-0.3c0.2-0.1,0.6,0.4,1.5,0.4h8
		c0.9,0,1.4-0.5,1.5-0.4c0.1,0,0.1,0.1,0.1,0.3v3.4c0,0.2-0.1,0.2-0.2,0.2s-0.2-0.2-0.2-0.4c-0.4-1.6-0.5-2.1-1.2-2.1h-3.3
		c0,0-0.1,3-0.1,6.4C458.8,772.1,458.9,773.9,458.9,773.9z"/>
	<path class="st3" d="M518.3,772.9c-1.3-3.3-3.1-7.9-3.1-7.9s-1.4,3.4-2.7,7.2c-1,2.7-1.3,4.1-1.3,4.1h-0.9c0,0-0.3-1.6-1.7-5.3
		c-1.5-4.2-3.1-7.5-3.1-7.5c-0.5-1.2-0.7-1.5-1-1.6l-0.9-0.3c-0.2-0.1-0.3-0.1-0.3-0.2s0.3-0.1,0.5-0.1h4.6c0.2,0,0.3,0,0.3,0.1
		c0,0.1-0.1,0.1-0.3,0.2l-0.8,0.2c-0.4,0.1-0.4,0.2-0.5,0.4s0,0.5,0.3,1.5c0,0,0.5,1.6,1.5,4.1c1.2,3.1,2,5.1,2,5.1s1-2.4,2.5-6.2
		c1.3-3.5,2-5.7,2-5.7s0.8,2.4,1.8,4.9c1.1,2.7,2.9,7,2.9,7s0.8-2,1.9-5c1-2.8,1-2.5,1.4-4.1c0.4-1.6,0.3-1.7-0.1-1.9l-0.9-0.3
		c-0.3-0.1-0.4-0.2-0.4-0.2c0,0,0-0.1,0.3-0.1h4.2c0.1,0,0.4,0,0.4,0.1c0,0.1,0.1,0.1-0.3,0.2l-0.8,0.2c-0.6,0.2-0.7,0.5-1,1.5
		c0,0-0.5,1.4-2.7,7.5c-1.3,3.6-1.8,5.5-1.8,5.5h-1C519.3,776.3,519,774.9,518.3,772.9z"/>
	<path class="st3" d="M559.3,763.6c1.5,1.9,2,4.9,1.4,7.2c-0.7,2.7-2.9,4.6-5.5,5.3c-2.5,0.7-5.3,0.7-7.9-1.5
		c-2.3-1.9-2.8-5.2-2.6-7c0.3-2.4,1.4-4.5,4.2-5.9c1.1-0.5,2-0.7,3-0.9C554.2,760.6,557.2,761,559.3,763.6z M548.3,773.3
		c1.8,1.9,4.4,2.2,6.2,1.8c2.1-0.5,3.8-2,4.4-4.3c0.6-2.1,0.1-5.2-1.7-6.9c-2-1.9-4.4-2.2-6.2-1.8c-2.2,0.6-3.6,2-4.3,4.2
		C546.1,768.4,546.5,771.3,548.3,773.3z"/>
	<path class="st3" d="M589.8,763.3c0.6,1.1,0.6,2.8-0.1,4.1c-0.8,1.3-2.1,1.8-3.3,2.1l4.5,4.8c1.2,1.3,1.5,1.5,2,1.7
		c0.2,0.1,0.5,0.1,0.5,0.2c0,0.1-0.1,0.2-0.2,0.2c-0.8,0.2-2.1,0.6-4.7-2.1c0,0-3.3-3.4-4.3-4.5c-0.1,0-0.6,0-0.6,0v4.3
		c0,0.8,0,1.3,0.4,1.4l1.1,0.4c0.3,0.1,0.3,0.1,0.3,0.2c0,0.1-0.2,0.1-0.4,0.1h-4.7c-0.2,0-0.4,0-0.4-0.1c0-0.1,0.1-0.1,0.3-0.2
		l1.1-0.4c0.4-0.1,0.4-0.6,0.4-1.4c0,0,0.1-1.8,0.1-5.3c0-3.3-0.1-5.2-0.1-5.2c0-0.8,0-1.3-0.4-1.5l-1.1-0.4
		c-0.3-0.1-0.3-0.1-0.3-0.2c0-0.1,0.2-0.1,0.4-0.1l4.2-0.1C586.5,761.2,588.4,761.1,589.8,763.3z M588.4,765.5c0.1-1-0.3-2-1.4-2.8
		c-0.9-0.5-2.3-0.7-2.9-0.4c-0.4,0.1-0.4,0.3-0.4,0.5c0,0.2,0,0.9,0,1.5v4.2c1.1,0.1,2.2-0.1,2.9-0.4
		C587.9,767.5,588.3,766.6,588.4,765.5z"/>
	<path class="st3" d="M621.2,763.1c0.5-0.5,0.9-0.9,0.4-1.1l-1.1-0.4c-0.3-0.1-0.3-0.1-0.3-0.2c0-0.1,0.3-0.1,0.4-0.1h4.7
		c0.1,0,0.3,0,0.3,0.1c0,0.1-0.1,0.1-0.2,0.2c-1.4,0.4-1.9,0.8-3,1.8l-5.1,4.7l5.2,5.5c0.8,0.9,1.4,1.3,2.3,1.9
		c0.6,0.4,1.4,0.7,1.9,0.8c0.3,0.1,0.2,0.2,0.1,0.3c-2,0.5-4-0.3-6.5-3l-4.6-4.8l0,5.3c0,0.8,0,1.3,0.4,1.4l1.1,0.4
		c0.3,0.1,0.3,0.1,0.3,0.2c0,0.1-0.2,0.1-0.4,0.1h-4.7c-0.2,0-0.4,0-0.4-0.1c0-0.1,0.1-0.1,0.3-0.2l1.1-0.4c0.4-0.1,0.4-0.6,0.4-1.4
		c0,0,0.1-1.7,0.1-5.3c0-3.6-0.1-5.2-0.1-5.2c0-0.8,0-1.3-0.4-1.5l-1.1-0.4c-0.3-0.1-0.3-0.1-0.3-0.2c0-0.1,0.2-0.1,0.4-0.1h4.7
		c0.2,0,0.4,0,0.4,0.1s-0.1,0.1-0.3,0.2l-1.1,0.4c-0.4,0.1-0.4,0.6-0.4,1.5l0,4.8L621.2,763.1z"/>
	<path class="st3" d="M653.2,764.8c0,0.1-0.1,0.2-0.2,0.2c-0.1,0-0.1-0.3-0.2-0.5c-0.5-1.5-0.6-2.1-1.7-2.5
		c-0.9-0.3-2.4-0.3-3.3,0.6c-0.8,0.7-1.1,1.7-1,2.4c0.2,1.4,1.3,2,2.7,2.7l1.2,0.6c1.9,0.9,3.3,2,3.4,4c0,1.3-0.4,2.7-1.9,3.6
		c-1.6,1-4.8,0.7-6.6,0.1l-0.1-3.6c0-0.1,0-0.2,0.1-0.2c0.1,0,0.2,0.3,0.2,0.5c0.4,1.2,0.6,2.1,2.1,2.6c0.9,0.3,2.5,0.4,3.6-0.5
		c0.8-0.6,1-1.6,0.9-2.3c-0.2-1.4-1.2-1.9-2.6-2.7l-1.4-0.7c-1.8-0.9-3.1-1.7-3.3-3.7c-0.1-1.1,0.3-2.6,1.6-3.6
		c1.9-1.4,4.6-1,6.4-0.6V764.8z"/>
</g>
</svg>
