<?xml version="1.0" encoding="utf-8"?>
<!-- Generator: Adobe Illustrator 24.3.0, SVG Export Plug-In . SVG Version: 6.00 Build 0)  -->
<svg version="1.1" id="Livello_1" xmlns="http://www.w3.org/2000/svg" xmlns:xlink="http://www.w3.org/1999/xlink" x="0px" y="0px"
	 viewBox="0 0 810 810" style="enable-background:new 0 0 810 810;" xml:space="preserve">
<style type="text/css">
	.st0{fill:#8EC045;}
	.st1{opacity:0.74;fill:#EBEFEC;stroke:#546F29;stroke-width:3;stroke-miterlimit:10;}
	.st2{fill:#EBEFEC;}
</style>
<circle class="st0" cx="405" cy="405" r="388.1"/>
<path class="st1" d="M574.9,510.3"/>
<path class="st2" d="M185.8,324.6c0.8,0.8,1.6,1.6,2.8,1.9c1.3,0.3,2.6,0.2,3.8-0.4c0.8-0.4,1.5-0.9,2.2-1.6c0-1.3,0.2-1.3,0.4-2.9
	c0.2-2.1,0.6-3.9,1.1-5.2c1.2-3.7,3-6.4,5.2-8c3.1-2,7-3,11.6-3v0.4h2.4c0.4,0.7,1.3,1.3,2.7,1.7c1.4,0.4,2.8,0.6,4,0.6
	c1.5,0,2.7-0.4,3.7-1.1c1-0.7,1.5-1.7,1.5-3c0-2.6-1.4-4.8-4.1-6.5c-2.7-1.7-5.7-2.6-9-2.6c-8.6,0-15.7,2.3-21.3,6.9
	c-5.6,4.6-8.4,10.7-8.4,18.1c0,1.7,0.1,1.9,0.4,3.5C185.1,323.8,185.5,324.2,185.8,324.6z"/>
<path class="st2" d="M194.7,340l-0.4-6.4c-0.2-0.2-0.5-0.4-0.7-0.5c-1.9-1.2-4.3-1.4-6.5-0.8c-1.5,0.5-2.6,1.4-3.3,2.5
	c-0.1,2.5-0.2,5.2-0.2,8.1c0,0.2,0,0.4,0,0.6c0,0,0,0.1,0,0.1c0,0.9,0.5,1.5,0.9,2.2c0.1,0.2,0.3,0.4,0.4,0.6c1.6,1.3,3.7,2,5.8,1.5
	c1.5-0.3,2.8-1.1,4.1-2L194.7,340z"/>
<path class="st2" d="M197.2,409.9c-0.5-1.9-0.6-2.5-1-4.6c-1.5-7.1-2.3-14.2-2.4-21.3c-0.4-8.5-0.6-15.2-0.6-20l0-1.7
	c0-1.2,0.3-3.4,0.9-6.5c0,0,0,0,0-0.1c-0.1-0.1-0.2-0.3-0.4-0.4c-1.6-0.6-3.4-0.7-5.1-0.5c-1.5,0.1-3.1,0.4-4.4,1.2
	c-0.3,0.6-0.6,1.2-0.8,1.9l0,7.5c0,7,0.1,11.9,0.2,14.8c0.5,12,1.5,21.6,3,29c0.2,1.3,0.1,1.4,0.4,2.7c0.1,0.2,0.2,0.4,0.3,0.5
	c0.4,0.6,0.9,1,1.6,1.3c0.1,0,0.2,0.1,0.3,0.1c2.7,0.2,5.3-1.2,7.5-3.1C197,410.3,197.1,410.1,197.2,409.9z"/>
<path class="st2" d="M229.7,422.5c-1.4,0-3.7,1.1-7.1,3.4c-3.1,2.2-5.7,3.4-7.9,3.4c-5.1,0-7.7-0.6-10.7-5.3
	c-0.6-0.8-1.1-1.7-1.6-2.6c-0.2-0.2-0.4-0.4-0.6-0.7c-0.6-0.6-1.4-1.2-2.2-1.6c-0.2-0.1-0.5-0.1-0.7-0.2c-2.5,0.6-4.9,1.7-6.2,3.9
	c-0.1,0.2-0.3,0.4-0.4,0.7c-0.1,0.6-0.1,1.1,0,1.7c0,0.2,0,0.4,0.1,0.6c1.3,3.1,1.2,3.9,2.7,6c2.1,2.7,4.6,4.9,7.6,6.5
	c2.9,1.6,6.1,2.4,9.6,2.4c1.5,0,3.5-0.1,6-0.4c4.5-0.6,8.4-2.1,11.6-4.3c3.5-2.5,5.2-6,5.2-10.7
	C233.2,423.4,231.4,422.5,229.7,422.5z"/>
<path class="st2" d="M263.7,430.9c-4.9-6.9-8.3-15.3-10.3-25.3c-2.2-10.6-3.7-21.9-4.3-34c-0.6-11-0.9-22.9-0.9-35.7v-15.5
	c0.1-4.4,0.2-9,0.2-13.8c-1-1-1.5-2.2-1.5-3.7c0-1.5,0.6-2.8,1.7-4c1.1-1.2,2.4-1.8,3.7-1.8c4.5,0,6.7,4.4,6.7,13.3
	c0,5.7,0.3,16.6,0.9,32.6c0.6,16,0.9,26.8,0.9,32.6c0.6,1.6,1.2,4.9,1.8,9.7c0.6,4.9,0.8,8.9,0.8,12c0,2.7,0.4,6.1,1.3,10.2
	c0.9,4.1,2.1,8.1,3.7,12.3c1.6,4.4,3.7,8,6.4,10.8c2.6,2.8,5.4,4.2,8.2,4.2c1.7,0,3.2-0.6,4.4-1.7c1.2-1.1,2-2.7,2.3-4.9
	c0.7-3.5,1.1-6.9,1.1-10.3v-36.5c0-4.6-0.4-10.5-1.3-17.6c-0.7-7.9-1.1-13.8-1.1-17.8v-1.3c0-2-0.1-3.8-0.2-5.4l-0.2-5.4
	c0-3.5-0.2-8.8-0.6-15.9c-0.5-6.4-0.7-11.7-0.7-16.1c0-1.4,0.7-2.6,2.2-3.6c1.4-1,3-1.5,4.8-1.5l4.7,4.3v3.2c0,1.5-0.3,3.3-0.7,5.4
	c-0.5,3.5-0.7,5.5-0.7,6c0,11.4,0.6,27,1.9,47c1.1,21,1.7,37.2,1.7,48.8c0,6.2-0.6,11.7-1.9,16.5c-0.7,2.9-1.8,5.2-3.1,6.9
	c-1.3,1.7-3.1,3.2-5.3,4.5c-2.1,1.2-4.9,1.9-8.2,1.9C274.3,441,268.2,437.6,263.7,430.9z"/>
<path class="st2" d="M355.4,401.9c-8.7-30.1-16.3-57.7-22.6-82.9v61.4c0,5.2,0.5,14.2,1.5,26.8c0.9,13.7,1.3,22.6,1.3,26.6
	c0,1.1-0.7,2.1-2.1,2.9c-1.4,0.8-2.9,1.2-4.7,1.2c-2.6,0-3.9-1-3.9-3l0.4-5.4c0.2-4,0.4-6.6,0.4-7.9c0-6.6-0.4-17.1-1.1-31.4
	c-0.7-14.6-1.1-23.4-1.1-26.6v-23.9c0-3.9,0.2-9.6,0.6-17.2c0.5-6.6,0.7-12.3,0.7-17.2v-1.1c0-6.2,1.4-9.4,4.1-9.4
	c1.6,0,3.7,2.7,6.2,8.2c4.1,9,9.4,25.1,15.7,48.3c3.6,13.5,7.9,30.8,12.7,52c-0.1-0.5,0.9,3.8,3,12.9l0.2,0.9
	c0-12.1,0.1-22.9,0.4-32.6l0.4-32.6v-55.4c0.5-3.1,2.5-4.7,6-4.7c3.4,0,5.1,2.4,5.1,7.3v1.1c-0.7,1.5-1.1,3.3-1.1,5.4
	c0,7.6-0.2,19.1-0.6,34.4c-0.4,15.5-0.6,27.1-0.6,34.8V432c0,2-0.5,3.9-1.6,5.7c-1.1,1.8-2.3,2.7-3.8,2.7
	C368.2,440.4,363.1,427.6,355.4,401.9z"/>
<path class="st2" d="M411.2,436.2c-1.1-1.8-1.6-4-1.6-6.6c0-4.1,0.2-9.2,0.7-15.2l0.4-4.9l0.4-9.9c0-4.4-0.4-14.1-1.3-29.2
	c-0.9-15.1-1.3-24.8-1.3-29.2c0-0.4,0-1.1,0.1-2.2c0.1-1.1,0.1-2.7,0.1-5c0.1-2.5,0.2-5.5,0.2-9.2c0-9.1-0.6-14.9-1.9-17.4
	c-0.7,0-2.4,0.2-4.9,0.6l-5.2,0.4c-1.6,0-3.1-0.5-4.3-1.4c-1.2-0.9-1.9-2.2-1.9-3.6s1.5-2.8,4.5-3.9c4.4-1.5,11.8-2.6,22.3-3.2
	c4.2-0.2,6.8-0.4,7.7-0.4c1.5,0,2.9,0.5,4.1,1.5c1.2,1,1.9,2.2,1.9,3.7c0,1.5-0.5,2.7-1.6,3.6c-1.1,0.9-2.4,1.4-4,1.4l-3.4-0.2
	c-1-0.1-2.1-0.2-3.4-0.2h-1.9c0.9,8.5,1.3,16.2,1.3,23l-0.2,12c-0.1,3.6-0.2,7.7-0.2,12.2c0,6,0.2,13.2,0.7,21.5
	c0.6,10.4,0.9,17.5,0.9,21.5c0,4.7,0.2,10.4,0.7,16.8c0.5,6.6,0.7,12.2,0.7,16.8c0,6.1-1.8,9.2-5.4,9.2
	C413.8,438.9,412.3,438,411.2,436.2z"/>
<path class="st2" d="M479.5,436.5c-0.9-0.7-1.4-2-1.4-3.7v-24.5c-1.6-1.1-4.7-2.1-9.2-3c-4.5-0.9-8.7-1.4-12.7-1.7
	c-1.4,2.6-2.4,5.8-3,9.5l-0.7,3.7c-0.1,0.9-0.5,2.8-1.1,5.8c-0.6,3-1.3,5.6-2.1,7.8c-0.7,2.2-1.5,3.9-2.2,5.1
	c-4.7,0-7.5-1.2-8.2-3.7c1.4-2,2.9-7.9,4.7-17.6l6.2-34.2c2.7-16.2,5.3-30.1,7.6-41.5c2.3-11.5,4.8-21.1,7.4-28.8
	c2.9-8.6,5.6-12.9,8.2-12.9s4.6,0.5,6,1.5c0,5,1.2,17,3.6,36.1c2.5,18.7,3.7,31.5,3.7,38.4c0,6.6,0.7,16.1,2.1,28.4
	c1.2,12.6,1.9,22.6,1.9,30.1c0,4.2-2.1,6.4-6.2,6.4C481.9,437.6,480.4,437.3,479.5,436.5z M477.9,396.9c-0.4-5.5-1-12.3-1.9-20.4
	c-2.9-28.2-4.3-45.5-4.3-51.8v-1.5c-1.2,1.2-3,6.9-5.1,16.9c-2.2,10-4.2,20.8-6.1,32.3c-1.9,11.5-2.9,19.1-3,22.8
	c5.2,1.5,10.8,2.2,16.6,2.2C475.2,397.4,476.4,397.2,477.9,396.9z"/>
<path class="st2" d="M515.4,436.3c-1.8-1.1-2.7-2.7-2.7-4.7c2.7-2.7,4.1-10,4.1-21.9c0-7.1-0.6-17.5-1.7-31.1
	c-1.2-13-1.9-23.2-1.9-30.7l0.4-10.3c0.1-3,0.2-6.4,0.2-10.3c0-3.5-0.6-7.9-1.9-13.3c-1.5-5.6-2.2-9.5-2.2-11.8
	c0-4.4,4.8-6.5,14.4-6.5h2.8c6.7,0,12.6,2.1,17.6,6.2c4,3.5,7.4,8.5,10.1,15.2c1.9,4.5,3.5,10.7,4.9,18.7c0.7,7,1.1,12.5,1.1,16.5v6
	v8.8c-0.3,0.5-0.4,1-0.4,1.5c0,1,0.1,1.7,0.2,2.2c0.1,0.5,0.2,1.1,0.2,1.9c0,4-0.6,8.8-1.8,14.3c-1.2,5.6-2.9,11.2-5.1,16.9
	c-5.6,13.7-11.9,23.4-18.9,29.2c-4.1,3.2-8.4,4.9-12.9,4.9C519.4,438,517.2,437.5,515.4,436.3z M538,414.7c3.5-5.4,6.2-11.4,8-18.1
	c3.4-12.2,5.1-24.6,5.1-37c0-6.7-0.6-14.1-1.9-22.1c-1.4-7.7-4.3-14.7-8.8-21c-2.1-3-4.8-5.3-8-7c-3.2-1.7-6.9-2.5-11-2.5v0.2
	c0,11.2,0.7,28.2,2.2,50.9c1.5,22.6,2.2,39.7,2.2,51.3v17.8C530.4,424.3,534.5,420.1,538,414.7z"/>
<path class="st2" d="M626.4,301.4c-0.3-4.2-1.1-8.4-2.2-12.5c-0.1-0.5-0.3-0.5-0.8-0.5c-4.1,0.3-8.2,1.2-12.3,2.7
	c-5.7,2.1-11,5.4-15,10.4c-5.2,6.5-8.2,13.9-8.5,22.3c-0.1,3,0.4,5.9,1.5,8.7c0.7,1.9,1.9,3.6,3.7,4.7c0.4,0.3,0.4,0.4,0.3,0.9
	c-0.4,1.6-0.7,3.2-0.9,4.7c0.1,0.1,0.2,0.2,0.2,0.3c0.3,0,0.5,0,0.8,0.1c0.1-1.3,0.4-2.6,0.7-4c0.1-0.4,0.1-0.9,0.3-1.1
	c0.3-0.2,0.7,0.2,1,0.3c2.3,0.7,4.7,0.8,7.1,0.3c11-2.4,18.5-8.9,22.2-19.5C626.4,313.4,626.8,307.4,626.4,301.4z"/>
<path class="st0" d="M593,337.6c0.1,0,0.1,0,0.2,0c0.8,0.2,0.8,0.2,1.1-0.6c3.3-11.4,8.5-22,15.5-31.6c0.1-0.1,0.2-0.2,0.2-0.3
	c0.2-0.3,0.2-0.5-0.1-0.7c-0.3-0.2-0.5-0.1-0.7,0.1c-0.5,0.6-0.9,1.2-1.3,1.8c-6.6,9.4-11.5,19.6-14.7,30.7
	C593.1,337.2,593.1,337.3,593,337.6z"/>
<g>
	<path class="st2" d="M590.4,357.5c-1.4,20.5-1.5,41.1-0.2,61.6c0.2,2.6,0.4,5.3,1.5,7.6s3.4,4.3,6,4.4"/>
	<g>
		<path class="st2" d="M584.4,357.5c-0.8,10.9-1.1,21.9-1.1,32.8c0,5.5,0.1,10.9,0.3,16.4c0.2,5.7,0.3,11.4,1.1,17
			c1,6.9,5.6,13,13,13.3c3.1,0.2,6.1-2.9,6-6c-0.2-3.4-2.6-5.8-6-6c-1.1-0.1,0.5,0,0.5,0.1c0,0-0.7-0.2-0.7-0.2
			c0.1,0,1.1,0.6,0.6,0.2c-0.2-0.2-0.8-0.6-0.2,0c0.7,0.6-0.3-0.3-0.5-0.5c-0.8-0.7,0.3,0.2,0.2,0.3c0,0-0.5-0.7-0.5-0.8
			c-0.1-0.1-0.2-0.4-0.3-0.5c0.5,0.3,0.3,1,0.1,0.2c-0.2-0.6-0.3-1.1-0.5-1.7c-0.1-0.2-0.3-1.8-0.2-0.9c0.1,0.8,0,0.1,0-0.1
			c0-0.4-0.1-0.7-0.1-1.1c-0.4-5-0.6-10-0.8-15c-0.3-10.1-0.4-20.2,0-30.3c0.2-5.8,0.5-11.6,0.9-17.4c0.2-3.1-2.9-6.1-6-6
			C587,351.6,584.7,354.1,584.4,357.5L584.4,357.5z"/>
	</g>
</g>
<path class="st2" d="M188.6,326.5c1.3,0.3,2.6,0.2,3.8-0.4c1.5-0.7,2.7-1.9,3.7-3.2c0-0.5,0.1-1.1,0.2-1.6c0.2-2.1,0.6-2.4,1.1-3.8
	c1.2-3.7,3-6.4,5.2-8c3.1-2,7-3,11.6-3v0.4h2.4c0.4,0.7,1.3,1.3,2.7,1.7c1.4,0.4,2.8,0.6,4,0.6c1.5,0,2.7-0.4,3.7-1.1
	c1-0.7,1.5-1.7,1.5-3c0-2.6-1.4-4.8-4.1-6.5c-2.7-1.7-5.7-2.6-9-2.6c-8.6,0-15.7,2.3-21.3,6.9c-5.6,4.6-8.4,10.7-8.4,18.1
	c0,2,0.2,2.4,0.5,4.2C186.9,325.7,187.7,326.2,188.6,326.5z"/>
<path class="st2" d="M195.7,343c0.2-1.6,0.2-3.2,0.1-4.8l-0.2-3.4c-0.6-0.7-1.3-1.3-2.1-1.7c-1.9-1.2-4.3-1.4-6.5-0.8
	c-0.7,0.2-1.2,0.5-1.7,0.9c-0.3,3.1-0.4,6.7-0.4,10.8c0,0.8,0,1.7,0,2.5c0,0,0,0,0,0c1.6,1.3,3.7,2,5.8,1.5c1.6-0.4,3-1.2,4.3-2.2
	C195.4,344.9,195.6,343.9,195.7,343z"/>
<path class="st2" d="M197.7,407.5c-0.1-0.4-0.2-0.8-0.2-1.2c-1.5-7.1-2.3-14.2-2.4-21.3c-0.4-8.5-0.6-15.2-0.6-20l0-1.7
	c0-1,0.2-2.5,0.6-4.6c0-0.1,0-0.1,0-0.2c-0.1-1.2-0.4-2.5-1.3-3.3c-1.6-0.5-3.4-0.7-5.1-0.5c-1.3,0.1-2.6,0.3-3.8,0.9
	c0,0.6,0,1.1-0.1,1.7l0,9c0,7,0.1,11.9,0.2,14.8c0.5,12,1.1,20.4,2.6,27.7c0.3,1.5,0.6,3,0.9,4.5c0.2,0.1,0.3,0.2,0.5,0.3
	c0.1,0,0.2,0.1,0.3,0.1c2.7,0.2,5.3-1.2,7.5-3.1c0.2-0.5,0.4-0.9,0.6-1.4C197.4,408.1,197.8,408.5,197.7,407.5z"/>
<path class="st2" d="M231,423.5c-1.4,0-3.7,1.1-7.1,3.4c-3.1,2.2-5.7,3.4-7.9,3.4c-5.1,0-7.7-0.6-10.7-5.3c-0.4-0.6-0.7-1.1-1.1-1.7
	c-0.8-0.9-1.6-1.8-2.5-2.6c-0.6-0.6-1.4-1.2-2.2-1.6c-0.2-0.1-0.5-0.1-0.8-0.2c-2.5,0.6-4.8,1.8-6.2,3.9c-0.1,0.2-0.2,0.4-0.3,0.5
	c0.1,0.4,0.3,0.8,0.4,1.2c1.5,4.1,1.7,5.6,3.6,8.2c2.1,2.7,4.6,4.9,7.6,6.5c2.9,1.6,6.1,2.4,9.6,2.4c1.5,0,3.5-0.1,6-0.4
	c4.5-0.6,8.4-2.1,11.6-4.3c3.5-2.5,5.2-6,5.2-10.7C234.6,424.4,232.7,423.5,231,423.5z"/>
<path class="st2" d="M265,431.9c-4.9-6.9-8.3-15.3-10.3-25.3c-2.2-10.6-3.7-21.9-4.3-34c-0.6-11-0.9-22.9-0.9-35.7v-15.5
	c0.1-4.4,0.2-9,0.2-13.8c-1-1-1.5-2.2-1.5-3.7c0-1.5,0.6-2.8,1.7-4c1.1-1.2,2.4-1.8,3.7-1.8c4.5,0,6.7,4.4,6.7,13.3
	c0,5.7,0.3,16.6,0.9,32.6c0.6,16,0.9,26.8,0.9,32.6c0.6,1.6,1.2,4.9,1.8,9.7c0.6,4.9,0.8,8.9,0.8,12c0,2.7,0.4,6.1,1.3,10.2
	c0.9,4.1,2.1,8.1,3.7,12.3c1.6,4.4,3.7,8,6.4,10.8c2.6,2.8,5.4,4.2,8.2,4.2c1.7,0,3.2-0.6,4.4-1.7c1.2-1.1,2-2.7,2.3-4.9
	c0.7-3.5,1.1-6.9,1.1-10.3v-36.5c0-4.6-0.4-10.5-1.3-17.6c-0.7-7.9-1.1-13.8-1.1-17.8v-1.3c0-2-0.1-3.8-0.2-5.4l-0.2-5.4
	c0-3.5-0.2-8.8-0.6-15.9c-0.5-6.4-0.7-11.7-0.7-16.1c0-1.4,0.7-2.6,2.2-3.6c1.4-1,3-1.5,4.8-1.5l4.7,4.3v3.2c0,1.5-0.3,3.3-0.7,5.4
	c-0.5,3.5-0.7,5.5-0.7,6c0,11.4,0.6,27,1.9,47c1.1,21,1.7,37.2,1.7,48.8c0,6.2-0.6,11.7-1.9,16.5c-0.7,2.9-1.8,5.2-3.1,6.9
	c-1.3,1.7-3.1,3.2-5.3,4.5c-2.1,1.2-4.9,1.9-8.2,1.9C275.6,442,269.5,438.7,265,431.9z"/>
<path class="st2" d="M356.7,402.9c-8.7-30.1-16.3-57.7-22.6-82.9v61.4c0,5.2,0.5,14.2,1.5,26.8c0.9,13.7,1.3,22.6,1.3,26.6
	c0,1.1-0.7,2.1-2.1,2.9c-1.4,0.8-2.9,1.2-4.7,1.2c-2.6,0-3.9-1-3.9-3l0.4-5.4c0.2-4,0.4-6.6,0.4-7.9c0-6.6-0.4-17.1-1.1-31.4
	c-0.7-14.6-1.1-23.4-1.1-26.6v-23.9c0-3.9,0.2-9.6,0.6-17.2c0.5-6.6,0.7-12.3,0.7-17.2v-1.1c0-6.2,1.4-9.4,4.1-9.4
	c1.6,0,3.7,2.7,6.2,8.2c4.1,9,9.4,25.1,15.7,48.3c3.6,13.5,7.9,30.8,12.7,52c-0.1-0.5,0.9,3.8,3,12.9l0.2,0.9
	c0-12.1,0.1-22.9,0.4-32.6l0.4-32.6v-55.4c0.5-3.1,2.5-4.7,6-4.7c3.4,0,5.1,2.4,5.1,7.3v1.1c-0.7,1.5-1.1,3.3-1.1,5.4
	c0,7.6-0.2,19.1-0.6,34.4c-0.4,15.5-0.6,27.1-0.6,34.8v57.1c0,2-0.5,3.9-1.6,5.7c-1.1,1.8-2.3,2.7-3.8,2.7
	C369.6,441.5,364.4,428.6,356.7,402.9z"/>
<path class="st2" d="M412.6,437.3c-1.1-1.8-1.6-4-1.6-6.6c0-4.1,0.2-9.2,0.7-15.2l0.4-4.9l0.4-9.9c0-4.4-0.4-14.1-1.3-29.2
	c-0.9-15.1-1.3-24.8-1.3-29.2c0-0.4,0-1.1,0.1-2.2c0.1-1.1,0.1-2.7,0.1-5c0.1-2.5,0.2-5.5,0.2-9.2c0-9.1-0.6-14.9-1.9-17.4
	c-0.7,0-2.4,0.2-4.9,0.6l-5.2,0.4c-1.6,0-3.1-0.5-4.3-1.4c-1.2-0.9-1.9-2.2-1.9-3.6s1.5-2.8,4.5-3.9c4.4-1.5,11.8-2.6,22.3-3.2
	c4.2-0.2,6.8-0.4,7.7-0.4c1.5,0,2.9,0.5,4.1,1.5c1.2,1,1.9,2.2,1.9,3.7c0,1.5-0.5,2.7-1.6,3.6c-1.1,0.9-2.4,1.4-4,1.4l-3.4-0.2
	c-1-0.1-2.1-0.2-3.4-0.2h-1.9c0.9,8.5,1.3,16.2,1.3,23l-0.2,12c-0.1,3.6-0.2,7.7-0.2,12.2c0,6,0.2,13.2,0.7,21.5
	c0.6,10.4,0.9,17.5,0.9,21.5c0,4.7,0.2,10.4,0.7,16.8c0.5,6.6,0.7,12.2,0.7,16.8c0,6.1-1.8,9.2-5.4,9.2
	C415.1,440,413.6,439.1,412.6,437.3z"/>
<path class="st2" d="M480.8,437.5c-0.9-0.7-1.4-2-1.4-3.7v-24.5c-1.6-1.1-4.7-2.1-9.2-3c-4.5-0.9-8.7-1.4-12.7-1.7
	c-1.4,2.6-2.4,5.8-3,9.5l-0.7,3.7c-0.1,0.9-0.5,2.8-1.1,5.8c-0.6,3-1.3,5.6-2.1,7.8c-0.7,2.2-1.5,3.9-2.2,5.1
	c-4.7,0-7.5-1.2-8.2-3.7c1.4-2,2.9-7.9,4.7-17.6L451,381c2.7-16.2,5.3-30.1,7.6-41.5c2.3-11.5,4.8-21.1,7.4-28.8
	c2.9-8.6,5.6-12.9,8.2-12.9s4.6,0.5,6,1.5c0,5,1.2,17,3.6,36.1c2.5,18.7,3.7,31.5,3.7,38.4c0,6.6,0.7,16.1,2.1,28.4
	c1.2,12.6,1.9,22.6,1.9,30.1c0,4.2-2.1,6.4-6.2,6.4C483.2,438.7,481.8,438.3,480.8,437.5z M479.2,397.9c-0.4-5.5-1-12.3-1.9-20.4
	c-2.9-28.2-4.3-45.5-4.3-51.8v-1.5c-1.2,1.2-3,6.9-5.1,16.9c-2.2,10-4.2,20.8-6.1,32.3c-1.9,11.5-2.9,19.1-3,22.8
	c5.2,1.5,10.8,2.2,16.6,2.2C476.5,398.4,477.7,398.3,479.2,397.9z"/>
<path class="st2" d="M516.8,437.4c-1.8-1.1-2.7-2.7-2.7-4.7c2.7-2.7,4.1-10,4.1-21.9c0-7.1-0.6-17.5-1.7-31.1
	c-1.2-13-1.9-23.2-1.9-30.7l0.4-10.3c0.1-3,0.2-6.4,0.2-10.3c0-3.5-0.6-7.9-1.9-13.3c-1.5-5.6-2.2-9.5-2.2-11.8
	c0-4.4,4.8-6.5,14.4-6.5h2.8c6.7,0,12.6,2.1,17.6,6.2c4,3.5,7.4,8.5,10.1,15.2c1.9,4.5,3.5,10.7,4.9,18.7c0.7,7,1.1,12.5,1.1,16.5v6
	v8.8c-0.3,0.5-0.4,1-0.4,1.5c0,1,0.1,1.7,0.2,2.2c0.1,0.5,0.2,1.1,0.2,1.9c0,4-0.6,8.8-1.8,14.3c-1.2,5.6-2.9,11.2-5.1,16.9
	c-5.6,13.7-11.9,23.4-18.9,29.2c-4.1,3.2-8.4,4.9-12.9,4.9C520.7,439,518.6,438.5,516.8,437.4z M539.3,415.8
	c3.5-5.4,6.2-11.4,8-18.1c3.4-12.2,5.1-24.6,5.1-37c0-6.7-0.6-14.1-1.9-22.1c-1.4-7.7-4.3-14.7-8.8-21c-2.1-3-4.8-5.3-8-7
	c-3.2-1.7-6.9-2.5-11-2.5v0.2c0,11.2,0.7,28.2,2.2,50.9c1.5,22.6,2.2,39.7,2.2,51.3v17.8C531.7,425.3,535.8,421.2,539.3,415.8z"/>
<g>
	<path class="st2" d="M591.8,358.5c-1.4,20.5-1.5,41.1-0.2,61.6c0.2,2.6,0.4,5.3,1.5,7.6c1.1,2.3,3.4,4.3,6,4.4"/>
	<g>
		<path class="st2" d="M585.8,358.5c-0.8,10.9-1.1,21.9-1.1,32.8c0,5.5,0.1,10.9,0.3,16.4c0.2,5.7,0.3,11.4,1.1,17
			c1,6.9,5.6,13,13,13.3c3.1,0.2,6.1-2.9,6-6c-0.2-3.4-2.6-5.8-6-6c-1.1-0.1,0.5,0,0.5,0.1c0,0-0.7-0.2-0.7-0.2
			c0.1,0,1.1,0.6,0.6,0.2c-0.2-0.2-0.8-0.6-0.2,0c0.7,0.6-0.3-0.3-0.5-0.5c-0.8-0.7,0.3,0.2,0.2,0.3c0,0-0.5-0.7-0.5-0.8
			c-0.1-0.1-0.2-0.4-0.3-0.5c0.5,0.3,0.3,1,0.1,0.2c-0.2-0.6-0.3-1.1-0.5-1.7c-0.1-0.2-0.3-1.8-0.2-0.9c0.1,0.8,0,0.1,0-0.1
			c0-0.4-0.1-0.7-0.1-1.1c-0.4-5-0.6-10-0.8-15c-0.3-10.1-0.4-20.2,0-30.3c0.2-5.8,0.5-11.6,0.9-17.4c0.2-3.1-2.9-6.1-6-6
			C588.3,352.7,586,355.2,585.8,358.5L585.8,358.5z"/>
	</g>
</g>
<g>
	<g>
		<path class="st2" d="M225.8,510.4c-0.3-0.3-0.4-0.6-0.4-1c0-0.3,0.1-0.6,0.2-0.9c0.1-0.4,0.1-0.7,0.1-0.9c0-2.5-0.1-7.4-0.4-14.5
			c-0.3-6.1-0.4-11-0.4-14.5c0-0.3,0.1-0.5,0.3-0.6c0.2-0.2,0.4-0.2,0.7-0.2c0.3,0,0.6,0.1,0.9,0.4c0.3,0.2,0.4,0.5,0.4,0.9
			c0,1.7,0.1,4.3,0.3,7.7c0.1,3.8,0.2,6.3,0.2,7.7l0,0.5v0.5v0.3v0.2c0.1,2.5,0.1,6.2,0.1,11.1v1.1h3.3c0.6,0.4,0.9,0.8,0.9,1.3
			c0,0.3-0.1,0.6-0.3,0.8c-0.2,0.2-0.5,0.4-0.7,0.4c-0.1,0-0.2,0-0.5-0.1l-0.2,0c-0.2,0-0.4,0-0.8,0h-0.7c-0.2,0-0.4,0-0.7,0
			c-0.3,0.3-0.7,0.5-1.2,0.5C226.4,510.8,226.1,510.7,225.8,510.4z"/>
		<path class="st2" d="M243.7,510.4c-0.3-0.2-0.5-0.6-0.5-1.1c0-0.9-0.1-2.3-0.4-4.3l-0.2-0.9l-4.2-0.6c-0.2,0.7-0.4,2-0.7,4
			c-0.2,1.4-0.4,2.3-0.8,2.8c-0.2,0.3-0.5,0.4-0.9,0.4c-0.3,0-0.7-0.1-0.9-0.3c-0.3-0.2-0.4-0.5-0.4-0.8l0.1-0.2l0-0.2
			c1.9-7.3,3.3-14.5,4.3-21.6c0-0.1,0-0.3,0-0.6c0-0.3,0.1-0.7,0.1-1.2c0.1-1,0.2-1.9,0.3-2.5c0.1-0.6,0.3-1.1,0.5-1.4h1.4
			c0.4,0,0.7,0.1,1,0.3c0.3,0.2,0.4,0.4,0.4,0.8c0,2.2,0.3,5.4,0.9,9.6c0.6,4.4,0.9,7.4,0.9,9.2c0,0.2,0.1,0.6,0.2,1.3
			c0.1,0.7,0.2,1.1,0.2,1.3s0.1,1,0.4,2.6c0.3,1.4,0.4,2.2,0.4,2.6v0c0,0.6-0.2,1-0.7,1.2C244.5,510.7,244,510.6,243.7,510.4z
			 M242.2,501c0-2.6-0.2-5.8-0.7-9.8l-0.4-4.4c-1.2,6.7-2.1,11.7-2.5,15.1c0.4,0.3,1.7,0.5,3.7,0.7
			C242.2,502.2,242.2,501.6,242.2,501z"/>
		<path class="st2" d="M262,510c-0.2-0.4-0.4-0.9-0.4-1.5c0-0.9,0.1-2.1,0.2-3.4l0.1-1.1l0.1-2.3c0-1-0.1-3.2-0.3-6.6
			c-0.2-3.4-0.3-5.6-0.3-6.6c0-0.1,0-0.2,0-0.5c0-0.2,0-0.6,0-1.1c0-0.6,0-1.3,0-2.1c0-2.1-0.1-3.4-0.4-4c-0.2,0-0.5,0-1.1,0.1
			l-1.2,0.1c-0.4,0-0.7-0.1-1-0.3c-0.3-0.2-0.4-0.5-0.4-0.8c0-0.3,0.3-0.6,1-0.9c1-0.3,2.7-0.6,5.1-0.7c1-0.1,1.5-0.1,1.7-0.1
			c0.3,0,0.7,0.1,0.9,0.3c0.3,0.2,0.4,0.5,0.4,0.9s-0.1,0.6-0.4,0.8c-0.2,0.2-0.5,0.3-0.9,0.3l-0.8,0c-0.2,0-0.5,0-0.8,0h-0.4
			c0.2,1.9,0.3,3.7,0.3,5.2l0,2.7c0,0.8,0,1.7,0,2.8c0,1.4,0.1,3,0.2,4.9c0.1,2.4,0.2,4,0.2,4.9c0,1.1,0.1,2.4,0.2,3.8
			c0.1,1.5,0.2,2.8,0.2,3.8c0,1.4-0.4,2.1-1.2,2.1C262.5,510.7,262.2,510.5,262,510z"/>
		<path class="st2" d="M278,509c-0.6-1.5-1-3-1.3-4.5l-0.3-1.4c-0.8-4.1-1.3-6.4-1.6-6.9h-0.5c0,0.8,0,1.6,0,2.3v2.3
			c0,3.8,0.3,6.8,0.8,8.9l-0.5,1.1h-1.2l-0.6-0.6l0-2.8c0-2.6-0.1-6.4-0.4-11.6c-0.2-5.5-0.3-9.4-0.3-11.6c0-1.4,0.5-2,1.4-2
			c1.5,0,2.8,0.4,3.8,1.2c1,0.8,1.5,1.9,1.5,3.3v3c0,0.4-0.1,0.9-0.2,1.5c-0.1,0.6-0.3,1-0.5,1.3l-0.8,1.5l-0.7,1.3l0.2,1l0.6,3
			c0.4,2.2,0.8,4,1.1,5.3c0.4,1.4,0.8,2.6,1.4,3.7l0.3,0.5c0.3,0.6,0.4,1,0.4,1.4c0,0.3-0.1,0.5-0.3,0.7c-0.2,0.2-0.4,0.3-0.7,0.3
			C279,511.1,278.5,510.4,278,509z M276,491.5c0.4-1.4,0.7-2.7,0.7-3.9c0-0.9-0.1-1.8-0.3-2.6c-0.1-0.5-0.4-0.8-0.7-1
			c-0.3-0.2-0.7-0.4-1.2-0.4l-0.1,0.2l-0.1,0.4l0.1,5c0.1,1.5,0.1,3.1,0.1,4.8C275.1,493.7,275.6,492.9,276,491.5z"/>
		<path class="st2" d="M293,510.4c-0.3-0.2-0.5-0.6-0.5-1.1c0-0.9-0.1-2.3-0.4-4.3l-0.2-0.9l-4.2-0.6c-0.2,0.7-0.4,2-0.7,4
			c-0.2,1.4-0.4,2.3-0.8,2.8c-0.2,0.3-0.5,0.4-0.9,0.4c-0.3,0-0.7-0.1-0.9-0.3c-0.3-0.2-0.4-0.5-0.4-0.8l0.1-0.2l0-0.2
			c1.9-7.3,3.3-14.5,4.3-21.6c0-0.1,0-0.3,0-0.6c0-0.3,0.1-0.7,0.1-1.2c0.1-1,0.2-1.9,0.3-2.5c0.1-0.6,0.3-1.1,0.5-1.4h1.4
			c0.4,0,0.7,0.1,1,0.3c0.3,0.2,0.4,0.4,0.4,0.8c0,2.2,0.3,5.4,0.9,9.6c0.6,4.4,0.9,7.4,0.9,9.2c0,0.2,0.1,0.6,0.2,1.3
			c0.1,0.7,0.2,1.1,0.2,1.3s0.1,1,0.4,2.6c0.3,1.4,0.4,2.2,0.4,2.6v0c0,0.6-0.2,1-0.7,1.2C293.8,510.7,293.3,510.6,293,510.4z
			 M291.5,501c0-2.6-0.2-5.8-0.7-9.8l-0.4-4.4c-1.2,6.7-2.1,11.7-2.5,15.1c0.4,0.3,1.7,0.5,3.7,0.7
			C291.5,502.2,291.5,501.6,291.5,501z"/>
		<path class="st2" d="M300.3,505l0.1-6.7c0-2,0-4.2,0-6.7c0-0.9-0.1-2.3-0.3-4.2c-0.1-2.1-0.2-3.3-0.2-3.8c0-0.4,0.2-0.7,0.5-1
			c0.3-0.3,0.7-0.4,1-0.4c1,0,1.9,0.2,2.9,0.7c0.9,0.4,1.7,1.1,2.4,1.8c1.5,1.7,2.5,3.6,3,5.7c0.3,1,0.4,2.1,0.4,3.1
			c0,0.4,0,0.7,0,1l0,1.1v2.3c0,1.8-0.1,3.2-0.2,4.3c-0.2,1.4-0.5,2.7-1,3.8c-0.6,1.2-1.4,2.3-2.5,3.2c-0.5,0.4-1.2,0.9-2,1.3h-3.1
			C300.7,510.6,300.3,508.8,300.3,505z M304.8,508c0.5-0.3,0.9-0.7,1.2-1.2c0.3-0.5,0.5-1,0.8-1.7c0.2-0.7,0.4-1.4,0.5-2
			c0.3-1.3,0.4-2.6,0.5-3.9c0-0.3,0-0.8,0-1.5c0-8.6-1.7-13-5-13.4c-0.2,1.3-0.3,2.8-0.3,4.4c0,1.8,0.1,4.9,0.3,9.4
			c0.2,3.9,0.3,7.1,0.3,9.4v1C303.8,508.4,304.4,508.3,304.8,508z"/>
		<path class="st2" d="M314.4,509c0-0.7,0.4-1,1.3-1h0.5l0.4,0c0.2,0,0.4-0.1,0.5-0.2c0.1-0.1,0.1-0.4,0.1-0.8c0-0.5,0-1.2-0.1-2.3
			c-0.1-0.7-0.2-1.9-0.3-3.7c-0.3-4.3-0.4-7.6-0.4-9.8c0-0.8,0-1.5,0-2.2l0-2.2c0-0.9,0-1.7-0.1-2.3c-0.5,0.1-0.8,0.2-1,0.2
			c-0.7,0-1-0.3-1-1c0-0.3,0.2-0.6,0.6-0.9c0.4-0.3,1-0.4,1.6-0.6c1.1-0.2,2.1-0.3,3-0.3c0.3,0,0.6,0.1,0.9,0.4
			c0.2,0.2,0.4,0.5,0.4,0.8c0,0.3-0.1,0.6-0.3,0.8c-0.2,0.2-0.4,0.3-0.7,0.3c-0.2,0-0.3,0-0.4,0h-0.3c-0.3,0-0.5,0.1-0.6,0.2
			c-0.1,0.1-0.2,0.4-0.2,0.7c0,2.8,0.2,6.9,0.5,12.4c0.1,1,0.2,2.5,0.3,4.5c0.1,1.3,0.2,2.6,0.2,4v1.6c0.2,0,0.5,0,0.9,0
			c1.2,0,1.8,0.5,1.8,1.5v0.3l-1.1,0.7c0,0-0.1,0-0.3,0s-0.4,0-0.9,0c-0.9,0.1-1.5,0.1-1.7,0.1C315.7,510.3,314.4,509.9,314.4,509z"
			/>
		<path class="st2" d="M326.7,510.2c-0.2-0.2-0.3-0.4-0.3-0.7c0-1.7,0.3-3.9,1-6.7c0.7-2.8,1.6-6.2,2.9-10.3
			c1.3-4.2,2.1-6.9,2.4-8.2c-0.3,0-0.9,0-1.7,0.1c-0.8,0.1-1.4,0.1-1.8,0.1c-0.3,0-0.5-0.1-0.8-0.4c-0.2-0.2-0.3-0.5-0.3-0.8
			c0-0.8,1.6-1.2,4.7-1.2c1.4,0,2.1,0.4,2.1,1.2c0,0.9-0.3,2.3-0.9,4c-0.6,1.6-1,2.8-1.1,3.6c-0.3,2-1,5.3-2.2,9.9l-1.9,7.4h0.8
			l0.9-0.1c0.3,0,0.6,0,0.9,0v0c1.1,0,1.7,0.4,1.7,1.1c0,0.3-0.1,0.6-0.4,0.7c-0.3,0.2-0.6,0.3-1.1,0.3c-0.5,0-0.9,0-1.2,0L329,510
			c-0.2,0-0.4,0.1-0.7,0.3c-0.4,0.1-0.6,0.2-0.8,0.2C327.2,510.4,327,510.4,326.7,510.2z"/>
		<path class="st2" d="M339,509c0-0.7,0.4-1,1.3-1h0.5l0.4,0c0.2,0,0.4-0.1,0.5-0.2c0.1-0.1,0.1-0.4,0.1-0.8c0-0.5,0-1.2-0.1-2.3
			c-0.1-0.7-0.2-1.9-0.3-3.7c-0.3-4.3-0.4-7.6-0.4-9.8c0-0.8,0-1.5,0-2.2l0-2.2c0-0.9,0-1.7-0.1-2.3c-0.5,0.1-0.8,0.2-1,0.2
			c-0.7,0-1-0.3-1-1c0-0.3,0.2-0.6,0.6-0.9c0.4-0.3,1-0.4,1.6-0.6c1.1-0.2,2.1-0.3,3-0.3c0.3,0,0.6,0.1,0.9,0.4
			c0.2,0.2,0.4,0.5,0.4,0.8c0,0.3-0.1,0.6-0.3,0.8c-0.2,0.2-0.4,0.3-0.7,0.3c-0.2,0-0.3,0-0.4,0h-0.3c-0.3,0-0.5,0.1-0.6,0.2
			c-0.1,0.1-0.2,0.4-0.2,0.7c0,2.8,0.2,6.9,0.5,12.4c0.1,1,0.2,2.5,0.3,4.5c0.1,1.3,0.2,2.6,0.2,4v1.6c0.2,0,0.5,0,0.9,0
			c1.2,0,1.8,0.5,1.8,1.5v0.3l-1.1,0.7c0,0-0.1,0-0.3,0s-0.4,0-0.9,0c-0.9,0.1-1.5,0.1-1.7,0.1C340.3,510.3,339,509.9,339,509z"/>
		<path class="st2" d="M354.4,510.5c-0.6-0.5-1.1-1.1-1.5-1.9c-0.8-1.7-1.3-3.6-1.5-5.7c-0.3-1.9-0.4-3.8-0.4-5.6c0-0.3,0-0.6,0-0.9
			v-0.8c0-0.1,0-0.2,0-0.2v-0.8l0-3c0-0.9,0.1-2.4,0.3-4.3c0.1-1.4,0.5-2.7,1-4c0.2-0.6,0.5-1,0.8-1.3c0.3-0.3,0.7-0.4,1.1-0.4
			c1.1,0,2.2,0.2,3.1,0.6c0.9,0.4,1.7,1,2.3,1.7c0.6,0.7,1,1.6,1.4,2.6c0.4,1,0.7,2.1,0.9,3.3c0.2,1.2,0.3,2.5,0.3,3.8v0.3
			c0,0.9,0,1.7,0,2.4l0,2.4c0,8.2-1.9,12.2-5.7,12.2C355.7,511.2,355,510.9,354.4,510.5z M357.7,508.8c0.4-0.4,0.8-1,1-1.7
			c0.5-1.4,0.9-3,1-4.7c0.1-1.4,0.2-2.7,0.2-3.7c0-1.3-0.1-2.9-0.3-5c-0.2-2.2-0.3-3.8-0.3-4.9V488c-0.1-1.1-0.4-2-1.1-2.8
			c-0.7-0.8-1.5-1.2-2.4-1.2c-1,0-1.6,0.6-1.9,1.7c-0.3,0.9-0.4,2-0.4,3.4c0,0.5,0,1,0,1.4v1.1l-0.1,2c-0.1,0.6-0.1,1.2-0.1,2
			c0,1.5,0,3,0.1,4.5c0.1,2.1,0.4,4.2,0.9,6.2c0.5,2.1,1.1,3.1,2,3.1C356.8,509.4,357.3,509.2,357.7,508.8z"/>
		<path class="st2" d="M378.9,510.2c-0.2-0.2-0.3-0.5-0.4-1l-0.3-0.8v-0.1v-0.1c0-0.9-1-4.1-2.9-9.6c-1.9-5.4-3.5-9.5-4.6-12.1V508
			l0.2,0.3c0,0.1,0.1,0.2,0.2,0.3c0.1,0.1,0.1,0.3,0.1,0.4c0,0.4-0.1,0.7-0.4,0.9c-0.3,0.3-0.6,0.4-0.9,0.4c-0.9,0-1.4-0.9-1.4-2.6
			l0-7.3c0-2.2,0-4.6,0-7.3c0-0.9,0-2.2,0.1-4c0.1-1.8,0.1-3.1,0.1-4c0-1.3,0.5-2.4,1.5-3.1v0.3c0.2-0.1,0.3-0.1,0.3-0.1
			c0.7,0,1.5,1.1,2.5,3.4c0.8,1.8,1.5,3.7,2.1,5.7c0.6,2,1.5,4.9,2.5,8.6l0.4,1.5c0.7,2.3,1.1,3.9,1.5,4.9
			c0.6-6.1,0.9-13.3,0.9-21.6v-0.6c0-0.2,0-0.4,0-0.6c0-0.9,0.3-1.3,1-1.3c0.4,0,0.7,0.2,0.9,0.5s0.3,0.7,0.3,1.2v3.2
			c-0.1,4.4-0.2,9.1-0.5,14.2c-0.3,5.1-0.6,8-1,8.6c-0.8,0.2-1.3,0.3-1.5,0.3C379.3,510.5,379.1,510.4,378.9,510.2z"/>
		<path class="st2" d="M390.7,510.5c-0.3-0.3-0.5-0.6-0.5-0.9v-1.1v-0.9c0-0.3,0-0.6,0-0.9c0-0.6,0-1.5-0.1-2.7l-0.1-2.7
			c0-1.4,0-3.5,0.1-6.2c0.1-2.5,0.2-4.5,0.2-6.2c0-0.4,0-1-0.1-1.8c-0.1-0.8-0.1-1.4-0.1-1.8c0-2,0.6-3,1.8-3c0.9,0,2,0.2,3.3,0.6
			c1.2,0.4,1.8,0.8,1.8,1.3c0,0.3-0.1,0.5-0.4,0.8c-0.2,0.2-0.5,0.4-0.9,0.6c-1.2-0.4-2.3-0.7-3.2-0.9c0,0.4,0,1,0,1.8
			c0,1.1,0,2.2,0,3.1c-0.1,1.4-0.1,2.4-0.1,3.1l0.1,0.7l0.7,0c0.2,0,0.5,0,0.9,0c1.4,0,2,0.4,2,1.2c0,0.3-0.1,0.6-0.4,0.8
			c-0.3,0.2-0.6,0.3-1,0.3c-0.5,0-0.9,0-1.2-0.1h-1.1c0.1,0.7,0.1,1.8,0.1,3.2s0,2.7,0,3.8c-0.1,1.7-0.1,3-0.1,3.9
			c0,1.6,0,2.4,0.1,2.4l1.4,0c0.5,0,1.1,0,1.7,0c1.1,0,1.6,0.3,1.6,1c0,0.4-0.2,0.7-0.5,0.9c-0.4,0.2-0.8,0.3-1.3,0.3h-3.6
			C391.3,510.9,391,510.8,390.7,510.5z"/>
		<path class="st2" d="M412.4,505l0.1-6.7c0-2,0-4.2,0-6.7c0-0.9-0.1-2.3-0.3-4.2c-0.1-2.1-0.2-3.3-0.2-3.8c0-0.4,0.2-0.7,0.5-1
			c0.3-0.3,0.7-0.4,1-0.4c1,0,1.9,0.2,2.9,0.7s1.7,1.1,2.4,1.8c1.5,1.7,2.5,3.6,3,5.7c0.3,1,0.4,2.1,0.4,3.1c0,0.4,0,0.7,0,1l0,1.1
			v2.3c0,1.8-0.1,3.2-0.2,4.3c-0.2,1.4-0.5,2.7-1,3.8c-0.6,1.2-1.4,2.3-2.5,3.2c-0.5,0.4-1.2,0.9-2,1.3h-3.1
			C412.7,510.6,412.4,508.8,412.4,505z M416.9,508c0.5-0.3,0.9-0.7,1.2-1.2c0.3-0.5,0.5-1,0.8-1.7c0.2-0.7,0.4-1.4,0.5-2
			c0.3-1.3,0.4-2.6,0.5-3.9c0-0.3,0-0.8,0-1.5c0-8.6-1.7-13-5-13.4c-0.2,1.3-0.3,2.8-0.3,4.4c0,1.8,0.1,4.9,0.3,9.4
			c0.2,3.9,0.3,7.1,0.3,9.4v1C415.9,508.4,416.4,508.3,416.9,508z"/>
		<path class="st2" d="M429.1,510.5c-0.3-0.3-0.5-0.6-0.5-0.9v-1.1v-0.9c0-0.3,0-0.6,0-0.9c0-0.6,0-1.5-0.1-2.7l-0.1-2.7
			c0-1.4,0-3.5,0.1-6.2c0.1-2.5,0.2-4.5,0.2-6.2c0-0.4,0-1-0.1-1.8c-0.1-0.8-0.1-1.4-0.1-1.8c0-2,0.6-3,1.8-3c0.9,0,2,0.2,3.3,0.6
			s1.8,0.8,1.8,1.3c0,0.3-0.1,0.5-0.4,0.8c-0.2,0.2-0.5,0.4-0.9,0.6c-1.2-0.4-2.3-0.7-3.2-0.9c0,0.4,0,1,0,1.8c0,1.1,0,2.2,0,3.1
			c-0.1,1.4-0.1,2.4-0.1,3.1l0.1,0.7l0.7,0c0.2,0,0.5,0,0.9,0c1.4,0,2,0.4,2,1.2c0,0.3-0.1,0.6-0.4,0.8s-0.6,0.3-1,0.3
			c-0.5,0-0.9,0-1.2-0.1h-1.1c0.1,0.7,0.1,1.8,0.1,3.2s0,2.7,0,3.8c-0.1,1.7-0.1,3-0.1,3.9c0,1.6,0,2.4,0.1,2.4l1.4,0
			c0.5,0,1.1,0,1.7,0c1.1,0,1.6,0.3,1.6,1c0,0.4-0.2,0.7-0.5,0.9c-0.4,0.2-0.8,0.3-1.3,0.3h-3.6
			C429.7,510.9,429.4,510.8,429.1,510.5z"/>
		<path class="st2" d="M444.2,510.5c-0.5,0.3-0.9,0.4-1.4,0.4c-0.3,0-0.6-0.1-0.9-0.4c-0.2-0.3-0.4-0.6-0.4-1c0-2.4,0.1-5.6,0.3-9.5
			c0.2-4.2,0.3-7.4,0.3-9.5v-0.3c-0.2-1.8-0.3-3.1-0.3-4c0-2.7,0.5-4,1.5-4c0.3,0,0.5,0.1,0.7,0.3c0.2,0.2,0.3,0.5,0.3,0.7
			c0,0.3,0,0.9-0.1,1.6c-0.1,0.7-0.1,1.2-0.1,1.6c0,1.9,0,3.6,0,5.1c0,1.5,0,3.2,0,5.1c-0.1,0.4-0.2,1-0.2,1.8v0.5l-0.1,3.4
			c-0.1,1-0.1,2.1-0.1,3.4c0,2,0.5,2.9,1.4,2.9c0.1,0,0.1,0,0.3,0c0.1,0,0.3,0,0.5,0c0.3,0,0.6,0,1,0c1.5,0,2.3,0.4,2.3,1.3
			c0,0.3-0.1,0.5-0.4,0.7c-0.3,0.2-0.6,0.3-0.9,0.4C447,510.7,445.7,510.5,444.2,510.5z"/>
		<path class="st2" d="M470.2,502.2c-2-6.8-3.7-13.1-5.1-18.8v13.9c0,1.2,0.1,3.2,0.3,6.1c0.2,3.1,0.3,5.1,0.3,6
			c0,0.3-0.2,0.5-0.5,0.7c-0.3,0.2-0.7,0.3-1.1,0.3c-0.6,0-0.9-0.2-0.9-0.7l0.1-1.2c0.1-0.9,0.1-1.5,0.1-1.8c0-1.5-0.1-3.9-0.3-7.1
			c-0.2-3.3-0.3-5.3-0.3-6v-5.4c0-0.9,0-2.2,0.1-3.9c0.1-1.5,0.2-2.8,0.2-3.9V480c0-1.4,0.3-2.1,0.9-2.1c0.4,0,0.8,0.6,1.4,1.9
			c0.9,2,2.1,5.7,3.6,11c0.8,3.1,1.8,7,2.9,11.8c0-0.1,0.2,0.9,0.7,2.9l0,0.2c0-2.7,0-5.2,0.1-7.4l0.1-7.4v-12.6
			c0.1-0.7,0.6-1.1,1.4-1.1c0.8,0,1.1,0.6,1.1,1.7v0.3c-0.2,0.3-0.3,0.8-0.3,1.2c0,1.7,0,4.3-0.1,7.8c-0.1,3.5-0.1,6.2-0.1,7.9v13
			c0,0.5-0.1,0.9-0.4,1.3c-0.2,0.4-0.5,0.6-0.9,0.6C473.1,511,471.9,508.1,470.2,502.2z"/>
		<path class="st2" d="M488.9,510.4c-0.3-0.2-0.5-0.6-0.5-1.1c0-0.9-0.1-2.3-0.4-4.3l-0.2-0.9l-4.2-0.6c-0.2,0.7-0.4,2-0.7,4
			c-0.2,1.4-0.4,2.3-0.8,2.8c-0.2,0.3-0.5,0.4-0.9,0.4c-0.3,0-0.7-0.1-0.9-0.3c-0.3-0.2-0.4-0.5-0.4-0.8l0.1-0.2l0-0.2
			c1.9-7.3,3.3-14.5,4.3-21.6c0-0.1,0-0.3,0-0.6c0-0.3,0.1-0.7,0.1-1.2c0.1-1,0.2-1.9,0.3-2.5c0.1-0.6,0.3-1.1,0.5-1.4h1.4
			c0.4,0,0.7,0.1,1,0.3c0.3,0.2,0.4,0.4,0.4,0.8c0,2.2,0.3,5.4,0.9,9.6c0.6,4.4,0.9,7.4,0.9,9.2c0,0.2,0.1,0.6,0.2,1.3
			c0.1,0.7,0.2,1.1,0.2,1.3s0.1,1,0.4,2.6c0.3,1.4,0.4,2.2,0.4,2.6v0c0,0.6-0.2,1-0.7,1.2C489.7,510.7,489.2,510.6,488.9,510.4z
			 M487.4,501c0-2.6-0.2-5.8-0.7-9.8l-0.4-4.4c-1.2,6.7-2.1,11.7-2.5,15.1c0.4,0.3,1.7,0.5,3.7,0.7
			C487.5,502.2,487.4,501.6,487.4,501z"/>
		<path class="st2" d="M498.4,509.7l0-1.7c0-0.5,0-1,0-1.6l0-1.4c-0.1-0.3-0.3-3.4-0.6-9.3c-0.3-5.9-0.5-9.7-0.6-11.4
			c-1.6-0.1-2.7-0.2-3.1-0.5c-0.3-0.2-0.5-0.5-0.5-0.8c0-0.2,0.1-0.4,0.4-0.6c0.3-0.2,0.6-0.3,0.9-0.3c0.8,0,1.8,0.1,2.9,0.2
			c1.1,0.1,2,0.2,2.9,0.2h0.3h0.3c0.9,0,1.3,0.3,1.3,1c0,0.3-0.1,0.6-0.4,0.8c-0.3,0.2-0.6,0.3-1,0.3c-0.3,0-0.6,0-1.1-0.1l-0.9-0.2
			l0,0.2l0,0.2c0,2.5,0.2,6.5,0.7,12.1c0.5,5.2,0.7,9.2,0.7,12.1c0,0.3-0.1,0.6-0.4,0.9c-0.3,0.3-0.6,0.4-1,0.4L498.4,509.7z"/>
		<path class="st2" d="M510.9,510.6c-0.5-0.3-1-0.7-1.3-1.3c-0.7-1.2-1.1-2.5-1.3-4c-0.2-1.3-0.3-2.9-0.3-4.7
			c-0.1-3.1-0.1-6.8-0.1-11.2l0-3.3c0-0.2,0-0.5,0-0.9c-0.1-1.1-0.1-1.7-0.1-2c0.3-0.6,0.6-0.9,0.9-0.9s0.6,0.3,0.9,0.8
			c0.3,0.5,0.4,1.1,0.4,1.7v11.6c0,1.1,0.1,2.6,0.3,4.5c0.2,2.3,0.3,3.8,0.3,4.5c0,2.1,0.9,3.1,2.7,3.1c2,0,3.1-7.6,3.1-22.9v-2.4
			v-0.4c0-0.1,0-0.2,0-0.3c0-0.3,0.1-0.6,0.2-0.7c0.2-0.2,0.5-0.2,0.9-0.2c0.4,0,0.7,0.1,0.9,0.3c0.2,0.2,0.3,0.5,0.4,0.7
			c0,0.2,0,0.5,0,1c0,0.5,0,1.2-0.1,2.2c-0.1,0.8-0.2,1.5-0.2,2.1c0,0.7,0,1.2-0.1,1.7l-0.1,1.8v0.3c0,0.1,0,0.2,0,0.4
			c0,12.6-1.8,18.9-5.5,18.9C512,511,511.4,510.8,510.9,510.6z"/>
		<path class="st2" d="M530.5,509c-0.6-1.5-1-3-1.3-4.5l-0.3-1.4c-0.8-4.1-1.3-6.4-1.6-6.9h-0.5c0,0.8,0,1.6,0,2.3v2.3
			c0,3.8,0.3,6.8,0.8,8.9l-0.5,1.1h-1.2l-0.6-0.6l0-2.8c0-2.6-0.1-6.4-0.4-11.6c-0.2-5.5-0.3-9.4-0.3-11.6c0-1.4,0.5-2,1.4-2
			c1.5,0,2.8,0.4,3.8,1.2c1,0.8,1.5,1.9,1.5,3.3v3c0,0.4-0.1,0.9-0.2,1.5c-0.1,0.6-0.3,1-0.5,1.3l-0.8,1.5l-0.7,1.3l0.2,1l0.6,3
			c0.4,2.2,0.8,4,1.1,5.3c0.4,1.4,0.8,2.6,1.4,3.7l0.3,0.5c0.3,0.6,0.4,1,0.4,1.4c0,0.3-0.1,0.5-0.3,0.7c-0.2,0.2-0.4,0.3-0.7,0.3
			C531.6,511.1,531,510.4,530.5,509z M528.6,491.5c0.4-1.4,0.7-2.7,0.7-3.9c0-0.9-0.1-1.8-0.3-2.6c-0.1-0.5-0.4-0.8-0.7-1
			c-0.3-0.2-0.7-0.4-1.2-0.4l-0.1,0.2l-0.1,0.4l0.1,5c0.1,1.5,0.1,3.1,0.1,4.8C527.6,493.7,528.1,492.9,528.6,491.5z"/>
		<path class="st2" d="M545.5,510.4c-0.3-0.2-0.5-0.6-0.5-1.1c0-0.9-0.1-2.3-0.4-4.3l-0.2-0.9l-4.2-0.6c-0.2,0.7-0.4,2-0.7,4
			c-0.2,1.4-0.4,2.3-0.8,2.8c-0.2,0.3-0.5,0.4-0.9,0.4c-0.3,0-0.7-0.1-0.9-0.3c-0.3-0.2-0.4-0.5-0.4-0.8l0.1-0.2l0-0.2
			c1.9-7.3,3.3-14.5,4.3-21.6c0-0.1,0-0.3,0-0.6c0-0.3,0.1-0.7,0.1-1.2c0.1-1,0.2-1.9,0.3-2.5c0.1-0.6,0.3-1.1,0.5-1.4h1.4
			c0.4,0,0.7,0.1,1,0.3c0.3,0.2,0.4,0.4,0.4,0.8c0,2.2,0.3,5.4,0.9,9.6c0.6,4.4,0.9,7.4,0.9,9.2c0,0.2,0.1,0.6,0.2,1.3
			c0.1,0.7,0.2,1.1,0.2,1.3s0.1,1,0.4,2.6c0.3,1.4,0.4,2.2,0.4,2.6v0c0,0.6-0.2,1-0.7,1.2C546.3,510.7,545.8,510.6,545.5,510.4z
			 M544,501c0-2.6-0.2-5.8-0.7-9.8l-0.4-4.4c-1.2,6.7-2.1,11.7-2.5,15.1c0.4,0.3,1.7,0.5,3.7,0.7C544.1,502.2,544,501.6,544,501z"/>
		<path class="st2" d="M555.3,510.5c-0.5,0.3-0.9,0.4-1.4,0.4c-0.3,0-0.6-0.1-0.9-0.4c-0.2-0.3-0.4-0.6-0.4-1c0-2.4,0.1-5.6,0.3-9.5
			c0.2-4.2,0.3-7.4,0.3-9.5v-0.3c-0.2-1.8-0.3-3.1-0.3-4c0-2.7,0.5-4,1.5-4c0.3,0,0.5,0.1,0.7,0.3s0.3,0.5,0.3,0.7
			c0,0.3,0,0.9-0.1,1.6c-0.1,0.7-0.1,1.2-0.1,1.6c0,1.9,0,3.6,0,5.1c0,1.5,0,3.2,0,5.1c-0.1,0.4-0.2,1-0.2,1.8v0.5l-0.1,3.4
			c-0.1,1-0.1,2.1-0.1,3.4c0,2,0.5,2.9,1.4,2.9c0.1,0,0.1,0,0.3,0c0.1,0,0.3,0,0.5,0c0.3,0,0.6,0,1,0c1.5,0,2.3,0.4,2.3,1.3
			c0,0.3-0.1,0.5-0.4,0.7c-0.3,0.2-0.6,0.3-0.9,0.4C558.1,510.7,556.8,510.5,555.3,510.5z"/>
		<path class="st2" d="M566.2,510.5c-0.3-0.3-0.5-0.6-0.5-0.9v-1.1v-0.9c0-0.3,0-0.6,0-0.9c0-0.6,0-1.5-0.1-2.7l-0.1-2.7
			c0-1.4,0-3.5,0.1-6.2c0.1-2.5,0.2-4.5,0.2-6.2c0-0.4,0-1-0.1-1.8c-0.1-0.8-0.1-1.4-0.1-1.8c0-2,0.6-3,1.8-3c0.9,0,2,0.2,3.3,0.6
			c1.2,0.4,1.8,0.8,1.8,1.3c0,0.3-0.1,0.5-0.4,0.8c-0.2,0.2-0.5,0.4-0.9,0.6c-1.2-0.4-2.3-0.7-3.2-0.9c0,0.4,0,1,0,1.8
			c0,1.1,0,2.2,0,3.1c-0.1,1.4-0.1,2.4-0.1,3.1l0.1,0.7l0.7,0c0.2,0,0.5,0,0.9,0c1.4,0,2,0.4,2,1.2c0,0.3-0.1,0.6-0.4,0.8
			s-0.6,0.3-1,0.3c-0.5,0-0.9,0-1.2-0.1h-1.1c0.1,0.7,0.1,1.8,0.1,3.2s0,2.7,0,3.8c-0.1,1.7-0.1,3-0.1,3.9c0,1.6,0,2.4,0.1,2.4
			l1.4,0c0.5,0,1.1,0,1.7,0c1.1,0,1.6,0.3,1.6,1c0,0.4-0.2,0.7-0.5,0.9c-0.4,0.2-0.8,0.3-1.3,0.3h-3.6
			C566.8,510.9,566.5,510.8,566.2,510.5z"/>
	</g>
	<g>
		<path class="st2" d="M226.7,510.2c-0.3-0.3-0.4-0.6-0.4-1c0-0.3,0.1-0.6,0.2-0.9c0.1-0.4,0.1-0.7,0.1-0.9c0-2.5-0.1-7.4-0.4-14.5
			c-0.3-6.1-0.4-11-0.4-14.5c0-0.3,0.1-0.5,0.3-0.6c0.2-0.2,0.4-0.2,0.7-0.2c0.3,0,0.6,0.1,0.9,0.4c0.3,0.2,0.4,0.5,0.4,0.9
			c0,1.7,0.1,4.3,0.3,7.7c0.1,3.8,0.2,6.3,0.2,7.7l0,0.5v0.5v0.3v0.2c0.1,2.5,0.1,6.2,0.1,11.1v1.1h3.3c0.6,0.4,0.9,0.8,0.9,1.3
			c0,0.3-0.1,0.6-0.3,0.8c-0.2,0.2-0.5,0.4-0.7,0.4c-0.1,0-0.2,0-0.5-0.1l-0.2,0c-0.2,0-0.4,0-0.8,0h-0.7c-0.2,0-0.4,0-0.7,0
			c-0.3,0.3-0.7,0.5-1.2,0.5C227.3,510.6,227,510.5,226.7,510.2z"/>
		<path class="st2" d="M244.6,510.2c-0.3-0.2-0.5-0.6-0.5-1.1c0-0.9-0.1-2.3-0.4-4.3l-0.2-0.9l-4.2-0.6c-0.2,0.7-0.4,2-0.7,4
			c-0.2,1.4-0.4,2.3-0.8,2.8c-0.2,0.3-0.5,0.4-0.9,0.4c-0.3,0-0.7-0.1-0.9-0.3c-0.3-0.2-0.4-0.5-0.4-0.8l0.1-0.2l0-0.2
			c1.9-7.3,3.3-14.5,4.3-21.6c0-0.1,0-0.3,0-0.6c0-0.3,0.1-0.7,0.1-1.2c0.1-1,0.2-1.9,0.3-2.5c0.1-0.6,0.3-1.1,0.5-1.4h1.4
			c0.4,0,0.7,0.1,1,0.3c0.3,0.2,0.4,0.4,0.4,0.8c0,2.2,0.3,5.4,0.9,9.6c0.6,4.4,0.9,7.4,0.9,9.2c0,0.2,0.1,0.6,0.2,1.3
			c0.1,0.7,0.2,1.1,0.2,1.3s0.1,1,0.4,2.6c0.3,1.4,0.4,2.2,0.4,2.6v0c0,0.6-0.2,1-0.7,1.2C245.4,510.5,244.9,510.4,244.6,510.2z
			 M243.1,500.8c0-2.6-0.2-5.8-0.7-9.8l-0.4-4.4c-1.2,6.7-2.1,11.7-2.5,15.1c0.4,0.3,1.7,0.5,3.7,0.7
			C243.2,502,243.1,501.4,243.1,500.8z"/>
		<path class="st2" d="M262.9,509.8c-0.2-0.4-0.4-0.9-0.4-1.5c0-0.9,0.1-2.1,0.2-3.4l0.1-1.1l0.1-2.3c0-1-0.1-3.2-0.3-6.6
			c-0.2-3.4-0.3-5.6-0.3-6.6c0-0.1,0-0.2,0-0.5c0-0.2,0-0.6,0-1.1c0-0.6,0-1.3,0-2.1c0-2.1-0.1-3.4-0.4-4c-0.2,0-0.5,0-1.1,0.1
			l-1.2,0.1c-0.4,0-0.7-0.1-1-0.3c-0.3-0.2-0.4-0.5-0.4-0.8c0-0.3,0.3-0.6,1-0.9c1-0.3,2.7-0.6,5.1-0.7c1-0.1,1.5-0.1,1.7-0.1
			c0.3,0,0.7,0.1,0.9,0.3c0.3,0.2,0.4,0.5,0.4,0.9s-0.1,0.6-0.4,0.8c-0.2,0.2-0.5,0.3-0.9,0.3l-0.8,0c-0.2,0-0.5,0-0.8,0h-0.4
			c0.2,1.9,0.3,3.7,0.3,5.2l0,2.7c0,0.8,0,1.7,0,2.8c0,1.4,0.1,3,0.2,4.9c0.1,2.4,0.2,4,0.2,4.9c0,1.1,0.1,2.4,0.2,3.8
			c0.1,1.5,0.2,2.8,0.2,3.8c0,1.4-0.4,2.1-1.2,2.1C263.4,510.5,263.1,510.3,262.9,509.8z"/>
		<path class="st2" d="M278.9,508.8c-0.6-1.5-1-3-1.3-4.5l-0.3-1.4c-0.8-4.1-1.3-6.4-1.6-6.9h-0.5c0,0.8,0,1.6,0,2.3v2.3
			c0,3.8,0.3,6.8,0.8,8.9l-0.5,1.1h-1.2l-0.6-0.6l0-2.8c0-2.6-0.1-6.4-0.4-11.6c-0.2-5.5-0.3-9.4-0.3-11.6c0-1.4,0.5-2,1.4-2
			c1.5,0,2.8,0.4,3.8,1.2c1,0.8,1.5,1.9,1.5,3.3v3c0,0.4-0.1,0.9-0.2,1.5c-0.1,0.6-0.3,1-0.5,1.3l-0.8,1.5l-0.7,1.3l0.2,1l0.6,3
			c0.4,2.2,0.8,4,1.1,5.3c0.4,1.4,0.8,2.6,1.4,3.7l0.3,0.5c0.3,0.6,0.4,1,0.4,1.4c0,0.3-0.1,0.5-0.3,0.7c-0.2,0.2-0.4,0.3-0.7,0.3
			C280,510.9,279.4,510.2,278.9,508.8z M276.9,491.3c0.4-1.4,0.7-2.7,0.7-3.9c0-0.9-0.1-1.8-0.3-2.6c-0.1-0.5-0.4-0.8-0.7-1
			c-0.3-0.2-0.7-0.4-1.2-0.4l-0.1,0.2l-0.1,0.4l0.1,5c0.1,1.5,0.1,3.1,0.1,4.8C276,493.5,276.5,492.7,276.9,491.3z"/>
		<path class="st2" d="M293.9,510.2c-0.3-0.2-0.5-0.6-0.5-1.1c0-0.9-0.1-2.3-0.4-4.3l-0.2-0.9l-4.2-0.6c-0.2,0.7-0.4,2-0.7,4
			c-0.2,1.4-0.4,2.3-0.8,2.8c-0.2,0.3-0.5,0.4-0.9,0.4c-0.3,0-0.7-0.1-0.9-0.3c-0.3-0.2-0.4-0.5-0.4-0.8l0.1-0.2l0-0.2
			c1.9-7.3,3.3-14.5,4.3-21.6c0-0.1,0-0.3,0-0.6c0-0.3,0.1-0.7,0.1-1.2c0.1-1,0.2-1.9,0.3-2.5c0.1-0.6,0.3-1.1,0.5-1.4h1.4
			c0.4,0,0.7,0.1,1,0.3c0.3,0.2,0.4,0.4,0.4,0.8c0,2.2,0.3,5.4,0.9,9.6c0.6,4.4,0.9,7.4,0.9,9.2c0,0.2,0.1,0.6,0.2,1.3
			c0.1,0.7,0.2,1.1,0.2,1.3s0.1,1,0.4,2.6c0.3,1.4,0.4,2.2,0.4,2.6v0c0,0.6-0.2,1-0.7,1.2C294.7,510.5,294.2,510.4,293.9,510.2z
			 M292.4,500.8c0-2.6-0.2-5.8-0.7-9.8l-0.4-4.4c-1.2,6.7-2.1,11.7-2.5,15.1c0.4,0.3,1.7,0.5,3.7,0.7
			C292.4,502,292.4,501.4,292.4,500.8z"/>
		<path class="st2" d="M301.2,504.8l0.1-6.7c0-2,0-4.2,0-6.7c0-0.9-0.1-2.3-0.3-4.2c-0.1-2.1-0.2-3.3-0.2-3.8c0-0.4,0.2-0.7,0.5-1
			c0.3-0.3,0.7-0.4,1-0.4c1,0,1.9,0.2,2.9,0.7c0.9,0.4,1.7,1.1,2.4,1.8c1.5,1.7,2.5,3.6,3,5.7c0.3,1,0.4,2.1,0.4,3.1
			c0,0.4,0,0.7,0,1l0,1.1v2.3c0,1.8-0.1,3.2-0.2,4.3c-0.2,1.4-0.5,2.7-1,3.8c-0.6,1.2-1.4,2.3-2.5,3.2c-0.5,0.4-1.2,0.9-2,1.3h-3.1
			C301.6,510.4,301.2,508.6,301.2,504.8z M305.7,507.8c0.5-0.3,0.9-0.7,1.2-1.2c0.3-0.5,0.5-1,0.8-1.7c0.2-0.7,0.4-1.4,0.5-2
			c0.3-1.3,0.4-2.6,0.5-3.9c0-0.3,0-0.8,0-1.5c0-8.6-1.7-13-5-13.4c-0.2,1.3-0.3,2.8-0.3,4.4c0,1.8,0.1,4.9,0.3,9.4
			c0.2,3.9,0.3,7.1,0.3,9.4v1C304.7,508.2,305.3,508.1,305.7,507.8z"/>
		<path class="st2" d="M315.4,508.8c0-0.7,0.4-1,1.3-1h0.5l0.4,0c0.2,0,0.4-0.1,0.5-0.2c0.1-0.1,0.1-0.4,0.1-0.8
			c0-0.5,0-1.2-0.1-2.3c-0.1-0.7-0.2-1.9-0.3-3.7c-0.3-4.3-0.4-7.6-0.4-9.8c0-0.8,0-1.5,0-2.2l0-2.2c0-0.9,0-1.7-0.1-2.3
			c-0.5,0.1-0.8,0.2-1,0.2c-0.7,0-1-0.3-1-1c0-0.3,0.2-0.6,0.6-0.9c0.4-0.3,1-0.4,1.6-0.6c1.1-0.2,2.1-0.3,3-0.3
			c0.3,0,0.6,0.1,0.9,0.4c0.2,0.2,0.4,0.5,0.4,0.8c0,0.3-0.1,0.6-0.3,0.8c-0.2,0.2-0.4,0.3-0.7,0.3c-0.2,0-0.3,0-0.4,0h-0.3
			c-0.3,0-0.5,0.1-0.6,0.2c-0.1,0.1-0.2,0.4-0.2,0.7c0,2.8,0.2,6.9,0.5,12.4c0.1,1,0.2,2.5,0.3,4.5c0.1,1.3,0.2,2.6,0.2,4v1.6
			c0.2,0,0.5,0,0.9,0c1.2,0,1.8,0.5,1.8,1.5v0.3l-1.1,0.7c0,0-0.1,0-0.3,0s-0.4,0-0.9,0c-0.9,0.1-1.5,0.1-1.7,0.1
			C316.6,510.1,315.4,509.7,315.4,508.8z"/>
		<path class="st2" d="M327.6,510c-0.2-0.2-0.3-0.4-0.3-0.7c0-1.7,0.3-3.9,1-6.7c0.7-2.8,1.6-6.2,2.9-10.3c1.3-4.2,2.1-6.9,2.4-8.2
			c-0.3,0-0.9,0-1.7,0.1c-0.8,0.1-1.4,0.1-1.8,0.1c-0.3,0-0.5-0.1-0.8-0.4c-0.2-0.2-0.3-0.5-0.3-0.8c0-0.8,1.6-1.2,4.7-1.2
			c1.4,0,2.1,0.4,2.1,1.2c0,0.9-0.3,2.3-0.9,4c-0.6,1.6-1,2.8-1.1,3.6c-0.3,2-1,5.3-2.2,9.9l-1.9,7.4h0.8l0.9-0.1c0.3,0,0.6,0,0.9,0
			v0c1.1,0,1.7,0.4,1.7,1.1c0,0.3-0.1,0.6-0.4,0.7c-0.3,0.2-0.6,0.3-1.1,0.3c-0.5,0-0.9,0-1.2,0l-1.3-0.1c-0.2,0-0.4,0.1-0.7,0.3
			c-0.4,0.1-0.6,0.2-0.8,0.2C328.1,510.2,327.9,510.2,327.6,510z"/>
		<path class="st2" d="M339.9,508.8c0-0.7,0.4-1,1.3-1h0.5l0.4,0c0.2,0,0.4-0.1,0.5-0.2c0.1-0.1,0.1-0.4,0.1-0.8
			c0-0.5,0-1.2-0.1-2.3c-0.1-0.7-0.2-1.9-0.3-3.7c-0.3-4.3-0.4-7.6-0.4-9.8c0-0.8,0-1.5,0-2.2l0-2.2c0-0.9,0-1.7-0.1-2.3
			c-0.5,0.1-0.8,0.2-1,0.2c-0.7,0-1-0.3-1-1c0-0.3,0.2-0.6,0.6-0.9c0.4-0.3,1-0.4,1.6-0.6c1.1-0.2,2.1-0.3,3-0.3
			c0.3,0,0.6,0.1,0.9,0.4c0.2,0.2,0.4,0.5,0.4,0.8c0,0.3-0.1,0.6-0.3,0.8c-0.2,0.2-0.4,0.3-0.7,0.3c-0.2,0-0.3,0-0.4,0h-0.3
			c-0.3,0-0.5,0.1-0.6,0.2c-0.1,0.1-0.2,0.4-0.2,0.7c0,2.8,0.2,6.9,0.5,12.4c0.1,1,0.2,2.5,0.3,4.5c0.1,1.3,0.2,2.6,0.2,4v1.6
			c0.2,0,0.5,0,0.9,0c1.2,0,1.8,0.5,1.8,1.5v0.3l-1.1,0.7c0,0-0.1,0-0.3,0s-0.4,0-0.9,0c-0.9,0.1-1.5,0.1-1.7,0.1
			C341.2,510.1,339.9,509.7,339.9,508.8z"/>
		<path class="st2" d="M355.3,510.3c-0.6-0.5-1.1-1.1-1.5-1.9c-0.8-1.7-1.3-3.6-1.5-5.7c-0.3-1.9-0.4-3.8-0.4-5.6c0-0.3,0-0.6,0-0.9
			v-0.8c0-0.1,0-0.2,0-0.2v-0.8l0-3c0-0.9,0.1-2.4,0.3-4.3c0.1-1.4,0.5-2.7,1-4c0.2-0.6,0.5-1,0.8-1.3c0.3-0.3,0.7-0.4,1.1-0.4
			c1.1,0,2.2,0.2,3.1,0.6c0.9,0.4,1.7,1,2.3,1.7c0.6,0.7,1,1.6,1.4,2.6c0.4,1,0.7,2.1,0.9,3.3c0.2,1.2,0.3,2.5,0.3,3.8v0.3
			c0,0.9,0,1.7,0,2.4l0,2.4c0,8.2-1.9,12.2-5.7,12.2C356.6,511,356,510.7,355.3,510.3z M358.6,508.6c0.4-0.4,0.8-1,1-1.7
			c0.5-1.4,0.9-3,1-4.7c0.1-1.4,0.2-2.7,0.2-3.7c0-1.3-0.1-2.9-0.3-5c-0.2-2.2-0.3-3.8-0.3-4.9v-0.8c-0.1-1.1-0.4-2-1.1-2.8
			c-0.7-0.8-1.5-1.2-2.4-1.2c-1,0-1.6,0.6-1.9,1.7c-0.3,0.9-0.4,2-0.4,3.4c0,0.5,0,1,0,1.4v1.1l-0.1,2c-0.1,0.6-0.1,1.2-0.1,2
			c0,1.5,0,3,0.1,4.5c0.1,2.1,0.4,4.2,0.9,6.2c0.5,2.1,1.1,3.1,2,3.1C357.7,509.2,358.2,509,358.6,508.6z"/>
		<path class="st2" d="M379.8,510c-0.2-0.2-0.3-0.5-0.4-1l-0.3-0.8v-0.1V508c0-0.9-1-4.1-2.9-9.6c-1.9-5.4-3.5-9.5-4.6-12.1v21.4
			l0.2,0.3c0,0.1,0.1,0.2,0.2,0.3c0.1,0.1,0.1,0.3,0.1,0.4c0,0.4-0.1,0.7-0.4,0.9c-0.3,0.3-0.6,0.4-0.9,0.4c-0.9,0-1.4-0.9-1.4-2.6
			l0-7.3c0-2.2,0-4.6,0-7.3c0-0.9,0-2.2,0.1-4c0.1-1.8,0.1-3.1,0.1-4c0-1.3,0.5-2.4,1.5-3.1v0.3c0.2-0.1,0.3-0.1,0.3-0.1
			c0.7,0,1.5,1.1,2.5,3.4c0.8,1.8,1.5,3.7,2.1,5.7c0.6,2,1.5,4.9,2.5,8.6l0.4,1.5c0.7,2.3,1.1,3.9,1.5,4.9
			c0.6-6.1,0.9-13.3,0.9-21.6v-0.6c0-0.2,0-0.4,0-0.6c0-0.9,0.3-1.3,1-1.3c0.4,0,0.7,0.2,0.9,0.5s0.3,0.7,0.3,1.2v3.2
			c-0.1,4.4-0.2,9.1-0.5,14.2c-0.3,5.1-0.6,8-1,8.6c-0.8,0.2-1.3,0.3-1.5,0.3C380.2,510.3,380,510.2,379.8,510z"/>
		<path class="st2" d="M391.6,510.3c-0.3-0.3-0.5-0.6-0.5-0.9v-1.1v-0.9c0-0.3,0-0.6,0-0.9c0-0.6,0-1.5-0.1-2.7l-0.1-2.7
			c0-1.4,0-3.5,0.1-6.2c0.1-2.5,0.2-4.5,0.2-6.2c0-0.4,0-1-0.1-1.8c-0.1-0.8-0.1-1.4-0.1-1.8c0-2,0.6-3,1.8-3c0.9,0,2,0.2,3.3,0.6
			c1.2,0.4,1.8,0.8,1.8,1.3c0,0.3-0.1,0.5-0.4,0.8c-0.2,0.2-0.5,0.4-0.9,0.6c-1.2-0.4-2.3-0.7-3.2-0.9c0,0.4,0,1,0,1.8
			c0,1.1,0,2.2,0,3.1c-0.1,1.4-0.1,2.4-0.1,3.1l0.1,0.7l0.7,0c0.2,0,0.5,0,0.9,0c1.4,0,2,0.4,2,1.2c0,0.3-0.1,0.6-0.4,0.8
			c-0.3,0.2-0.6,0.3-1,0.3c-0.5,0-0.9,0-1.2-0.1h-1.1c0.1,0.7,0.1,1.8,0.1,3.2s0,2.7,0,3.8c-0.1,1.7-0.1,3-0.1,3.9
			c0,1.6,0,2.4,0.1,2.4l1.4,0c0.5,0,1.1,0,1.7,0c1.1,0,1.6,0.3,1.6,1c0,0.4-0.2,0.7-0.5,0.9c-0.4,0.2-0.8,0.3-1.3,0.3h-3.6
			C392.2,510.7,391.9,510.6,391.6,510.3z"/>
		<path class="st2" d="M413.3,504.8l0.1-6.7c0-2,0-4.2,0-6.7c0-0.9-0.1-2.3-0.3-4.2c-0.1-2.1-0.2-3.3-0.2-3.8c0-0.4,0.2-0.7,0.5-1
			c0.3-0.3,0.7-0.4,1-0.4c1,0,1.9,0.2,2.9,0.7s1.7,1.1,2.4,1.8c1.5,1.7,2.5,3.6,3,5.7c0.3,1,0.4,2.1,0.4,3.1c0,0.4,0,0.7,0,1l0,1.1
			v2.3c0,1.8-0.1,3.2-0.2,4.3c-0.2,1.4-0.5,2.7-1,3.8c-0.6,1.2-1.4,2.3-2.5,3.2c-0.5,0.4-1.2,0.9-2,1.3h-3.1
			C413.7,510.4,413.3,508.6,413.3,504.8z M417.8,507.8c0.5-0.3,0.9-0.7,1.2-1.2c0.3-0.5,0.5-1,0.8-1.7c0.2-0.7,0.4-1.4,0.5-2
			c0.3-1.3,0.4-2.6,0.5-3.9c0-0.3,0-0.8,0-1.5c0-8.6-1.7-13-5-13.4c-0.2,1.3-0.3,2.8-0.3,4.4c0,1.8,0.1,4.9,0.3,9.4
			c0.2,3.9,0.3,7.1,0.3,9.4v1C416.8,508.2,417.4,508.1,417.8,507.8z"/>
		<path class="st2" d="M430,510.3c-0.3-0.3-0.5-0.6-0.5-0.9v-1.1v-0.9c0-0.3,0-0.6,0-0.9c0-0.6,0-1.5-0.1-2.7l-0.1-2.7
			c0-1.4,0-3.5,0.1-6.2c0.1-2.5,0.2-4.5,0.2-6.2c0-0.4,0-1-0.1-1.8c-0.1-0.8-0.1-1.4-0.1-1.8c0-2,0.6-3,1.8-3c0.9,0,2,0.2,3.3,0.6
			s1.8,0.8,1.8,1.3c0,0.3-0.1,0.5-0.4,0.8c-0.2,0.2-0.5,0.4-0.9,0.6c-1.2-0.4-2.3-0.7-3.2-0.9c0,0.4,0,1,0,1.8c0,1.1,0,2.2,0,3.1
			c-0.1,1.4-0.1,2.4-0.1,3.1l0.1,0.7l0.7,0c0.2,0,0.5,0,0.9,0c1.4,0,2,0.4,2,1.2c0,0.3-0.1,0.6-0.4,0.8s-0.6,0.3-1,0.3
			c-0.5,0-0.9,0-1.2-0.1h-1.1c0.1,0.7,0.1,1.8,0.1,3.2s0,2.7,0,3.8c-0.1,1.7-0.1,3-0.1,3.9c0,1.6,0,2.4,0.1,2.4l1.4,0
			c0.5,0,1.1,0,1.7,0c1.1,0,1.6,0.3,1.6,1c0,0.4-0.2,0.7-0.5,0.9c-0.4,0.2-0.8,0.3-1.3,0.3H431C430.6,510.7,430.3,510.6,430,510.3z"
			/>
		<path class="st2" d="M445.1,510.3c-0.5,0.3-0.9,0.4-1.4,0.4c-0.3,0-0.6-0.1-0.9-0.4c-0.2-0.3-0.4-0.6-0.4-1c0-2.4,0.1-5.6,0.3-9.5
			c0.2-4.2,0.3-7.4,0.3-9.5V490c-0.2-1.8-0.3-3.1-0.3-4c0-2.7,0.5-4,1.5-4c0.3,0,0.5,0.1,0.7,0.3c0.2,0.2,0.3,0.5,0.3,0.7
			c0,0.3,0,0.9-0.1,1.6c-0.1,0.7-0.1,1.2-0.1,1.6c0,1.9,0,3.6,0,5.1c0,1.5,0,3.2,0,5.1c-0.1,0.4-0.2,1-0.2,1.8v0.5l-0.1,3.4
			c-0.1,1-0.1,2.1-0.1,3.4c0,2,0.5,2.9,1.4,2.9c0.1,0,0.1,0,0.3,0c0.1,0,0.3,0,0.5,0c0.3,0,0.6,0,1,0c1.5,0,2.3,0.4,2.3,1.3
			c0,0.3-0.1,0.5-0.4,0.7c-0.3,0.2-0.6,0.3-0.9,0.4C447.9,510.5,446.6,510.3,445.1,510.3z"/>
		<path class="st2" d="M471.1,502c-2-6.8-3.7-13.1-5.1-18.8v13.9c0,1.2,0.1,3.2,0.3,6.1c0.2,3.1,0.3,5.1,0.3,6
			c0,0.3-0.2,0.5-0.5,0.7c-0.3,0.2-0.7,0.3-1.1,0.3c-0.6,0-0.9-0.2-0.9-0.7l0.1-1.2c0.1-0.9,0.1-1.5,0.1-1.8c0-1.5-0.1-3.9-0.3-7.1
			c-0.2-3.3-0.3-5.3-0.3-6v-5.4c0-0.9,0-2.2,0.1-3.9c0.1-1.5,0.2-2.8,0.2-3.9v-0.3c0-1.4,0.3-2.1,0.9-2.1c0.4,0,0.8,0.6,1.4,1.9
			c0.9,2,2.1,5.7,3.6,11c0.8,3.1,1.8,7,2.9,11.8c0-0.1,0.2,0.9,0.7,2.9l0,0.2c0-2.7,0-5.2,0.1-7.4l0.1-7.4v-12.6
			c0.1-0.7,0.6-1.1,1.4-1.1c0.8,0,1.1,0.6,1.1,1.7v0.3c-0.2,0.3-0.3,0.8-0.3,1.2c0,1.7,0,4.3-0.1,7.8c-0.1,3.5-0.1,6.2-0.1,7.9v13
			c0,0.5-0.1,0.9-0.4,1.3c-0.2,0.4-0.5,0.6-0.9,0.6C474,510.8,472.8,507.9,471.1,502z"/>
		<path class="st2" d="M489.8,510.2c-0.3-0.2-0.5-0.6-0.5-1.1c0-0.9-0.1-2.3-0.4-4.3l-0.2-0.9l-4.2-0.6c-0.2,0.7-0.4,2-0.7,4
			c-0.2,1.4-0.4,2.3-0.8,2.8c-0.2,0.3-0.5,0.4-0.9,0.4c-0.3,0-0.7-0.1-0.9-0.3c-0.3-0.2-0.4-0.5-0.4-0.8l0.1-0.2l0-0.2
			c1.9-7.3,3.3-14.5,4.3-21.6c0-0.1,0-0.3,0-0.6c0-0.3,0.1-0.7,0.1-1.2c0.1-1,0.2-1.9,0.3-2.5c0.1-0.6,0.3-1.1,0.5-1.4h1.4
			c0.4,0,0.7,0.1,1,0.3c0.3,0.2,0.4,0.4,0.4,0.8c0,2.2,0.3,5.4,0.9,9.6c0.6,4.4,0.9,7.4,0.9,9.2c0,0.2,0.1,0.6,0.2,1.3
			c0.1,0.7,0.2,1.1,0.2,1.3s0.1,1,0.4,2.6c0.3,1.4,0.4,2.2,0.4,2.6v0c0,0.6-0.2,1-0.7,1.2C490.6,510.5,490.1,510.4,489.8,510.2z
			 M488.3,500.8c0-2.6-0.2-5.8-0.7-9.8l-0.4-4.4c-1.2,6.7-2.1,11.7-2.5,15.1c0.4,0.3,1.7,0.5,3.7,0.7
			C488.4,502,488.3,501.4,488.3,500.8z"/>
		<path class="st2" d="M499.3,509.5l0-1.7c0-0.5,0-1,0-1.6l0-1.4c-0.1-0.3-0.3-3.4-0.6-9.3c-0.3-5.9-0.5-9.7-0.6-11.4
			c-1.6-0.1-2.7-0.2-3.1-0.5c-0.3-0.2-0.5-0.5-0.5-0.8c0-0.2,0.1-0.4,0.4-0.6c0.3-0.2,0.6-0.3,0.9-0.3c0.8,0,1.8,0.1,2.9,0.2
			c1.1,0.1,2,0.2,2.9,0.2h0.3h0.3c0.9,0,1.3,0.3,1.3,1c0,0.3-0.1,0.6-0.4,0.8c-0.3,0.2-0.6,0.3-1,0.3c-0.3,0-0.6,0-1.1-0.1l-0.9-0.2
			l0,0.2l0,0.2c0,2.5,0.2,6.5,0.7,12.1c0.5,5.2,0.7,9.2,0.7,12.1c0,0.3-0.1,0.6-0.4,0.9c-0.3,0.3-0.6,0.4-1,0.4L499.3,509.5z"/>
		<path class="st2" d="M511.8,510.4c-0.5-0.3-1-0.7-1.3-1.3c-0.7-1.2-1.1-2.5-1.3-4c-0.2-1.3-0.3-2.9-0.3-4.7
			c-0.1-3.1-0.1-6.8-0.1-11.2l0-3.3c0-0.2,0-0.5,0-0.9c-0.1-1.1-0.1-1.7-0.1-2c0.3-0.6,0.6-0.9,0.9-0.9s0.6,0.3,0.9,0.8
			c0.3,0.5,0.4,1.1,0.4,1.7v11.6c0,1.1,0.1,2.6,0.3,4.5c0.2,2.3,0.3,3.8,0.3,4.5c0,2.1,0.9,3.1,2.7,3.1c2,0,3.1-7.6,3.1-22.9V483
			v-0.4c0-0.1,0-0.2,0-0.3c0-0.3,0.1-0.6,0.2-0.7c0.2-0.2,0.5-0.2,0.9-0.2c0.4,0,0.7,0.1,0.9,0.3c0.2,0.2,0.3,0.5,0.4,0.7
			c0,0.2,0,0.5,0,1c0,0.5,0,1.2-0.1,2.2c-0.1,0.8-0.2,1.5-0.2,2.1c0,0.7,0,1.2-0.1,1.7l-0.1,1.8v0.3c0,0.1,0,0.2,0,0.4
			c0,12.6-1.8,18.9-5.5,18.9C512.9,510.8,512.3,510.6,511.8,510.4z"/>
		<path class="st2" d="M531.4,508.8c-0.6-1.5-1-3-1.3-4.5l-0.3-1.4c-0.8-4.1-1.3-6.4-1.6-6.9h-0.5c0,0.8,0,1.6,0,2.3v2.3
			c0,3.8,0.3,6.8,0.8,8.9l-0.5,1.1h-1.2l-0.6-0.6l0-2.8c0-2.6-0.1-6.4-0.4-11.6c-0.2-5.5-0.3-9.4-0.3-11.6c0-1.4,0.5-2,1.4-2
			c1.5,0,2.8,0.4,3.8,1.2c1,0.8,1.5,1.9,1.5,3.3v3c0,0.4-0.1,0.9-0.2,1.5c-0.1,0.6-0.3,1-0.5,1.3l-0.8,1.5l-0.7,1.3l0.2,1l0.6,3
			c0.4,2.2,0.8,4,1.1,5.3c0.4,1.4,0.8,2.6,1.4,3.7l0.3,0.5c0.3,0.6,0.4,1,0.4,1.4c0,0.3-0.1,0.5-0.3,0.7c-0.2,0.2-0.4,0.3-0.7,0.3
			C532.5,510.9,531.9,510.2,531.4,508.8z M529.5,491.3c0.4-1.4,0.7-2.7,0.7-3.9c0-0.9-0.1-1.8-0.3-2.6c-0.1-0.5-0.4-0.8-0.7-1
			c-0.3-0.2-0.7-0.4-1.2-0.4l-0.1,0.2l-0.1,0.4l0.1,5c0.1,1.5,0.1,3.1,0.1,4.8C528.5,493.5,529,492.7,529.5,491.3z"/>
		<path class="st2" d="M546.4,510.2c-0.3-0.2-0.5-0.6-0.5-1.1c0-0.9-0.1-2.3-0.4-4.3l-0.2-0.9l-4.2-0.6c-0.2,0.7-0.4,2-0.7,4
			c-0.2,1.4-0.4,2.3-0.8,2.8c-0.2,0.3-0.5,0.4-0.9,0.4c-0.3,0-0.7-0.1-0.9-0.3c-0.3-0.2-0.4-0.5-0.4-0.8l0.1-0.2l0-0.2
			c1.9-7.3,3.3-14.5,4.3-21.6c0-0.1,0-0.3,0-0.6c0-0.3,0.1-0.7,0.1-1.2c0.1-1,0.2-1.9,0.3-2.5c0.1-0.6,0.3-1.1,0.5-1.4h1.4
			c0.4,0,0.7,0.1,1,0.3c0.3,0.2,0.4,0.4,0.4,0.8c0,2.2,0.3,5.4,0.9,9.6c0.6,4.4,0.9,7.4,0.9,9.2c0,0.2,0.1,0.6,0.2,1.3
			c0.1,0.7,0.2,1.1,0.2,1.3s0.1,1,0.4,2.6c0.3,1.4,0.4,2.2,0.4,2.6v0c0,0.6-0.2,1-0.7,1.2C547.2,510.5,546.7,510.4,546.4,510.2z
			 M544.9,500.8c0-2.6-0.2-5.8-0.7-9.8l-0.4-4.4c-1.2,6.7-2.1,11.7-2.5,15.1c0.4,0.3,1.7,0.5,3.7,0.7
			C545,502,544.9,501.4,544.9,500.8z"/>
		<path class="st2" d="M556.2,510.3c-0.5,0.3-0.9,0.4-1.4,0.4c-0.3,0-0.6-0.1-0.9-0.4c-0.2-0.3-0.4-0.6-0.4-1c0-2.4,0.1-5.6,0.3-9.5
			c0.2-4.2,0.3-7.4,0.3-9.5V490c-0.2-1.8-0.3-3.1-0.3-4c0-2.7,0.5-4,1.5-4c0.3,0,0.5,0.1,0.7,0.3s0.3,0.5,0.3,0.7
			c0,0.3,0,0.9-0.1,1.6c-0.1,0.7-0.1,1.2-0.1,1.6c0,1.9,0,3.6,0,5.1c0,1.5,0,3.2,0,5.1c-0.1,0.4-0.2,1-0.2,1.8v0.5l-0.1,3.4
			c-0.1,1-0.1,2.1-0.1,3.4c0,2,0.5,2.9,1.4,2.9c0.1,0,0.1,0,0.3,0c0.1,0,0.3,0,0.5,0c0.3,0,0.6,0,1,0c1.5,0,2.3,0.4,2.3,1.3
			c0,0.3-0.1,0.5-0.4,0.7c-0.3,0.2-0.6,0.3-0.9,0.4C559,510.5,557.7,510.3,556.2,510.3z"/>
		<path class="st2" d="M567.1,510.3c-0.3-0.3-0.5-0.6-0.5-0.9v-1.1v-0.9c0-0.3,0-0.6,0-0.9c0-0.6,0-1.5-0.1-2.7l-0.1-2.7
			c0-1.4,0-3.5,0.1-6.2c0.1-2.5,0.2-4.5,0.2-6.2c0-0.4,0-1-0.1-1.8c-0.1-0.8-0.1-1.4-0.1-1.8c0-2,0.6-3,1.8-3c0.9,0,2,0.2,3.3,0.6
			c1.2,0.4,1.8,0.8,1.8,1.3c0,0.3-0.1,0.5-0.4,0.8c-0.2,0.2-0.5,0.4-0.9,0.6c-1.2-0.4-2.3-0.7-3.2-0.9c0,0.4,0,1,0,1.8
			c0,1.1,0,2.2,0,3.1c-0.1,1.4-0.1,2.4-0.1,3.1l0.1,0.7l0.7,0c0.2,0,0.5,0,0.9,0c1.4,0,2,0.4,2,1.2c0,0.3-0.1,0.6-0.4,0.8
			s-0.6,0.3-1,0.3c-0.5,0-0.9,0-1.2-0.1h-1.1c0.1,0.7,0.1,1.8,0.1,3.2s0,2.7,0,3.8c-0.1,1.7-0.1,3-0.1,3.9c0,1.6,0,2.4,0.1,2.4
			l1.4,0c0.5,0,1.1,0,1.7,0c1.1,0,1.6,0.3,1.6,1c0,0.4-0.2,0.7-0.5,0.9c-0.4,0.2-0.8,0.3-1.3,0.3h-3.6
			C567.7,510.7,567.4,510.6,567.1,510.3z"/>
	</g>
</g>
</svg>
