<?xml version="1.0" encoding="utf-8"?>
<!-- Generator: Adobe Illustrator 24.3.0, SVG Export Plug-In . SVG Version: 6.00 Build 0)  -->
<svg version="1.1" id="Livello_1" xmlns="http://www.w3.org/2000/svg" xmlns:xlink="http://www.w3.org/1999/xlink" x="0px" y="0px"
	 viewBox="0 0 700 700" style="enable-background:new 0 0 700 700;" xml:space="preserve">
<style type="text/css">
	.st0{fill:url(#SVGID_1_);}
	.st1{fill:#575756;}
	.st2{fill:#5A5A5A;}
	.st3{fill:none;stroke:#575756;stroke-miterlimit:10;}
</style>
<linearGradient id="SVGID_1_" gradientUnits="userSpaceOnUse" x1="102.5125" y1="102.5125" x2="597.4875" y2="597.4875">
	<stop  offset="0" style="stop-color:#DADADA"/>
	<stop  offset="1" style="stop-color:#878787"/>
</linearGradient>
<path class="st0" d="M350,700L350,700C156.7,700,0,543.3,0,350v0C0,156.7,156.7,0,350,0h0c193.3,0,350,156.7,350,350v0
	C700,543.3,543.3,700,350,700z"/>
<g>
	<g>
		<path class="st1" d="M351.2,246.7c-0.1,0.8,0.1,1.6,0.1,2.3c0.3,5.3-0.6,10.3-2.5,15.1c-1.9,4.9-4.1,9.8-6.1,14.7
			c-1.9,4.8-4,9.5-5.6,14.5c-1.9,6-2.4,12.1-1.2,18.4c1.4,7.3,4.6,13.3,8.8,18.5c0.8,0.9,1.6,1.9,2.6,2.7c-0.3-1.3-0.6-2.5-0.8-3.8
			c-1.2-6.4-1.7-12.8-0.7-19.3c1-6.4,3.2-12.1,6.9-16.7c0.9-1.2,1.9-2.2,3.1-3.2c0,0.4,0,0.7,0,0.9c-0.1,3,0,6,0.4,9.1
			c0.9,7,2.9,13.4,5.9,19.3c0.2,0.5,0.4,0.6,0.8,0.3c2.6-1.4,4.9-3.3,7.2-5.3c0.2-0.1,0.3-0.4,0.5-0.3c-0.3,6.4-1.6,12.6-2.8,18.9
			c0.2-0.2,0.3-0.3,0.4-0.4c4.7-5.1,8.3-11.2,10.9-18.3c2.4-6.8,3.2-13.9,1.9-21.2c-0.9-5.4-2.6-10.4-4.7-15.1
			c-0.4-0.8-0.8-1.5-1.1-2.3c0.2,10.9-2.3,20.7-7.8,29.2c0-0.1,0-0.2,0-0.3c1.3-3.6,1.6-7.4,1.8-11.3c0.2-3.4,0.2-6.9,0-10.3
			c-0.2-3.9-0.4-7.7-1.3-11.4c-2.1-8.7-6.3-15.5-12-20.9c-1.5-1.4-3.1-2.5-4.7-3.8"/>
		<path class="st1" d="M351.3,246.7c1.6,1.2,3.2,2.4,4.7,3.8c5.7,5.5,9.9,12.2,12,20.9c0.9,3.7,1.1,7.6,1.3,11.4
			c0.1,3.4,0.2,6.9,0,10.3c-0.2,3.8-0.6,7.7-1.8,11.3c0,0.1,0,0.2,0,0.3c5.5-8.5,8-18.3,7.8-29.2c0.4,0.8,0.8,1.5,1.1,2.3
			c2.2,4.8,3.8,9.8,4.7,15.1c1.3,7.3,0.5,14.4-1.9,21.2c-2.5,7.1-6.2,13.2-10.9,18.3c-0.1,0.1-0.2,0.2-0.4,0.4
			c1.2-6.3,2.6-12.5,2.8-18.9c-0.2-0.1-0.4,0.2-0.5,0.3c-2.3,2-4.6,3.9-7.2,5.3c-0.4,0.2-0.6,0.1-0.8-0.3c-3-6-5-12.4-5.9-19.3
			c-0.4-3-0.4-6-0.4-9.1c0-0.3,0-0.5,0-0.9c-1.2,0.9-2.2,2-3.1,3.2c-3.7,4.7-5.9,10.3-6.9,16.7c-1,6.5-0.5,12.9,0.7,19.3
			c0.2,1.2,0.5,2.4,0.8,3.8c-1-0.8-1.8-1.8-2.6-2.7c-4.3-5.2-7.5-11.1-8.8-18.5c-1.2-6.3-0.7-12.5,1.2-18.4c1.5-5,3.6-9.7,5.6-14.5
			c2-4.9,4.1-9.7,6.1-14.7c1.9-4.8,2.9-9.7,2.5-15.1c-0.1-0.8-0.2-1.6-0.1-2.3C351.2,246.7,351.2,246.7,351.3,246.7z"/>
	</g>
	<g>
		<path class="st1" d="M346.3,245.5c1.3,0.9,1.3,2.2,1.5,3.5c0.4,3.5-0.9,6.6-2.4,9.6c-2.9,5.8-5.8,11.6-8.5,17.5
			c-3.3,6.9-6.3,13.9-8,21.3c-0.9,4-1.5,8.1-1.3,12.2c0.3,5.2,1.7,10.1,4.5,14.6c3,4.8,7,8.6,12.1,11c4.3,2.1,8.9,2.9,13.8,2.3
			c0.2,0,0.4,0,0.6,0.2c-0.5,0.2-0.9,0.5-1.4,0.7c-3.6,1.6-7.5,2.5-11.5,2.4c-7-0.2-13.2-2.5-18.5-7.3c-5.2-4.7-8-10.5-8.6-17.4
			c-0.4-3.9-0.1-7.9,0.9-11.7c1.4-6,3.7-11.7,6.3-17.3c3.6-7.5,7.6-14.7,11.3-22.1c2.4-4.6,4.5-9.4,6.3-14.3c0.4-1.1,0.7-2.2,1-3.3
			c0.2-0.8,0.6-1.4,1.3-1.9C345.8,245.5,346.1,245.5,346.3,245.5z"/>
	</g>
</g>
<g>
	<path class="st2" d="M47.1,368.2v27h-6.9v-27H47.1z"/>
	<path class="st2" d="M59.2,368.2h12.5c2.7,0,5.1,0.6,7,1.9s3.4,2.9,4.4,4.9c0.9,2,1.4,4.3,1.4,6.8c0,2.5-0.5,4.8-1.4,6.8
		c-0.9,2-2.4,3.6-4.4,4.9s-4.3,1.9-7,1.9H59.2V368.2z M66.1,374.9v13.6h5.1c2,0,3.6-0.6,4.7-1.9c1.1-1.2,1.6-2.9,1.6-5
		s-0.5-3.7-1.6-5c-1.1-1.2-2.7-1.8-4.7-1.8H66.1z"/>
	<path class="st2" d="M108.7,368.2c3.3,0,5.8,0.9,7.5,2.8c1.7,1.9,2.6,4.2,2.6,7.1c0,2-0.5,3.7-1.4,5.4s-2.2,2.8-4,3.6l5.9,8.2h-8.3
		L106,388h-3.5v7.2h-6.9v-27H108.7z M102.4,374.5v7.2h5.9c1.3,0,2.3-0.3,2.9-1c0.6-0.7,0.9-1.5,0.9-2.6c0-2.4-1.3-3.6-3.8-3.6H102.4
		z"/>
	<path class="st2" d="M133,371.8c2.8-2.8,6.2-4.1,10.1-4.1c4,0,7.3,1.4,10.1,4.1c2.8,2.8,4.2,6.1,4.2,9.9s-1.4,7.2-4.2,9.9
		c-2.8,2.8-6.2,4.1-10.1,4.1c-3.9,0-7.3-1.4-10.1-4.1c-2.8-2.8-4.2-6.1-4.2-9.9S130.2,374.6,133,371.8z M137.9,386.9
		c1.4,1.4,3.2,2.1,5.2,2.1c2.1,0,3.8-0.7,5.2-2.1c1.4-1.4,2.1-3.2,2.1-5.2s-0.7-3.8-2.1-5.2c-1.4-1.4-3.2-2.1-5.2-2.1
		c-2,0-3.8,0.7-5.2,2.1s-2.1,3.2-2.1,5.2S136.5,385.5,137.9,386.9z"/>
	<path class="st2" d="M166.1,368.2h23.8v6.7h-8.4v20.3h-6.9v-20.3h-8.4V368.2z"/>
	<path class="st2" d="M200.3,368.2h20.8v6.7h-13.8v3.9h11.4v6.3h-11.4v3.5h13.8v6.7h-20.8V368.2z"/>
	<path class="st2" d="M245.6,368.2c3.3,0,5.8,0.9,7.5,2.8c1.7,1.9,2.6,4.2,2.6,7.1c0,2-0.5,3.7-1.4,5.4s-2.2,2.8-4,3.6l5.9,8.2H248
		l-5.1-7.2h-3.5v7.2h-6.9v-27H245.6z M239.3,374.5v7.2h5.9c1.3,0,2.3-0.3,2.9-1c0.6-0.7,0.9-1.5,0.9-2.6c0-2.4-1.3-3.6-3.8-3.6
		H239.3z"/>
	<path class="st2" d="M267,395.2v-27h7l7.8,17.1l7.8-17.1h7v27h-6.9v-12.7l-5.6,11.7h-4.5l-5.6-11.7v12.7H267z"/>
	<path class="st2" d="M315.6,368.2v27h-6.9v-27H315.6z"/>
	<path class="st2" d="M353.6,388c-1.2,2.3-3,4.2-5.3,5.6c-2.3,1.4-4.8,2.1-7.6,2.1c-3.9,0-7.3-1.4-10.1-4.1s-4.2-6.1-4.2-9.9
		s1.4-7.2,4.2-9.9s6.2-4.1,10.1-4.1c2.8,0,5.3,0.7,7.5,2.1s4,3.3,5.3,5.6l-6.3,2.8c-0.6-1.2-1.5-2.1-2.7-2.8
		c-1.2-0.7-2.4-1.1-3.8-1.1c-2,0-3.8,0.7-5.2,2.1c-1.4,1.4-2.2,3.2-2.2,5.2s0.7,3.8,2.2,5.2c1.4,1.4,3.2,2.1,5.2,2.1
		c1.4,0,2.7-0.3,3.8-1c1.1-0.7,2-1.6,2.7-2.8L353.6,388z"/>
	<path class="st2" d="M378.5,368.2l10.9,27h-7.6l-1.5-4h-10.6l-1.5,4h-7.6l11-27H378.5z M375.1,377.1l-3,7.9h5.9L375.1,377.1z"/>
	<path class="st2" d="M415.4,368.2h13.5c2.8,0,5,0.7,6.5,2c1.5,1.4,2.3,3.2,2.3,5.4c0,2.6-1.1,4.5-3.3,5.7c3,1.1,4.5,3.2,4.5,6.3
		c0,2.3-0.8,4.1-2.4,5.5c-1.6,1.4-3.7,2.1-6.4,2.1h-14.6V368.2z M422.3,374.5v4.3h5.7c1.7,0,2.6-0.7,2.6-2.1c0-0.7-0.2-1.2-0.6-1.6
		c-0.4-0.4-0.9-0.6-1.6-0.6H422.3z M422.3,384.2v4.7h6.9c1.7,0,2.6-0.8,2.6-2.4c0-1.5-0.9-2.3-2.6-2.3H422.3z"/>
	<path class="st2" d="M449.8,368.2h20.8v6.7h-13.8v3.9h11.4v6.3h-11.4v3.5h13.8v6.7h-20.8V368.2z"/>
	<path class="st2" d="M481.9,368.2h6.9v20.3h13v6.7h-19.9V368.2z"/>
	<path class="st2" d="M512.3,368.2h6.9v20.3h13v6.7h-19.9V368.2z"/>
	<path class="st2" d="M558.4,368.2l10.9,27h-7.6l-1.5-4h-10.6l-1.5,4h-7.6l11-27H558.4z M554.9,377.1l-3,7.9h5.9L554.9,377.1z"/>
	<path class="st2" d="M579.3,395.2v-27h5.9l12.1,15.1v-15.1h6.9v27h-5.9l-12.1-15.1v15.1H579.3z"/>
	<path class="st2" d="M616.3,368.2h12.5c2.7,0,5.1,0.6,7,1.9c2,1.2,3.4,2.9,4.4,4.9c0.9,2,1.4,4.3,1.4,6.8c0,2.5-0.5,4.8-1.4,6.8
		c-0.9,2-2.4,3.6-4.4,4.9c-2,1.2-4.3,1.9-7,1.9h-12.5V368.2z M623.2,374.9v13.6h5.1c2,0,3.6-0.6,4.7-1.9s1.6-2.9,1.6-5
		s-0.5-3.7-1.6-5c-1.1-1.2-2.7-1.8-4.7-1.8H623.2z"/>
	<path class="st2" d="M659.6,368.2v27h-6.9v-27H659.6z"/>
</g>
<line class="st3" x1="132.9" y1="354.7" x2="574.8" y2="354.7"/>
</svg>
