<?xml version="1.0" encoding="utf-8"?>
<!-- Generator: Adobe Illustrator 24.3.0, SVG Export Plug-In . SVG Version: 6.00 Build 0)  -->
<svg version="1.1" id="Livello_1" xmlns="http://www.w3.org/2000/svg" xmlns:xlink="http://www.w3.org/1999/xlink" x="0px" y="0px"
	 viewBox="0 0 900 500" style="enable-background:new 0 0 900 500;" xml:space="preserve">
<style type="text/css">
	.st0{fill:#8B1913;}
	.st1{fill:#FBBC24;}
</style>
<path class="st0" d="M869.2,500H30.8C13.8,500,0,486.2,0,469.2V30.8C0,13.8,13.8,0,30.8,0h838.5c17,0,30.8,13.8,30.8,30.8v438.5
	C900,486.2,886.2,500,869.2,500z"/>
<g>
	<g>
		<path class="st1" d="M626.5,311.7c-3.2-2-5.4-0.1-7.5,2.3c-4.5,5.1-9,4.3-11.3-2.1c-0.8-2.2-1.3-4.6-1.8-6.9
			c-1-4.5-0.4-9.1-0.7-13.6c-0.2-3.3-2.1-5.4-5.3-5.4c-3-0.1-4.9,1.7-5.2,4.9c-0.2,2.5-0.4,5.1-0.8,7.6c-0.7,4.3-0.8,8.9-4.8,11.9
			c-7.6,5.6-16.3,8.1-25.7,8.6c-2.5,0.1-3.3-1.1-3.4-3.4c-0.2-6,2.4-10.8,5.9-15.4c3.3-4.4,5.4-4.7,10-1.7c2.6,1.7,5.1,1.7,7.2-0.6
			c2.1-2.2,1.5-4.7,0-7c-0.7-1.1-1.9-1.9-3-2.6c-6.1-4-13.1-3.1-19.1,1.9c-5.6,4.7-7.7,11.7-12.3,17c-6.2,7.3-13.9,11.3-23.6,11.8
			c-3.2,0.1-4.3-1.7-4.1-4c0.6-6.7,3.3-12.6,8.4-17.1c2.2-1.9,4.4-2.1,6.8-0.1c3.2,2.6,6,2.4,8-0.1c2.1-2.6,1.4-5.9-1.6-8.4
			c-5.5-4.6-13.9-4.4-19.5,0.1c-5.4,4.5-8.8,10.2-11.4,16.6c-1.9,4.7-4.5,8.8-9.5,10.7c-4.9,1.8-7.2,0.8-8.5-4.2
			c-2-7.4-2.9-14.9-3-22.5c-0.1-3.3-1.3-6.1-5.2-6.5c-3-0.3-5.5,2.2-5.8,6.3c-0.4,4.3-1.4,8.4-2.7,12.4c-1.7,5.3-3.6,10.7-8.3,14.3
			c-3.3,2.6-5.4,2.3-7.5-1.3c-2.6-4.3-4-9.1-4-14.1c-0.2-14.6,0.1-29.2-0.1-43.9c-0.1-3.9,1.6-5.2,5-6.1c19.3-5,38.3-11.4,58.1-14.8
			c3.8-0.7,5.8-3.3,5.3-6.2c-0.5-2.5-3.7-5-7.4-4.3c-8.2,1.5-16.3,3.5-24.4,5.7c-11.8,3.2-23.7,6.5-35.9,9.9c0.6-4.2-0.5-8-0.5-11.9
			c0-3.7-2.1-5.7-5.3-5.7c-3.2,0-5.1,2.1-5.2,5.8c-0.1,4.3-0.1,8.6,0,12.9c0,1.3-0.1,2.2-1.6,2.7c-9.8,3.3-19.7,5.7-30.1,4.2
			c-3.5-0.5-5.8,0.7-6.8,4c-0.9,2.9,1.3,6,4.9,6.5c3.9,0.5,7.9,0.5,11.9,0.6c7.4,0.2,14.2-2.8,21.4-4.4c1,5.9-0.2,11.4-0.6,17
			c-0.7,10.4-1.8,20.7-5.4,30.6c-2.4,6.6-5.4,8.5-12.3,8.2c-1.6-0.1-2.2-0.4-2.4-2.2c-1.6-14.7-12-25.8-29.3-26.8
			c-3.3-0.2-5.4,1.1-6.1,4.9c-1.4,8.4-3.9,16.5-8,24.1c-1.2,2.2-2.6,4.4-4.6,6c-3.2,2.4-6.9,1-7.4-3c-0.4-3.3-0.6-6.7-0.8-10
			c-0.4-6.5,0.3-13.1-0.6-19.7c-0.2-1.7-0.6-2.4-2.5-2.7c-5.1-0.8-10.2-1.4-15.5-0.8c-17.9,2.1-27.1,12.4-26.4,30.1
			c0.4,9.5,8.5,19.5,21.9,17.7c6.1-0.8,10.7-3.8,14.5-8.1c1.2,0.5,1.5,1.6,2.1,2.5c4.3,5.7,12.3,7.6,18.6,4.2
			c4.4-2.3,7.2-6.1,9.7-10.4c3.7-6.5,6.1-13.5,7.9-20.7c0.7-2.8,1.9-3.1,4.1-2.2c6.4,2.5,10.3,7.2,11.8,14c0.4,2-0.7,2-2,1.7
			c-2.5-0.6-5.1-0.5-7.6-0.4c-5.8,0.3-10.3,3.9-11,8.7c-0.9,6,1.9,10.8,7.3,12.7c7.1,2.5,16.6-0.5,20.9-6.7c1.2-1.7,2.3-2.4,4.5-2.3
			c8.3,0.2,15.9-1.6,20.8-9.1c0.1-0.1,0.5,0,0.7,0c2.9,7.5,6.4,15.2,15.5,15.6c8.7,0.4,14.5-5.6,19-13.3c1.2,3.7,2.7,6.6,5.3,8.9
			c5.3,4.8,15.4,4.2,21.3,0.4c1.9-1.2,2.9-1.5,4.4,0.6c1.9,2.5,4.7,3.8,8,4c8.8,0.5,16.9-1.9,24.2-6.6c2.4-1.6,3.7-2.2,5.3,1
			c1.7,3.4,5,5.4,8.7,5.5c12.6,0.3,24.4-2.2,34.4-10.3c2.4-1.9,3.2-2,4.7,1c3.1,6.1,8.5,8.4,15.3,7.8c6.3-0.6,10.6-3.8,13.5-9.2
			C630.3,315.5,629,313.2,626.5,311.7z M358.1,301.7c-0.1,1.7-0.3,3.6-1.3,5c-0.6,1.8-1.3,3.5-2.3,5.1c-0.7,1.5-1.7,2.9-2.9,3.9
			c-0.1,0-0.1,0.1-0.2,0.1c-0.6,0.6-1.3,1.2-2.1,1.7c-1.2,0.6-2.4,0.9-3.7,1.2c-0.2,0-0.3,0-0.4-0.1c0,0,0,0,0,0
			c-1.9,0.4-4,0.1-5.6-0.9c-0.1-0.1-0.2-0.2-0.2-0.3c-0.5-0.3-0.9-0.6-1.2-0.9c-2.3-1.3-2.9-4.3-3-6.8c0-0.1,0-0.1,0-0.2
			c0-0.1,0-0.2,0-0.3c0-0.8,0.1-1.6,0.2-2.4c0,0,0,0,0,0c0.2-1.6,0.6-3.3,1.2-4.8c0.5-2.4,2-4.4,3.9-5.9c0-0.1,0.1-0.1,0.1-0.2
			c1-0.9,2.2-1.6,3.4-2.2c1-0.5,2-0.9,3.1-1.2c0.8-0.2,1.6-0.4,2.5-0.5c0.1-0.1,0.2-0.1,0.3-0.1c0.6,0,1.2-0.1,1.7-0.1
			c1.6-0.2,6.9-0.9,6.8,1.7c0,0.1,0.1,0.2,0.1,0.2C358.5,296.5,358.3,299.1,358.1,301.7z M412,323.2c-0.9,0.6-1.8,1.3-2.8,1.7
			c-0.7,0.3-1.5,0.4-2.3,0.4c-0.7,0-1.5,0-2.1-0.4c-0.3-0.2-0.6-0.5-0.8-0.8c-0.3-0.4-0.5-0.9-0.5-1.5c0.1-0.9,0.7-1.7,1.5-2.1
			c1-0.5,2.1-0.5,3.1-0.5c0.5,0,1.1,0,1.6,0c0.5,0,1,0,1.5,0c0.7,0.1,1.7,0.3,2,1.1C413.6,322,412.6,322.7,412,323.2z"/>
		<path class="st1" d="M294.1,302.6c0,2.9,0.1,5.9,0,8.9c-0.1,2.9-0.7,5.8-0.7,8.8c-0.1,3.8,2.4,6.4,6,6.6c3,0.2,5.4-2.1,6-5.7
			c2.5-14.3,1.4-28.6-0.5-42.8c-2.3-17-7.7-33.1-15.3-48.5c-4.3-8.6-8.9-17.1-10.3-27.1c-2.8-20.5,4.6-36.5,20.9-48.5
			c24.1-17.8,57.7-14,77.4,8.3c14.5,16.5,18,43.3,7.3,62.4c-10.4,18.6-27.4,27.2-47.5,30.9c-6.4,1.2-13,1.4-19.5,2.3
			c-4.3,0.6-5.9,3.1-5.4,7.3c0.3,3.3,2.6,5.2,6.5,5c14.8-0.7,29.4-3.1,43.1-9.1c38.2-16.7,51-57.5,34.5-92.2
			c-12.9-27.1-41-42-70.9-37.9c-19.8,2.7-36.2,11.8-47.8,28.2c-14.7,20.8-15.4,43.3-4.2,65.5C286.1,249.6,294.5,274.8,294.1,302.6z"
			/>
		<path class="st1" d="M604.9,259.1c-5,0.4-9.5,2.2-13.6,4.9c-2.7,1.8-2.7,4.4-1.2,7c1.5,2.6,3.8,3.1,6.5,1.9
			c3.3-1.5,6.5-2.9,10-3.7c2.9-0.6,4.6-2.8,4.1-5.9C610.1,260.4,608,258.9,604.9,259.1z"/>
		<path class="st1" d="M496,264c-0.6-2.7-1.7-5-5.1-4.9c-5.2,0.2-9.8,2-13.9,5c-2.4,1.7-2.7,4.3-1.2,6.7c1.4,2.4,3.5,3.5,6.4,2.2
			c3.4-1.5,6.8-2.7,10.3-4C494.6,268.1,495.8,266.5,496,264z"/>
	</g>
	<g>
		<path class="st1" d="M284.5,352.7h8.1c1.7,0,3,0.4,3.9,1.2c0.9,0.8,1.4,1.9,1.4,3.3c0,1.6-0.7,2.7-2,3.4c1.8,0.7,2.7,1.9,2.7,3.8
			c0,1.4-0.5,2.5-1.4,3.3c-1,0.9-2.2,1.3-3.9,1.3h-8.8L284.5,352.7L284.5,352.7z M288.7,356.5v2.6h3.5c1,0,1.5-0.4,1.5-1.3
			c0-0.4-0.1-0.7-0.3-0.9c-0.2-0.2-0.6-0.3-1-0.3L288.7,356.5L288.7,356.5z M288.7,362.4v2.9h4.2c1,0,1.6-0.5,1.6-1.5
			c0-0.9-0.5-1.4-1.6-1.4H288.7z"/>
		<path class="st1" d="M307,354.9c1.7-1.7,3.7-2.5,6.1-2.5c2.4,0,4.4,0.8,6.1,2.5c1.7,1.7,2.5,3.6,2.5,6s-0.8,4.3-2.5,6
			c-1.7,1.7-3.7,2.5-6.1,2.5c-2.4,0-4.4-0.8-6.1-2.5c-1.7-1.7-2.6-3.6-2.6-6S305.3,356.6,307,354.9z M310,364
			c0.9,0.9,1.9,1.3,3.1,1.3c1.3,0,2.3-0.4,3.2-1.3c0.9-0.9,1.3-1.9,1.3-3.1s-0.4-2.3-1.3-3.1c-0.8-0.9-1.9-1.3-3.2-1.3
			c-1.2,0-2.3,0.4-3.1,1.3c-0.9,0.9-1.3,1.9-1.3,3.1C308.7,362.1,309.1,363.1,310,364z"/>
		<path class="st1" d="M327,352.7h14.3v4.1h-5.1V369H332v-12.2H327V352.7z"/>
		<path class="st1" d="M347,352.7h14.3v4.1h-5.1V369h-4.2v-12.2H347V352.7z"/>
		<path class="st1" d="M367.7,352.7h12.5v4.1h-8.3v2.3h6.8v3.8h-6.8v2.1h8.3v4h-12.5V352.7z"/>
		<path class="st1" d="M394.1,359.5h7.9v9.5h-3.3v-1.5c-0.4,0.6-1,1-1.7,1.4c-0.7,0.3-1.6,0.5-2.4,0.5c-2.4,0-4.4-0.8-6.1-2.5
			c-1.7-1.7-2.5-3.6-2.5-6s0.9-4.3,2.5-6c1.7-1.7,3.7-2.5,6.1-2.5c1.4,0,2.7,0.3,3.9,0.9c1.2,0.6,2.2,1.4,3,2.5l-3.4,2.3
			c-0.9-1.1-2.1-1.7-3.5-1.7c-1.2,0-2.3,0.4-3.1,1.3c-0.9,0.9-1.3,1.9-1.3,3.1c0,1.2,0.4,2.3,1.3,3.1c0.9,0.9,1.9,1.3,3.1,1.3
			c1.5,0,2.6-0.6,3.5-1.9V363h-3.9L394.1,359.5L394.1,359.5z"/>
		<path class="st1" d="M418.4,352.7L425,369h-4.6l-0.9-2.4h-6.4l-0.9,2.4h-4.6l6.6-16.3H418.4z M416.3,358.1l-1.8,4.8h3.6
			L416.3,358.1z"/>
		<path class="st1" d="M456.2,364.6c-0.7,1.4-1.8,2.5-3.2,3.4c-1.4,0.9-2.9,1.3-4.6,1.3c-2.4,0-4.4-0.8-6.1-2.5
			c-1.7-1.7-2.6-3.6-2.6-6s0.9-4.3,2.6-6c1.7-1.7,3.7-2.5,6.1-2.5c1.7,0,3.2,0.4,4.5,1.3c1.4,0.8,2.4,2,3.2,3.4l-3.8,1.7
			c-0.4-0.7-0.9-1.3-1.6-1.7c-0.7-0.4-1.5-0.6-2.3-0.6c-1.2,0-2.3,0.4-3.1,1.3c-0.9,0.9-1.3,1.9-1.3,3.1c0,1.2,0.4,2.3,1.3,3.1
			c0.9,0.9,1.9,1.3,3.1,1.3c0.8,0,1.6-0.2,2.3-0.6c0.7-0.4,1.2-1,1.6-1.7L456.2,364.6z"/>
		<path class="st1" d="M464.3,354.9c1.7-1.7,3.7-2.5,6.1-2.5c2.4,0,4.4,0.8,6.1,2.5c1.7,1.7,2.5,3.6,2.5,6s-0.8,4.3-2.5,6
			c-1.7,1.7-3.7,2.5-6.1,2.5c-2.4,0-4.4-0.8-6.1-2.5c-1.7-1.7-2.6-3.6-2.6-6S462.6,356.6,464.3,354.9z M467.2,364
			c0.9,0.9,1.9,1.3,3.1,1.3c1.3,0,2.3-0.4,3.2-1.3c0.9-0.9,1.3-1.9,1.3-3.1s-0.4-2.3-1.3-3.1c-0.9-0.9-1.9-1.3-3.2-1.3
			c-1.2,0-2.3,0.4-3.1,1.3c-0.9,0.9-1.3,1.9-1.3,3.1C465.9,362.1,466.4,363.1,467.2,364z"/>
		<path class="st1" d="M485.6,369v-16.3h3.5l7.3,9.1v-9.1h4.2V369H497l-7.3-9.1v9.1H485.6z"/>
		<path class="st1" d="M534.1,364.6c-0.7,1.4-1.8,2.5-3.2,3.4c-1.4,0.9-2.9,1.3-4.6,1.3c-2.4,0-4.4-0.8-6.1-2.5
			c-1.7-1.7-2.6-3.6-2.6-6s0.9-4.3,2.6-6c1.7-1.7,3.7-2.5,6.1-2.5c1.7,0,3.2,0.4,4.5,1.3c1.4,0.8,2.4,2,3.2,3.4l-3.8,1.7
			c-0.4-0.7-0.9-1.3-1.6-1.7c-0.7-0.4-1.5-0.6-2.3-0.6c-1.2,0-2.3,0.4-3.1,1.3c-0.9,0.9-1.3,1.9-1.3,3.1c0,1.2,0.4,2.3,1.3,3.1
			c0.9,0.9,1.9,1.3,3.1,1.3c0.8,0,1.6-0.2,2.3-0.6c0.7-0.4,1.2-1,1.6-1.7L534.1,364.6z"/>
		<path class="st1" d="M555.1,352.7v9.2c0,2.2-0.7,4-2,5.3c-1.3,1.4-3.2,2.1-5.5,2.1c-2.4,0-4.2-0.7-5.5-2.1c-1.3-1.4-2-3.2-2-5.4
			v-9.2h4.2v8.9c0,1.2,0.3,2.1,0.8,2.7c0.6,0.6,1.4,0.9,2.5,0.9c1.1,0,1.9-0.3,2.5-0.9c0.6-0.6,0.9-1.5,0.9-2.7v-8.9H555.1z"/>
		<path class="st1" d="M577.8,364.6c-0.7,1.4-1.8,2.5-3.2,3.4c-1.4,0.9-2.9,1.3-4.6,1.3c-2.4,0-4.4-0.8-6.1-2.5
			c-1.7-1.7-2.6-3.6-2.6-6s0.9-4.3,2.6-6c1.7-1.7,3.7-2.5,6.1-2.5c1.7,0,3.2,0.4,4.5,1.3c1.4,0.8,2.4,2,3.2,3.4l-3.8,1.7
			c-0.4-0.7-0.9-1.3-1.6-1.7c-0.7-0.4-1.5-0.6-2.3-0.6c-1.2,0-2.3,0.4-3.1,1.3c-0.9,0.9-1.3,1.9-1.3,3.1c0,1.2,0.4,2.3,1.3,3.1
			c0.9,0.9,1.9,1.3,3.1,1.3c0.8,0,1.6-0.2,2.3-0.6c0.7-0.4,1.2-1,1.6-1.7L577.8,364.6z"/>
		<path class="st1" d="M588.3,352.7V369h-4.2v-16.3H588.3z"/>
		<path class="st1" d="M595.6,369v-16.3h3.5l7.3,9.1v-9.1h4.2V369H607l-7.3-9.1v9.1H595.6z"/>
		<path class="st1" d="M627.4,352.7l6.6,16.3h-4.6l-0.9-2.4h-6.4l-0.9,2.4h-4.6l6.6-16.3H627.4z M625.3,358.1l-1.8,4.8h3.6
			L625.3,358.1z"/>
	</g>
</g>
</svg>
