<?xml version="1.0" encoding="utf-8"?>
<!-- Generator: Adobe Illustrator 24.3.0, SVG Export Plug-In . SVG Version: 6.00 Build 0)  -->
<svg version="1.1" id="Livello_1" xmlns="http://www.w3.org/2000/svg" xmlns:xlink="http://www.w3.org/1999/xlink" x="0px" y="0px"
	 viewBox="0 0 50 50" style="enable-background:new 0 0 50 50;" xml:space="preserve">
<style type="text/css">
	.st0{fill:#EDEDED;}
</style>
<g>
	<path class="st0" d="M34.41,2.5c0,2.28,0,4.55,0,7.05c-0.86,0-1.61-0.03-2.34,0.01c-2.07,0.1-3.18,1.12-3.27,3.14
		c-0.08,1.69-0.02,3.39-0.02,5.25c2.82,0,5.54,0,8.5,0c-0.91,2.28-1.67,4.35-2.58,6.37c-0.17,0.37-0.88,0.68-1.35,0.71
		c-1.45,0.09-2.91,0.03-4.55,0.03c0,7.54,0,14.95,0,22.46c-2.86,0-5.53,0-8.4,0c0-7.39,0-14.81,0-22.41c-1.96,0-3.74,0-5.62,0
		c0-2.4,0-4.6,0-7c1.74,0,3.52,0,5.54,0c0-1.81,0.11-3.43-0.02-5.04c-0.42-5.24,1.67-8.82,6.71-10.55C29.48,2.5,31.95,2.5,34.41,2.5
		z"/>
</g>
</svg>
