<?xml version="1.0" encoding="utf-8"?>
<!-- Generator: Adobe Illustrator 24.3.0, SVG Export Plug-In . SVG Version: 6.00 Build 0)  -->
<svg version="1.1" id="Livello_1" xmlns="http://www.w3.org/2000/svg" xmlns:xlink="http://www.w3.org/1999/xlink" x="0px" y="0px"
	 viewBox="0 0 50 50" style="enable-background:new 0 0 50 50;" xml:space="preserve">
<style type="text/css">
	.st0{fill:#EDEDED;}
</style>
<g>
	<path class="st0" d="M18.38,6.32c4.46,0,8.92,0,13.38,0c0.12,0.02,0.24,0.04,0.36,0.04c1.06,0.01,2.11,0.1,3.16,0.3
		c2.98,0.56,5.35,2.04,6.92,4.67c1.13,1.89,1.55,3.99,1.56,6.16c0.04,4.93,0.02,9.87,0,14.8c0,1.08-0.12,2.16-0.36,3.22
		c-0.89,3.88-3.19,6.46-7.02,7.63c-1.68,0.51-3.43,0.6-5.17,0.6c-4.87,0-9.74,0.17-14.61-0.12c-1.69-0.1-3.33-0.48-4.83-1.29
		c-3.38-1.84-4.9-4.84-5.26-8.54c-0.19-1.95-0.16-3.92-0.16-5.88c0-0.21-0.03-0.41-0.04-0.62c0-1.51,0-3.02,0-4.53
		c0.01-0.21,0.04-0.41,0.04-0.62c0.01-2.14-0.03-4.28,0.23-6.41c0.23-1.9,0.81-3.68,1.97-5.23c1.98-2.65,4.73-3.79,7.93-4.06
		C17.12,6.39,17.76,6.36,18.38,6.32z M25.13,40.29c2.16,0,4.31,0.03,6.47-0.01c1.04-0.02,2.09-0.06,3.12-0.28
		c2.74-0.57,4.52-2.15,5.24-4.88c0.34-1.27,0.37-2.58,0.39-3.88c0.05-3,0.04-5.99,0.03-8.99c-0.01-2.12,0.04-4.24-0.24-6.34
		c-0.39-3.06-2.31-5.14-5.32-5.77c-1.51-0.32-3.05-0.33-4.58-0.33c-3.93-0.02-7.87-0.09-11.8,0.05c-0.91,0.03-1.82,0.08-2.72,0.23
		c-2.9,0.46-4.86,2.31-5.5,5.18c-0.3,1.34-0.33,2.71-0.34,4.07c-0.02,4.35-0.1,8.7,0.06,13.04c0.03,0.86,0.11,1.72,0.3,2.57
		c0.61,2.61,2.2,4.28,4.81,4.96c1.18,0.31,2.38,0.36,3.58,0.38C20.79,40.32,22.96,40.28,25.13,40.29z"/>
	<path class="st0" d="M25.11,34.71c-5.33,0-9.69-4.35-9.67-9.67c0.02-5.3,4.24-9.66,9.68-9.66c5.37,0,9.66,4.29,9.65,9.68
		C34.75,30.49,30.41,34.67,25.11,34.71z M25.11,31.22c3.41,0,6.19-2.78,6.19-6.18c0-3.4-2.78-6.2-6.17-6.2c-3.43,0-6.2,2.77-6.2,6.2
		C18.92,28.46,21.7,31.22,25.11,31.22z"/>
	<path class="st0" d="M35.09,17.32c-1.29,0-2.26-0.97-2.26-2.26c0-1.29,1.03-2.32,2.28-2.31c1.24,0.01,2.28,1.05,2.29,2.29
		C37.42,16.29,36.38,17.32,35.09,17.32z"/>
</g>
</svg>
