<?xml version="1.0" encoding="utf-8"?>
<!-- Generator: Adobe Illustrator 24.3.0, SVG Export Plug-In . SVG Version: 6.00 Build 0)  -->
<svg version="1.1" id="Livello_1" xmlns="http://www.w3.org/2000/svg" xmlns:xlink="http://www.w3.org/1999/xlink" x="0px" y="0px"
	 viewBox="0 0 50 50" style="enable-background:new 0 0 50 50;" xml:space="preserve">
<style type="text/css">
	.st0{fill:#EDEDED;}
</style>
<g>
	<path class="st0" d="M3.07,12.81c0.24-0.76,0.55-1.48,1.15-2.04c0.79-0.74,1.72-1.1,2.82-1.1c8.1,0.01,16.21,0,24.31,0
		c3.99,0,7.97,0.04,11.96-0.01c2.21-0.03,4.05,1.83,4.04,4.04c-0.04,7.7-0.01,15.4-0.02,23.1c0,2.35-1.67,4.03-4.02,4.03
		c-12.02,0-24.04-0.02-36.05,0.02c-1.93,0.01-3.65-1.16-4.1-2.96c-0.02-0.07-0.05-0.13-0.08-0.2C3.07,29.39,3.07,21.1,3.07,12.81z
		 M7.68,12.33c0.25,0.26,0.46,0.5,0.68,0.72c3.95,3.94,7.91,7.88,11.87,11.82c0.68,0.68,1.37,1.36,2.05,2.04
		c0.97,0.97,2.11,1.45,3.51,1.25c0.98-0.14,1.73-0.67,2.4-1.34c4.78-4.76,9.57-9.52,14.35-14.28c0.05-0.05,0.16-0.09,0.1-0.22
		C31.01,12.33,19.37,12.33,7.68,12.33z M7.75,38.15c11.61,0,23.26,0,34.92,0c-0.23-0.24-0.43-0.48-0.65-0.7
		c-3.33-3.32-6.67-6.64-10-9.97c-0.29-0.29-0.45-0.28-0.71,0.01c-0.52,0.56-1.07,1.09-1.62,1.62c-2.53,2.42-6.48,2.42-9.02,0
		c-0.55-0.53-1.1-1.06-1.62-1.62c-0.27-0.29-0.43-0.28-0.71,0c-2.57,2.58-5.16,5.14-7.73,7.72C9.65,36.17,8.71,37.16,7.75,38.15z
		 M5.73,14.27c0,7.35,0,14.63,0,21.96c0.13-0.13,0.22-0.2,0.3-0.29c3.46-3.44,6.92-6.88,10.39-10.3c0.29-0.29,0.31-0.44,0.01-0.74
		C12.94,21.45,9.47,17.98,6,14.52C5.93,14.45,5.85,14.38,5.73,14.27z M44.53,36.24c0.04-0.03,0.07-0.06,0.11-0.08
		c0-7.28,0-14.55,0-21.83c-0.03-0.02-0.07-0.04-0.1-0.06c-0.09,0.12-0.16,0.24-0.26,0.35c-1.5,1.5-2.99,2.99-4.49,4.48
		c-1.93,1.92-3.86,3.84-5.78,5.76c-0.5,0.49-0.44,0.38,0.02,0.85c0.25,0.26,0.52,0.5,0.78,0.75c3.17,3.16,6.34,6.31,9.51,9.47
		C44.4,36.01,44.46,36.13,44.53,36.24z"/>
</g>
</svg>
