<?xml version="1.0" encoding="utf-8"?>
<!-- Generator: Adobe Illustrator 24.3.0, SVG Export Plug-In . SVG Version: 6.00 Build 0)  -->
<svg version="1.1" id="Livello_1" xmlns="http://www.w3.org/2000/svg" xmlns:xlink="http://www.w3.org/1999/xlink" x="0px" y="0px"
	 viewBox="0 0 100 100" style="enable-background:new 0 0 100 100;" xml:space="preserve">
<style type="text/css">
	.st0{fill:#4DAF50;}
	.st1{fill:#FBFBFB;}
</style>
<g>
	<circle class="st0" cx="50.62" cy="50.87" r="47.35"/>
	<g>
		<path class="st0" d="M4.19,52.26c0-1.09,0-2.17,0-3.26c0.17-0.2,0.06-0.44,0.09-0.66c-0.01-0.15,0.04-0.31-0.09-0.43
			c0-0.3,0-0.6,0-0.91c0.19-1.29,0.19-2.6,0.31-3.9c0.31-3.15,1.25-6.14,2.37-9.08c2.03-5.3,4.92-10.09,8.71-14.3
			c5.09-5.65,11.16-9.93,18.29-12.66c2.35-0.9,4.75-1.61,7.2-2.11c1.7-0.34,3.44-0.31,5.17-0.45c0.23-0.02,0.48,0.08,0.7-0.09
			c0.3,0,0.6,0,0.91,0c0.35,0.19,0.73,0.04,1.09,0.09c0.36-0.05,0.74,0.1,1.09-0.09c0.36,0,0.72,0,1.09,0
			c0.35,0.19,0.73,0.04,1.09,0.09c0.36-0.05,0.74,0.1,1.09-0.09c0.3,0,0.6,0,0.91,0c1.36,0.17,2.72,0.18,4.08,0.31
			c3.27,0.31,6.37,1.32,9.41,2.51c6.94,2.7,12.87,6.88,17.8,12.42c5.96,6.69,9.84,14.46,11.18,23.35c0.55,3.65,0.37,7.38,0.32,11.09
			c-0.06,4.19-0.83,8.2-2.21,12.12c-1.93,5.46-4.74,10.42-8.52,14.83c-4.62,5.4-10.14,9.62-16.64,12.53
			c-3.59,1.61-7.32,2.89-11.24,3.35c-3.47,0.41-6.97,0.45-10.47,0.3c-2.68-0.11-5.35-0.19-7.98-0.81
			c-4.98-1.18-9.64-3.12-13.98-5.81c-0.65-0.4-1.24-0.48-1.97-0.26c-1.85,0.55-3.68,1.18-5.52,1.76c-3.28,1.04-6.55,2.1-9.83,3.14
			c-0.17,0.05-0.34,0.12-0.52,0.15c-0.89,0.19-1.25-0.19-1.03-1.1c0.08-0.35,0.21-0.69,0.33-1.04c1.49-4.59,3.11-9.14,4.66-13.72
			c0.36-1.06,0.23-1.86-0.39-2.77c-3.41-5-5.71-10.47-6.93-16.4c-0.39-1.88-0.34-3.8-0.48-5.7c-0.04-0.32,0.09-0.65-0.09-0.96
			c0-0.12,0-0.24,0-0.36C4.33,52.99,4.33,52.63,4.19,52.26z"/>
		<path class="st1" d="M66.04,76.75c-2.38,0.01-4.46-0.49-6.51-1.12c-5.97-1.84-11.66-4.25-16.63-8.14
			c-4.62-3.62-8.6-7.85-12.07-12.55c-2.04-2.77-4.04-5.56-5.42-8.75c-1.88-4.37-2.43-8.8-0.75-13.37c0.81-2.2,2.14-4.05,3.87-5.6
			c1.73-1.56,3.87-1.61,6.05-1.54c1.4,0.05,2.31,0.62,2.84,1.94c1.49,3.65,3.05,7.28,4.57,10.92c0.56,1.35-0.13,2.41-0.92,3.38
			c-0.85,1.06-1.8,2.04-2.68,3.07c-1.04,1.21-1.08,1.8-0.25,3.17c4.26,6.96,9.93,12.32,17.56,15.44c2.2,0.9,3.17,0.67,4.63-1.19
			c0.91-1.16,1.78-2.36,2.65-3.55c1.2-1.62,2.22-1.92,4.06-1.12c3.48,1.52,6.85,3.28,10.27,4.92c0.86,0.42,1.25,1.04,1.22,2.01
			c-0.19,6.09-2.44,9.21-8.96,11.49C68.36,76.58,67.11,76.81,66.04,76.75z"/>
	</g>
</g>
</svg>
